<svg xmlns="http://www.w3.org/2000/svg" width="2541.13" height="276" viewBox="0 0 2541.13 276"><defs><style>.cls-1{fill:#fcfcfc;}.cls-2{fill:#2c2c2c;}</style></defs><title>city_buildings_far</title><g id="edificios_segundo_plano" data-name="edificios segundo plano"><path class="cls-1" d="M2541.13,300l-2.33-174.54-2-88.85-1-9.82L2522,26.54a3,3,0,0,0-2.19.54,2.69,2.69,0,0,0-.64,1.47,18.76,18.76,0,0,0-.31,5.34l1.32.19a78,78,0,0,0-68.09,63.19,222.67,222.67,0,0,0-1.86,36.3c.74,18.74,6,165.83,6,165.83Z" transform="translate(0 -26.07)"/><path class="cls-1" d="M2276.12,74.29h.12c0-.19,0-.38,0-.57Z" transform="translate(0 -26.07)"/><path class="cls-1" d="M2410.53,232l-2.1-128.59q-16.65-13.55-32.11-28.5l-.73-.06q-17,12.72-32.9,26.68h-.48c-.31-15.32-.45-26.06-.35-28.86l-.07-.09q-32.79-.26-65.55,1.68l.27,20.88-.85-2.47h-10.72l.76-.76V85.81l0-2.67c-13,.59-26.08.56-39.1-.07l.79,2a13.55,13.55,0,0,1,.85,7.68l-.86,0h-6.12l-.26,0c-.56,18.88-2.8,56.16-3.36,75,.31,11,3.05,120.65,3.36,131.64h192.44Z" transform="translate(0 -26.07)"/><path class="cls-1" d="M2298.08,68.38a.68.68,0,0,0-.09-.49.7.7,0,0,0-.58-.15l-9.15.46a1.18,1.18,0,0,0-1.48,1.32l-.06,3.72,10.79-.19A33.46,33.46,0,0,0,2298.08,68.38Z" transform="translate(0 -26.07)"/><path class="cls-1" d="M2335.42,72.28a20.91,20.91,0,0,0-.08-3.45,1.57,1.57,0,0,0-.29-.91,1.66,1.66,0,0,0-1.23-.41,56.6,56.6,0,0,0-6.38.11,1.71,1.71,0,0,0-1.13.37,2,2,0,0,0-.26,1.58,8.33,8.33,0,0,1-.25,2.94Z" transform="translate(0 -26.07)"/><path class="cls-1" d="M2058.88,112.26l8.95-.21-.32,1.08c1.21,11.39,5.91,174.72,5.54,186.17l-830,2.78s45.82-47.9,50.72-54.51,40.4-42.86,44.57-51.43S1383.63,146,1383.63,146q25.71-39.23,54.95-76c3.61-4.53,7.63-9.3,13.23-10.82,8.6-2.36,17,3.72,23.9,9.42l17.78,14.75,1.24.29s24.07,14.7,34.17,21.86,45.37,27.92,47.75,31,19,11.88,19,11.88c5.77,9,14.91,15.3,23.87,21.19,4.06,2.68,8.44,5.42,13.3,5.45a23.13,23.13,0,0,0,8.63-2.1,117.15,117.15,0,0,0,15.27-7.46s19.35-7.78,30.62-13.65a93.51,93.51,0,0,0,19.26-13.54,160.26,160.26,0,0,0,16.72-16.14s16.51-10.65,20.63-13.75c7.38-5.56,13.84-12.4,21.94-16.85s17.57-7,26.66-5.3,16.75,7.36,23.29,13.76c10.68,10.44,18.92,23,27.44,35.32a786.41,786.41,0,0,0,52.16,67.11s15.24,18.45,31.9,25.79c8.32,3.68,11.75,4.29,13.1,4l.63.07c-.19-30.73-.88-100.45-1.07-131.18l-.41.16c18.49-.89,40-1.1,58.53-.62l-.09-.14c1.34,16.38,2.13,33.8,2.36,50.24l0-.73c-.09,13.95.72,136.53,1,150.54l9.08-.54c-.36-22.43-1.67-136.46-2-158.89-.15-9.13-.29-18.28-1.49-27.33l-.28.27,10.74-.73.47-.19a32,32,0,0,0-.56-6.55l-.18.24a277.3,277.3,0,0,1,40.86-.91l-.57-.85,1.25,7.16" transform="translate(0 -26.07)"/><path class="cls-1" d="M1079.39,299.31c-3.3-43.5-11.14-134.62-12.71-149.33-1.38-12.52-2.75-26.68-4.13-39.2h0a.73.73,0,0,0,0-.73,1.28,1.28,0,0,0-.89-.38,26.69,26.69,0,0,0-6-.2,1.23,1.23,0,0,0-.68.2.63.63,0,0,0-.2.72l-.34.81c-.85,10.49-2.3,41.89-3,52.38-.93,13.77-3.28,108.67-4.21,122.44-.51-15.88-3.83-106.21-5-122.06l0-.39c-3.55-37.35-20.93-38.81-33.69-41.88l.06.73a134.28,134.28,0,0,1-.49,24.39l.22.92c-5-5.91-10.24-11.71-16.53-16.22s-13.73-7.73-21.47-7.88l-.36-1.58v23.62l-.21-.21c-2.84-3.22-5.72-6.48-9.27-8.89-2.38-1.6-5-2.81-7.26-4.62s-4.6-4.65-7.64-4.54l-.52.35c-.35,27.78-1.18,126.11-1.65,171.55Z" transform="translate(0 -26.07)"/><path class="cls-1" d="M0,300H644.44c0-1.07,0-2.14,0-3.21.11-7.77.23-15.54.13-23.32-.67-51.49-1.45-103-1-154.53-9-.15-18-.14-27-.48-8-.31-16.11-1.12-24.18-.82-1.84.07-3.68.18-5.51.39a21.48,21.48,0,0,1-4.79.51,4,4,0,0,1,0,.92c-.48,1.19,0,3.37,0,4.66q0,7.29,0,14.57c0,7.75.38,78.13.47,83.48l.44.51a.61.61,0,0,1-.43,1H582a.61.61,0,0,1-.6-.6v-.49L555.18,191.8C546.8,182,537.35,172.43,529.77,162c-2.51-3.47-4.36-7.4-7-10.86-5.61-7.43-12-14.32-18.1-21.37-4.55-5.28-9.71-10.47-13.53-16.23a111.17,111.17,0,0,0-9.93-12.27c-7.66-8.64-15.75-16.91-23.9-25.09-2.9-2.92-5.34-5.93-9.64-6.51-5.64-.77-9.72,3.63-13.9,7q-10,8-19.72,16.36Q395,109.36,377.12,127.12q-8.76,8.72-17.21,17.73c-2.62,2.79-5.09,5.8-7.86,8.43a15.78,15.78,0,0,1-1.85,1.62L350,155h0c.49.42,0,1.12-.58,1l-.73-.16a.61.61,0,0,1-.42-.74L305,118.3l-19.44-16.56c-3.78-3.22-7.84-7.7-12.75-9s-9.91.24-14.05,2.68c-6.55,3.86-11.81,10.14-17.29,15.31-5.63,5.31-11.35,10.51-17.11,15.68-11.5,10.33-23.14,20.52-34.4,31.12-5.62,5.29-11.14,10.68-16.5,16.23q-4,4.16-7.89,8.45c-1.38,1.53-2.7,3.16-4.12,4.66-.45.47-1.52,1.24-1.73,1.7l.48.61-.76.26-.27.35-.17-.21-.45.15a.61.61,0,0,1-.27-1l0,0a122.2,122.2,0,0,0-50.9-38.36c-3-1.18-6.21-2.37-9.48-2.3-4.18.08-7.1,2.23-10.13,4.79-4.18,3.53-8.17,7.33-12.25,11-6.5,5.83-13.65,13.55-22.87,14.46-8.27.81-15-4.55-20.81-9.75-7-6.29-18.35-17-28.6-10.9-1.11.66-2.2,1.39-3.28,2.15Z" transform="translate(0 -26.07)"/></g><g id="edificios_segundo_plano_copia" data-name="edificios segundo plano copia"><path class="cls-2" d="M156.31,193c23.51-28.57,52.31-51.9,79.39-76.88,6.75-6.22,13.05-13.48,20.44-18.92,4.19-3.09,9.13-5.31,14.44-4.79,6.1.58,10.61,5.62,15.07,9.42l47,40,53.78,45.83c.59.49,1.44-.35.85-.85L285.74,100.31c-6.06-5.17-11.41-10.53-20-8.93-7.93,1.48-13.77,7.55-19.31,12.92-14.22,13.78-29.2,26.73-43.89,40-16.62,15-32.85,30.5-47.1,47.82-.49.59.36,1.44.85.85Z" transform="translate(0 -26.07)"/><path class="cls-2" d="M222.27,126.94,219,133.46c-.57,1.14-1.8,2.79-1.42,4.17a2.5,2.5,0,0,0,4.11,1c.56-.53-.29-1.38-.85-.84q-2.51,1.05-1.75-1.78l.38-.77a24.73,24.73,0,0,1,1.33-2.68l2.47-5c.34-.69-.69-1.3-1-.61Z" transform="translate(0 -26.07)"/><path class="cls-2" d="M230.71,131.59a13.06,13.06,0,0,0,5.76-2.38,25.87,25.87,0,0,1,3.43-2.14c2.4-1.09,7.8-.69,6.22,3.42-.27.73.89,1,1.16.32,1-2.61-1-5.26-3.7-5.65-4.92-.72-8.23,4.66-12.87,5.23-.75.09-.76,1.29,0,1.2Z" transform="translate(0 -26.07)"/><path class="cls-2" d="M247.91,135.4c.88,3.46,2.83,16.72,9,14.15,2.74-1.15,4.35-5,5.44-7.47,1.71-3.83,5.09-20.93,12.32-13.83a.6.6,0,0,0,.84-.85c-3.84-3.77-8.85-.54-10.73,3.57s-1.92,9.78-5,13.5l-.84,1.4-5.88,1.22c-.72-.4-1.34-3.24-1.66-4.12a82.29,82.29,0,0,1-2.36-7.89.6.6,0,0,0-1.16.32Z" transform="translate(0 -26.07)"/><path class="cls-2" d="M278.34,131.61c4.14,2.68,5.61,10,11.31,10.45,4.59.33,5.83-4.72,6.3-8.26.1-.76-1.1-.76-1.2,0-.27,2-.72,5.56-2.81,6.53-3.33,1.55-6.1-1.25-7.8-3.73-1.56-2.28-2.82-4.49-5.19-6-.65-.42-1.25.62-.61,1Z" transform="translate(0 -26.07)"/><path class="cls-2" d="M297.55,132.29l3.06.53c.76.13,1.08-1,.32-1.16l-3.06-.52c-.75-.13-1.08,1-.32,1.15Z" transform="translate(0 -26.07)"/><path class="cls-2" d="M311.81,134a4.94,4.94,0,0,0,5.75.59.6.6,0,0,0-.6-1,3.71,3.71,0,0,1-4.3-.4c-.58-.5-1.43.34-.85.85Z" transform="translate(0 -26.07)"/><path class="cls-2" d="M352.46,152.92a708.63,708.63,0,0,1,77.76-73.46c3.78-3.06,7.57-6.8,11.88-9,5.67-3,10.08.56,14,4.44s7.65,7.7,11.42,11.61c8.4,8.71,17.44,17.55,24.12,27.7.43.64,1.47,0,1-.61-5.29-8-12.17-15.12-18.75-22.1q-5.53-5.9-11.22-11.64c-3.25-3.3-6.48-7.29-10.27-10s-7.7-2.36-11.62,0c-6.12,3.65-11.6,8.91-17.07,13.43q-18,14.88-34.95,30.93-19.29,18.24-37.15,37.9c-.52.57.33,1.42.85.85Z" transform="translate(0 -26.07)"/><path class="cls-2" d="M491.78,114.76l20,23.2c6.41,7.43,13,14.73,17.56,23.51.36.68,1.39.08,1-.61-4.28-8.29-10.41-15.23-16.46-22.26l-21.31-24.69c-.51-.59-1.35.27-.85.85Z" transform="translate(0 -26.07)"/><path class="cls-2" d="M408.26,101.08c-1.6,3.5,1.95,5.06,4.94,4,3.24-1.1,5.42-4.38,8.48-5.79,6.81-3.15,12.22,2.28,15.13,7.91,1.54,3,4,13.31,8.2,13.61,5.57.38,4.29-10,3.75-12.69-.15-.75-1.31-.43-1.15.32.52,2.61,1.4,13.79-4.23,9.45-1.7-1.3-2.72-5.08-3.57-7-1.87-4.22-3.75-8.48-7.51-11.36A10.58,10.58,0,0,0,424,97.23a12.54,12.54,0,0,0-4.73,2.22c-.65.45-1.26,1-1.88,1.43l-2.23,1.71q-2.58,2.44-5.84-.91c.32-.69-.72-1.3-1-.6Z" transform="translate(0 -26.07)"/><path class="cls-2" d="M451.38,105.22c-.11,2.82,2,5.34,5,5a4.55,4.55,0,0,0,3.13-1.8,12.22,12.22,0,0,0,1.31-2.54,5.07,5.07,0,0,1,.61-1.26c.87-1,3.42-1.29,4.64-.86.73.26,1-.9.32-1.15-2.08-.74-4.13-1.06-5.62.85-.81,1-1,2.36-1.73,3.47-2,3.29-6.59,2.32-6.43-1.7,0-.77-1.17-.77-1.2,0Z" transform="translate(0 -26.07)"/><path class="cls-2" d="M468.94,101c2.12,1.88,6,.66,6.38-2.23.11-.76-1-1.08-1.15-.32a2.76,2.76,0,0,1-4.38,1.7c-.58-.51-1.43.34-.85.85Z" transform="translate(0 -26.07)"/><path class="cls-2" d="M160.22,189.15a126,126,0,0,0-27.5-26.47,123.61,123.61,0,0,0-17.43-10.22c-5.07-2.43-10.82-5.38-16.53-5.61-5.3-.21-9.11,2.73-12.89,6.07-5.92,5.24-11.67,10.7-17.68,15.84s-13.47,10.09-21.89,7.7c-6.71-1.92-11.86-7.27-16.88-11.83C22,157.85,9.7,150.31.44,158.27c-.59.51.26,1.35.85.85C15.35,147,30.35,169.7,41.34,175.67c12.89,7,23.5-2.27,32.83-10.63l9.76-8.77c3.25-2.91,6.59-6.63,10.94-7.84,8.47-2.36,19.83,4.77,27,8.81a124.26,124.26,0,0,1,37.33,32.52c.46.6,1.5,0,1-.61Z" transform="translate(0 -26.07)"/><path class="cls-2" d="M581,118.81c-.44,44.61.27,89.26.72,133.87.09,9.15.17,18.31.32,27.46a.6.6,0,0,0,1.2,0c-.72-44.61-.92-89.25-1.06-133.87,0-9.15-.07-18.31,0-27.46a.6.6,0,0,0-1.2,0Z" transform="translate(0 -26.07)"/><path class="cls-2" d="M643.67,118.81c-.44,44.61.27,89.26.71,133.87.09,9.15.18,18.31.33,27.46a.6.6,0,0,0,1.2,0c-.73-44.61-.93-89.25-1.06-133.87,0-9.15-.07-18.31,0-27.46a.6.6,0,0,0-1.2,0Z" transform="translate(0 -26.07)"/><path class="cls-2" d="M581.51,118.87a.6.6,0,0,0,0-1.2.6.6,0,0,0,0,1.2Z" transform="translate(0 -26.07)"/><path class="cls-2" d="M643.67,117.74c-20.45-.33-41.54-2.12-61.73,1.83-.76.15-.44,1.31.32,1.16,20-3.92,41.11-2.12,61.41-1.79a.6.6,0,0,0,0-1.2Z" transform="translate(0 -26.07)"/><path class="cls-2" d="M588.35,128l.94,16.88c.11,1.82-.3,5.69,2.07,6.53,5.32,1.88,2.28-13.33,2.06-15.27-.08-.76-1.28-.77-1.2,0,.31,2.68.55,5.36.66,8.06,0,1,.56,3.21.08,4,.23,1.15-.15,1.17-1.16.06a1.76,1.76,0,0,1-1.26-2.53c-1.25-5.49-.67-12.13-1-17.77,0-.76-1.24-.77-1.2,0Z" transform="translate(0 -26.07)"/><path class="cls-2" d="M593.65,132.67c-.77-2.11.83-4.78-.78-6.67a2.28,2.28,0,0,0-3.67.11.6.6,0,0,0,1,.61c.47-.79,1.54-.28,1.89.31a3.81,3.81,0,0,1,.26,2.19,8.41,8.41,0,0,0,.11,3.77c.26.72,1.43.41,1.16-.32Z" transform="translate(0 -26.07)"/><path class="cls-2" d="M602.51,126.31A157,157,0,0,1,603.57,148a.6.6,0,0,0,1.2,0,157,157,0,0,0-1.06-21.68c-.09-.76-1.29-.77-1.2,0Z" transform="translate(0 -26.07)"/><path class="cls-2" d="M603.24,149.78c6.41,4.7,6-8.75,6-11.17,0-1.62,1.4-18.34-4.93-13.54-.61.46,0,1.5.61,1q3.43,1.49,3.13,4.38v7.23c0,1.5,0,3,0,4.51s.19,9.72-4.17,6.52c-.62-.45-1.22.59-.6,1Z" transform="translate(0 -26.07)"/><path class="cls-2" d="M615.47,125.83l.64,20.54a.6.6,0,0,0,1.2,0l-.64-20.54a.6.6,0,0,0-1.2,0Z" transform="translate(0 -26.07)"/><path class="cls-2" d="M616.64,149.67h4.86a.6.6,0,0,0,0-1.2h-4.86a.6.6,0,0,0,0,1.2Z" transform="translate(0 -26.07)"/><path class="cls-2" d="M622,149.06l.12-12.75c0-3.12.57-6.63-.09-9.68-.61-2.82-3.05-4.62-5.51-2.58-.6.5.26,1.34.85.85,4-3.28,3.6,6.9,3.59,7.77l0,5.46-.11,10.93a.6.6,0,0,0,1.2,0Z" transform="translate(0 -26.07)"/><path class="cls-2" d="M626.75,125.3a105,105,0,0,1-.69,21.49c-.1.75,1.05,1.08,1.16.32A106.75,106.75,0,0,0,628,125.3c-.05-.77-1.25-.77-1.2,0Z" transform="translate(0 -26.07)"/><path class="cls-2" d="M626.37,150.75a.6.6,0,0,0,0-1.2.6.6,0,0,0,0,1.2Z" transform="translate(0 -26.07)"/><path class="cls-2" d="M626.54,150.78l3.23-.55c.76-.13.44-1.29-.31-1.16l-3.24.56c-.76.13-.44,1.28.32,1.15Z" transform="translate(0 -26.07)"/><path class="cls-2" d="M631.77,148.59a.6.6,0,0,0,0-1.2.6.6,0,0,0,0,1.2Z" transform="translate(0 -26.07)"/><path class="cls-2" d="M631.77,148.05a.6.6,0,0,0,0-1.2.6.6,0,0,0,0,1.2Z" transform="translate(0 -26.07)"/><path class="cls-2" d="M631.77,146.43a.6.6,0,0,0,0-1.2.6.6,0,0,0,0,1.2Z" transform="translate(0 -26.07)"/><path class="cls-2" d="M2226.62,83.37q19.55.9,39.1.07c.38,0,.39-.61,0-.6q-19.54.84-39.1-.07c-.38,0-.38.58,0,.6Z" transform="translate(0 -26.07)"/><path class="cls-2" d="M2227.13,85.12a14,14,0,0,1,.84,7.52c-.06.38.52.54.58.16a14.48,14.48,0,0,0-.85-7.84c-.14-.36-.72-.2-.57.16Z" transform="translate(0 -26.07)"/><path class="cls-2" d="M2265.4,85.81v6.13a.3.3,0,0,0,.6,0V85.81a.3.3,0,0,0-.6,0Z" transform="translate(0 -26.07)"/><path class="cls-2" d="M2264.94,93h10.72a.3.3,0,0,0,0-.6h-10.72a.3.3,0,0,0,0,.6Z" transform="translate(0 -26.07)"/><path class="cls-2" d="M2276.25,93.47c-.16,57.4,1.35,114.67,2.69,172,.21,9.16.53,18.32.52,27.48a.3.3,0,0,0,.6,0c.06-47.07-2.4-94.17-3.25-141.23-.35-19.43,0-38.87,0-58.3a.3.3,0,0,0-.6,0Z" transform="translate(0 -26.07)"/><path class="cls-2" d="M2221.28,93h6.12a.3.3,0,0,0,0-.6h-6.12a.3.3,0,0,0,0,.6Z" transform="translate(0 -26.07)"/><path class="cls-2" d="M2220.72,92.72c-.77,25-2.6,50-3.36,75a.3.3,0,0,0,.6,0c.76-25,2.59-50,3.36-75a.3.3,0,0,0-.6,0Z" transform="translate(0 -26.07)"/><path class="cls-2" d="M2217.36,167.76c1,35.44,2.1,70.88,3.15,106.32q.27,9.27.54,18.55a.3.3,0,0,0,.6,0c-1-35.44-2.1-70.87-3.15-106.31q-.27-9.28-.54-18.56a.3.3,0,0,0-.6,0Z" transform="translate(0 -26.07)"/><path class="cls-2" d="M2275.93,73.72l.28,21.45a.3.3,0,0,0,.6,0l-.28-21.45a.3.3,0,0,0-.6,0Z" transform="translate(0 -26.07)"/><path class="cls-2" d="M2276.12,74.59q32.8-1.89,65.67-1.68a.3.3,0,0,0,0-.6q-32.86-.21-65.67,1.68c-.39,0-.39.62,0,.6Z" transform="translate(0 -26.07)"/><path class="cls-2" d="M2341.56,72.7c-.85,24.86.78,50,1.41,74.85.93,36.9,1.93,73.8,3.3,110.69.38,10.05.25,20.36,1.51,30.35,0,.38.65.38.6,0-1-8.28-1-16.8-1.31-25.12q-1-24.83-1.67-49.65-1.67-55.35-2.86-110.71c-.21-10.1-.72-20.3-.38-30.41,0-.38-.58-.38-.6,0Z" transform="translate(0 -26.07)"/><path class="cls-2" d="M2342.9,101.76q15.95-13.89,32.84-26.63c.3-.23,0-.75-.3-.51q-17,12.76-33,26.71c-.29.26.14.68.43.43Z" transform="translate(0 -26.07)"/><path class="cls-2" d="M2376.11,75.14q10.09,9.72,20.67,18.9c3.28,2.84,6.85,5.45,10,8.42,1,1,1.06.68,1.37,1.62,1.08,3.28.14,8.61.19,12l.84,51.62c.4,24.44.38,48.92,1.44,73.35l2.18,50.08c0,.39.62.39.6,0-1-22.66-2.34-45.34-2.71-68L2409,119.05l-.16-9.7c0-1.59.32-3.73-.08-5.27-.79-3-5.67-5.44-8-7.42q-12.47-10.57-24.21-22c-.28-.26-.71.16-.43.43Z" transform="translate(0 -26.07)"/><path class="cls-2" d="M2520.15,33.78c-30.52,3.7-56.6,24.67-66,54.08-5.77,18-4.48,37.78-3.84,56.44q1.93,56.91,3.67,113.82.54,17.26,1.09,34.51a.3.3,0,0,0,.6,0q-1.3-41.33-2.62-82.65-.9-27.79-1.81-55.6c-.57-17.21-1.38-34.32.46-51.51,3.83-35.87,32.88-64.17,68.47-68.49.38,0,.39-.64,0-.6Z" transform="translate(0 -26.07)"/><path class="cls-2" d="M2519.13,33.89c-.08-1.46-.36-3.95.29-5.26,1.24-2.46,4.25-1.76,6.33-1.72l10.08.18a.3.3,0,0,0,0-.6l-8.82-.16c-1.92,0-4.46-.57-6.29,0-2.79.87-2.32,5.27-2.19,7.55,0,.39.62.39.6,0Z" transform="translate(0 -26.07)"/><path class="cls-2" d="M2535.56,27.77c.93,41.19,1.93,82.38,2.48,123.57l1.48,111,.38,28.78a.3.3,0,0,0,.6,0l-1-76.3-1.26-94.59c-.41-30.84-1.36-61.67-2.06-92.5,0-.38-.61-.38-.6,0Z" transform="translate(0 -26.07)"/><path class="cls-2" d="M2225.05,96.23q.33,12.84-.1,25.67c0,.38.59.38.6,0q.43-12.84.1-25.67a.3.3,0,0,0-.6,0Z" transform="translate(0 -26.07)"/><path class="cls-2" d="M2231.32,96.43q.75,12.34.57,24.71a.3.3,0,0,0,.6,0q.18-12.37-.57-24.71c0-.38-.62-.39-.6,0Z" transform="translate(0 -26.07)"/><path class="cls-2" d="M2238.77,95.85l.05,17.05a.3.3,0,0,0,.6,0l-.05-17.05a.3.3,0,0,0-.6,0Z" transform="translate(0 -26.07)"/><path class="cls-2" d="M2239,119v3.26a.3.3,0,0,0,.6,0V119a.3.3,0,0,0-.6,0Z" transform="translate(0 -26.07)"/><path class="cls-2" d="M2245.57,95.84c-1.08,8.88.39,17.77-.24,26.67,0,.39.57.39.6,0,.63-8.9-.84-17.79.24-26.67,0-.39-.55-.38-.6,0Z" transform="translate(0 -26.07)"/><path class="cls-2" d="M2252.12,95.47a146.62,146.62,0,0,1,.48,25.66c0,.38.58.38.6,0a146.62,146.62,0,0,0-.48-25.66c0-.38-.64-.39-.6,0Z" transform="translate(0 -26.07)"/><path class="cls-2" d="M2259.59,95.27q0,13-.7,26.05c0,.39.58.39.6,0q.68-13,.7-26a.3.3,0,0,0-.6,0Z" transform="translate(0 -26.07)"/><path class="cls-2" d="M2266.7,95.65l1.12,24.72c0,.38.62.38.6,0l-1.12-24.72c0-.39-.62-.39-.6,0Z" transform="translate(0 -26.07)"/><path class="cls-2" d="M2275.92,79.91c10.84-1.54,21.79-1.26,32.7-1.23l32.94.09a.3.3,0,0,0,0-.6l-34.94-.1c-10.31,0-20.62-.19-30.85,1.26-.39,0-.22.63.15.58Z" transform="translate(0 -26.07)"/><path class="cls-2" d="M2287,73.24c0-1.36-.34-3.3.65-4.23s3.35-.65,4.75-.72a18.83,18.83,0,0,1,4.16-.21c.67-.3,1-.13,1,.52a1.83,1.83,0,0,1,.09,1.34,18.29,18.29,0,0,1-.44,3c-.06.37.52.54.58.16.21-1.19,1.25-4.5.4-5.45-.24-.27-.5-.18-.79-.24a22,22,0,0,0-4.57.23c-1.39.07-2.78.12-4.16.21a3,3,0,0,0-1.6.31c-1.24.91-.64,3.76-.66,5a.3.3,0,0,0,.6,0Z" transform="translate(0 -26.07)"/><path class="cls-2" d="M2326.09,72.59a10.4,10.4,0,0,0,.28-2.72c-.08-2,1.63-2,3.2-2.07a14,14,0,0,1,3.54,0,1,1,0,0,1,1.35.87,1.5,1.5,0,0,1,.68,1.54,9.64,9.64,0,0,1,0,2.08c0,.38.59.38.6,0,.05-1.19.45-3.59-.46-4.57s-3.46-.55-4.63-.53-3.56-.37-4.51.57a1.54,1.54,0,0,0-.39,1c-.18,1.25.08,2.4-.22,3.7-.08.38.5.54.58.16Z" transform="translate(0 -26.07)"/><path class="cls-2" d="M2286.77,88.8q22.32,0,44.64-.84a.3.3,0,0,0,0-.6q-22.3.8-44.64.84a.3.3,0,0,0,0,.6Z" transform="translate(0 -26.07)"/><path class="cls-2" d="M2286.14,88.76c-.21,23.66.83,47.38,1.4,71q1.2,50.46,2.65,100.9c.29,9.79.46,19.6,1,29.38,0,.39.62.39.6,0-1.36-23.62-1.55-47.36-2.18-71q-1.34-50.46-2.43-100.91c-.21-9.79-.55-19.6-.46-29.39a.3.3,0,0,0-.6,0Z" transform="translate(0 -26.07)"/><path class="cls-2" d="M2331.64,88c1.69,23.1,1.65,46.43,2.36,69.57q1.59,52,3.08,104c.26,9.27.55,18.53.78,27.79,0,.38.61.38.6,0-.59-23.2-1.32-46.4-2-69.6q-1.53-52-3.18-104c-.3-9.24-.37-18.55-1-27.77,0-.38-.63-.39-.6,0Z" transform="translate(0 -26.07)"/><path class="cls-2" d="M2525.51,42.27c-17.67,3.38-34.43,10.57-47.72,22.9-8.51,7.89-16.14,18.31-17.37,30.14-2.16,20.84-.82,42.33-.22,63.22.84,29.08,1.5,58.16,2.21,87.24l1.09,44.66c0,.38.61.39.6,0l-2.34-96.08c-.7-28.6-2.12-57.27-1.43-85.87.12-4.69.23-9.41.79-14.07.89-7.45,4.72-14.34,9.22-20.22,13.38-17.44,34.14-27.28,55.33-31.35.37-.07.21-.65-.16-.57Z" transform="translate(0 -26.07)"/><path class="cls-2" d="M2524.67,42.74c1.38,34.1.4,68.32.48,102.45.08,30.14.25,60.23,1.81,90.33.91,17.56,1.47,35.13,1.92,52.7a.3.3,0,0,0,.6,0c-.73-28.67-2.79-57.3-3.28-86-.54-31.3-.51-62.62-.46-93.92,0-21.88.42-43.71-.47-65.59,0-.38-.61-.39-.6,0Z" transform="translate(0 -26.07)"/><path class="cls-2" d="M2485.43,59.83q19.86.83,39.73.12a.3.3,0,0,0,0-.6q-19.86.69-39.73-.12c-.38,0-.38.59,0,.6Z" transform="translate(0 -26.07)"/><path class="cls-2" d="M2469.47,76.12q28-.51,55.89,1.49c.38,0,.38-.57,0-.6q-27.92-2-55.89-1.49a.3.3,0,0,0,0,.6Z" transform="translate(0 -26.07)"/><path class="cls-2" d="M2470.8,92.92a209.19,209.19,0,0,0,54.31,0c.37,0,.38-.65,0-.6a209.19,209.19,0,0,1-54.31,0c-.38,0-.38.55,0,.6Z" transform="translate(0 -26.07)"/><path class="cls-2" d="M2516.31,45.13c-2.67,8.6-5.9,17.25-7.64,26.09-1.65,8.35-2.1,17-3,25.44,0,.39.57.38.6,0,.91-9,1.32-18.28,3.32-27.12,1.85-8.2,4.76-16.22,7.25-24.25.12-.37-.46-.53-.58-.16Z" transform="translate(0 -26.07)"/><path class="cls-2" d="M2504.21,48.37c-14.81,13.92-23.39,32.64-27.47,52.34-.08.37.5.53.57.15,4.07-19.6,12.58-38.21,27.33-52.07.28-.27-.15-.69-.43-.42Z" transform="translate(0 -26.07)"/><path class="cls-2" d="M1939.71,101.09c.32,51.84.87,103.69,1.29,155.53q.13,16.17.25,32.34a.3.3,0,0,0,.6,0c-.32-51.85-.87-103.69-1.3-155.53q-.13-16.17-.24-32.34a.3.3,0,0,0-.6,0Z" transform="translate(0 -26.07)"/><path class="cls-2" d="M1997.74,100.49c1.35,16.71,2.1,33.47,2.36,50.24a.3.3,0,0,0,.6,0c-.26-16.77-1-33.53-2.36-50.24,0-.39-.63-.39-.6,0Z" transform="translate(0 -26.07)"/><path class="cls-2" d="M1939.6,101.55q29.24-1.36,58.53-.62a.3.3,0,0,0,0-.6q-29.27-.72-58.53.62c-.38,0-.39.62,0,.6Z" transform="translate(0 -26.07)"/><path class="cls-2" d="M2006.66,114.35l10.74-.73c.38,0,.38-.63,0-.6l-10.74.73c-.38,0-.38.62,0,.6Z" transform="translate(0 -26.07)"/><path class="cls-2" d="M2018.17,113.13a35.07,35.07,0,0,0-.57-6.63c-.07-.38-.65-.22-.58.16a34.2,34.2,0,0,1,.55,6.47.3.3,0,0,0,.6,0Z" transform="translate(0 -26.07)"/><path class="cls-2" d="M2017.13,107.12a290.29,290.29,0,0,1,40.86-.91c.39,0,.39-.58,0-.6a290.29,290.29,0,0,0-40.86.91c-.38,0-.39.64,0,.6Z" transform="translate(0 -26.07)"/><path class="cls-2" d="M2059,112.14l-1.25-7.15c-.07-.38-.65-.22-.58.15l1.25,7.16c.07.38.65.21.58-.16Z" transform="translate(0 -26.07)"/><path class="cls-2" d="M2058.88,112.56l8.95-.21a.3.3,0,0,0,0-.6l-8.95.21a.3.3,0,0,0,0,.6Z" transform="translate(0 -26.07)"/><path class="cls-2" d="M2067.21,113.13c2.09,20.55,1.78,41.59,2.43,62.22q1.43,45.32,2.5,90.64c.19,8.45.62,17,.38,25.42,0,.38.59.38.6,0,.59-20.69-.74-41.58-1.31-62.26-.82-30.22-1.7-60.43-2.82-90.64-.31-8.43-.33-17-1.18-25.38,0-.38-.64-.38-.6,0Z" transform="translate(0 -26.07)"/><path class="cls-2" d="M2000.08,150c-.23,39.36.34,78.74.69,118.09.06,7.12.1,14.24.24,21.36a.3.3,0,0,0,.6,0c-.76-39.36-.71-78.76-.88-118.12,0-7.11-.09-14.22,0-21.33a.3.3,0,0,0-.6,0Z" transform="translate(0 -26.07)"/><path class="cls-2" d="M2006.64,113.78c2.93,23.59,1.85,48.21,2.27,72q.71,39,1.4,78,.26,14.06.49,28.11c0,.38.61.38.6,0-.72-45.17-1.62-90.34-2.41-135.5-.25-14.2,0-28.51-1.75-42.62,0-.38-.65-.39-.6,0Z" transform="translate(0 -26.07)"/><path class="cls-2" d="M1945.35,110c7.44.31,14.87-1.26,22.33-1.27,8,0,16,.58,24,.59a.3.3,0,0,0,0-.6c-8,0-16-.59-24-.59-7.46,0-14.89,1.58-22.33,1.27-.39,0-.39.58,0,.6Z" transform="translate(0 -26.07)"/><path class="cls-2" d="M1945.19,109.62q.11,3.59-.11,7.17c0,.39.57.38.6,0q.21-3.58.11-7.17a.3.3,0,0,0-.6,0Z" transform="translate(0 -26.07)"/><path class="cls-2" d="M1945.42,116.81c6.88,1.17,14.48-.68,21.48-.68,8.5,0,17,.36,25.48-.21.39,0,.39-.63,0-.6-7.84.53-15.67.26-23.52.21-3.92,0-7.84,0-11.75.28s-7.68,1.07-11.53.42c-.38-.07-.54.51-.16.58Z" transform="translate(0 -26.07)"/><path class="cls-2" d="M1991.92,108.9l.43,6.17c0,.38.63.39.6,0l-.43-6.17c0-.38-.63-.38-.6,0Z" transform="translate(0 -26.07)"/><path class="cls-2" d="M1945.67,125.87c8,.68,15.81-.72,23.77-1.07,7.81-.34,15.7.27,23.51.52a.3.3,0,0,0,0-.6c-7.8-.25-15.7-.87-23.51-.52-8,.36-15.78,1.75-23.77,1.07-.38,0-.38.57,0,.6Z" transform="translate(0 -26.07)"/><path class="cls-2" d="M1945.23,125.82q0,3.87,0,7.74a.3.3,0,0,0,.6,0q.06-3.87,0-7.74a.3.3,0,0,0-.6,0Z" transform="translate(0 -26.07)"/><path class="cls-2" d="M1992.63,125a28.69,28.69,0,0,1-.14,7.23c-.06.38.52.54.58.16a29.48,29.48,0,0,0,.16-7.39c0-.38-.64-.38-.6,0Z" transform="translate(0 -26.07)"/><path class="cls-2" d="M1945.65,134.1c8.46-1.94,16.84-.61,25.39-.28a109.22,109.22,0,0,0,22-1.44c.38-.06.22-.64-.16-.58a112.68,112.68,0,0,1-25.68,1.21c-7.33-.48-14.52-1.14-21.75.51-.38.08-.22.66.16.58Z" transform="translate(0 -26.07)"/><path class="cls-2" d="M1945.92,142.77c15.67-.25,31.19-1.46,46.89-.9.39,0,.38-.59,0-.6-15.7-.56-31.22.65-46.89.9-.38,0-.38.61,0,.6Z" transform="translate(0 -26.07)"/><path class="cls-2" d="M1945.85,142.59q.14,3.94.05,7.89a.3.3,0,0,0,.6,0q.09-3.94,0-7.89c0-.38-.61-.38-.6,0Z" transform="translate(0 -26.07)"/><path class="cls-2" d="M1992.67,141.53a28.15,28.15,0,0,1,.36,8.09c0,.38.57.38.6,0a28.89,28.89,0,0,0-.38-8.25c-.08-.38-.66-.22-.58.16Z" transform="translate(0 -26.07)"/><path class="cls-2" d="M1946.51,151a436.71,436.71,0,0,1,46.88-1.62.3.3,0,0,0,0-.6,436.71,436.71,0,0,0-46.88,1.62c-.38,0-.38.63,0,.6Z" transform="translate(0 -26.07)"/><path class="cls-2" d="M1752.66,112.39a6.31,6.31,0,0,0,3.47,7.21c3.12,1.45,5.83-.3,8-2.54,3.63-3.76,6.26-8.74,12.25-3.53.77.67,1.09,1.86,2.25,2.07a2.12,2.12,0,0,0,1.93-.66c.29-.24.45-.85.62-1q.57-2.58,3.78-.76,3.06-1,4.35,1.44c2.48,1.93,4.5,5.65,6.48,8.13s3.91,5.29,6.11,7.64c2,2.19,4.71,3.8,7.5,1.77,2.5-1.83,3-5.23,3.08-8.09,0-4-.74-9.88,5-8.78,1.19.24,1.49.83,2.79.55.38-.08.22-.66-.16-.58-2.25.48-3.89-2.56-6.13-1.59s-2.17,5.38-2.16,7.34c0,2.55.8,7.09-1.31,9l-7.28.88a15.62,15.62,0,0,1-1.28-1.42,29.38,29.38,0,0,1-2.76-3.45c-3.53-4.43-6.83-9.72-11-13.58-1.44-1.34-3.57-2.6-5.57-1.52-1,.54-1,1.63-1.74,2.21-3.06,2.35-3.7-.33-5.4-1.73s-3.82-1.3-5.84-.37a12.51,12.51,0,0,0-4.06,3.39,23,23,0,0,1-1.88,2.18c-3.19,2.83-12.06,4.25-10.46-4.08.08-.38-.5-.54-.58-.16Z" transform="translate(0 -26.07)"/><path class="cls-2" d="M1493.7,83.11c-6.8-5.64-13.47-11.5-20.46-16.92-5.16-4-11.38-8.16-18.22-7.85-6,.28-10.59,4.24-14.33,8.59-5.38,6.25-10.31,12.95-15.31,19.51q-16.83,22.07-32.44,45c-3.32,4.89-6.26,10.49-10.16,14.92-1.67,1.89-3.56,3.63-5.32,5.44-12.53,12.89-25.73,25.72-36.62,40.06-3.84,5.07-7,10.41-11.19,15.31-6.84,8-14,15.77-21.19,23.53-12.33,13.39-23.89,27.39-36.67,40.37-.27.28.15.7.42.43C1282.62,261,1292,249.61,1302,238.68c6.91-7.56,13.91-15.05,20.75-22.67,5.16-5.77,10.88-11.57,15-18.16,8.5-13.59,20.48-25.08,31.52-36.63,4.54-4.75,9.33-9.32,13.75-14.18,2.62-2.9,4.53-6.46,6.71-9.71q7.45-11.13,15.21-22.06c11.53-16.25,23.2-32.8,36.19-47.92,2.91-3.38,6.34-6.71,10.78-7.92,5.95-1.61,11.91,1,16.81,4.21,8.73,5.71,16.56,13.24,24.58,19.89.29.25.72-.17.42-.42Z" transform="translate(0 -26.07)"/><path class="cls-2" d="M1422.78,92.44l-4.62,14.23a.3.3,0,0,0,.29.38c5.54-.42,8.55-4.55,11.61-8.74,1.45-2,3.5-5.35,6-6.24,5.39-1.94,5.83,3,6.15,6.13.41,4,.25,8.11.86,12.12.51,3.38,1.76,10,6.35,10.15,4.28.16,6.41-5.84,7.36-9.08a30.57,30.57,0,0,0,1-10,30.33,30.33,0,0,1-.07-3.93q-.33-3.45,3.38-4.11c.4.5.8,1,1.19,1.52.84.46.92,1.54,2.07,1.5,1.44,0,1.15-1.38,1.92-2,6.62-5.77,8.6,7.68,14.52,3.85,3.91-2.54.68-9.16,5.12-11.43.35-.17,0-.69-.3-.52-2.23,1.15-2.62,3.27-3,5.6-.58,3.44-.74,8.55-7.22,4.53-1.51-.93-2.3-2.76-3.91-3.66a4.3,4.3,0,0,0-5,0c-.44.26-.23.35-.44.52-1.32,1.08-1.6,2.23-3.35,1.23-1.08-.62-1.47-1.94-2.74-2.5a.33.33,0,0,0-.37,0c-1.88,1.67-2.4,3.66-2.53,6.13-.25,5.1.42,9.7-1.42,14.72-.47,1.27-1.59,4.64-2.91,5.34l-6.84-.75-1.07-2.21a32.11,32.11,0,0,1-1.59-9.24c-.25-3.82.23-8.35-1.17-12-1.92-5-6.23-3.16-9.23-.13s-4.79,7.06-8,9.85c-.94.82-4.29,2.94-5.49,1.31-.34-.46,1.27-3.93,1.44-4.45l2.6-8c.12-.36-.46-.52-.58-.15Z" transform="translate(0 -26.07)"/><path class="cls-2" d="M944.7,127.76q-.81,65-1.76,130-.2,14.63-.38,29.24a.3.3,0,0,0,.6,0q.8-65,1.75-130,.2-14.62.39-29.25a.3.3,0,0,0-.6,0Z" transform="translate(0 -26.07)"/><path class="cls-2" d="M945.52,127.71c4.07.37,9,5.62,12.55,7.76,4.5,2.72,7.95,6.29,11.4,10.2.26.29.68-.13.43-.42a54.22,54.22,0,0,0-13-11.17c-3.71-2.25-6.83-6.56-11.37-7-.38,0-.38.57,0,.6Z" transform="translate(0 -26.07)"/><path class="cls-2" d="M969.6,122.05v23.62a.3.3,0,0,0,.6,0V122.05a.3.3,0,0,0-.6,0Z" transform="translate(0 -26.07)"/><path class="cls-2" d="M970.26,123.93c16.2.77,27.88,12.36,37.79,24,.25.29.68-.13.43-.43-10-11.79-21.84-23.4-38.22-24.18a.3.3,0,0,0,0,.6Z" transform="translate(0 -26.07)"/><path class="cls-2" d="M1008.23,122.42a145,145,0,0,1-.49,24.39c0,.39.56.39.6,0a145,145,0,0,0,.49-24.39c0-.39-.62-.39-.6,0Z" transform="translate(0 -26.07)"/><path class="cls-2" d="M1008.39,122c7,1.66,14.14,3.06,19.86,7.75,9.8,8.05,12.39,21.93,13.61,33.84,0,.38.64.39.6,0-1.21-11.84-3.73-25.47-13.17-33.74-5.89-5.15-13.35-6.67-20.74-8.43-.38-.09-.54.49-.16.58Z" transform="translate(0 -26.07)"/><path class="cls-2" d="M1041.9,164c2.42,34,3,68.21,4.29,102.28q.36,9.88.69,19.78c0,.39.62.39.6,0q-1.67-51.15-4-102.3c-.3-6.59-.56-13.18-1-19.76,0-.38-.63-.39-.6,0Z" transform="translate(0 -26.07)"/><path class="cls-2" d="M950.19,141.42a44.62,44.62,0,0,1,.16,8.57c0,.38.57.38.6,0a44.62,44.62,0,0,0-.16-8.57c0-.38-.64-.38-.6,0Z" transform="translate(0 -26.07)"/><path class="cls-2" d="M950.81,141.7a27.75,27.75,0,0,1,3.87,0,1.21,1.21,0,0,1,1.53.75A1.27,1.27,0,0,1,957,144a8.89,8.89,0,0,1,0,1.93,15.44,15.44,0,0,1-.25,4.08c-.82,2.67-3.88,2-5.65.88-.33-.2-.63.31-.3.52,1.45.89,3.56,1.54,5.21.76s1.47-3.05,1.54-4.69c.08-1.46.72-4.84-.6-6a2.42,2.42,0,0,0-1.51-.4c-1.53-.1-3.1,0-4.64,0a.3.3,0,0,0,0,.6Z" transform="translate(0 -26.07)"/><path class="cls-2" d="M951.28,161.06l0,8.68c0,1-.34,2.63.31,3.53,1.18,1.63,6.72,2,8,.28.82-1.16.35-3.2.26-4.46-.18-2.63-.36-5.29-.75-7.9-.51-3.46-4.39-1.46-6.77-.62-.36.13-.21.71.16.58,1-.36,3-1.33,4.08-1.12,2.48.5,2.16,3.07,2.33,4.84.19,2,1.07,5.18.49,7.09-.69,2.28-4.52,2.6-6.23,1.48-1.38-.9-1.24-2.28-1.24-3.7l0-8.68a.3.3,0,0,0-.6,0Z" transform="translate(0 -26.07)"/><path class="cls-2" d="M952.52,180.29a31.12,31.12,0,0,1,.18,9.68c-.13,1-.59,2,.25,2.76,1.1,1,3.81,1,5.23,1.11,1.26.08,2.62.43,3.28-.79s-.26-4.38-.42-5.69c-.24-1.89-.15-4.79-1.06-6.45-1.31-2.36-5.88-1.27-8-.79-.37.09-.21.67.16.58a14.26,14.26,0,0,1,4.41-.48c2.68.26,3.06,1.67,3.41,3.84.25,1.58.47,3.16.65,4.75.19,1.78,1.06,3.94-1.42,4.47-1,.21-4.25,0-4.91-.63-1.25-1.16-.88-3.09-.74-4.57a29.44,29.44,0,0,0-.44-8c-.07-.38-.65-.22-.58.16Z" transform="translate(0 -26.07)"/><path class="cls-2" d="M976.93,140.16l0,7.22c0,.89-.51,3.56.2,4.25s2.84.38,3.61.42c1.07,0,2.65.53,3.38-.52s.17-2.93.13-4a48.27,48.27,0,0,0-.22-6.26c-.51-3.05-3.94-2.11-6.36-1.68-.38.06-.22.64.15.58.94-.17,3.25-.73,4.26-.32,1.81.73,1.39,2.63,1.45,4.1.06,1.77,1.11,6.64-.86,7.56a11.12,11.12,0,0,1-3.85-.19c-1.78-.8-1.28-2.46-1.29-4l0-7.22a.3.3,0,0,0-.6,0Z" transform="translate(0 -26.07)"/><path class="cls-2" d="M977.18,159.55l-.09,7.92c0,1.08-.53,3.53.23,4.49,1,1.25,6.79,2,7.8.57.86-1.24.16-3.75.08-5.16-.12-2.53-.11-5.11-.38-7.63-.34-3.05-3.79-2.6-6.12-1.71-.35.14-.2.72.16.58,2.31-.89,4.68-1,5.41,2.22a18.72,18.72,0,0,1,.17,3.27l.19,3.82c0,.84.49,2.57.17,3.27-.76,1.63-4,1.7-5.36,1-2.19-1.16-1.77-2.88-1.75-4.68l.09-7.92a.3.3,0,0,0-.6,0Z" transform="translate(0 -26.07)"/><path class="cls-2" d="M977.51,179.19l-.12,9.16c0,1.24-.44,3.09.69,4s3.69.52,5,.52c1.11,0,2.89.35,3.62-.7.91-1.33.23-4.24.19-5.76-.06-2.16.22-4.73-.48-6.81-1.14-3.38-4.79-2.56-7.36-1.53-.35.14-.2.73.16.58,2.09-.84,5.42-2.3,6.75,1.52a16.75,16.75,0,0,1,.26,4c0,1.33.08,2.66.11,4,0,2.11.72,3.4-2.1,4.15a9.32,9.32,0,0,1-3.45,0c-1.6.22-2.54-.68-2.81-2.72l0-2.29.1-8a.3.3,0,0,0-.6,0Z" transform="translate(0 -26.07)"/><path class="cls-2" d="M1055.33,111.31l5,.42c.85.06,1.91.17,2.4-.68,1.08-1.87-2.36-1.85-3.29-1.91s-5-.71-5,1c0,2,3.07,1.85,4.25,1.5a.3.3,0,0,0-.16-.58c-.74.22-2,.51-2.65-.07-.81-.19-.7-.62.32-1.28l.82,0a28.09,28.09,0,0,1,3.55.13,9.39,9.39,0,0,1,1.17.16c.59.05.4.45-.57,1.19-.38.17-1.24-.09-1.68-.13l-4.13-.34c-.39,0-.39.56,0,.6Z" transform="translate(0 -26.07)"/><path class="cls-2" d="M1054.11,111.2c-1.38,17.44-1.85,34.93-3,52.38,0,.39.57.39.6,0,1.17-17.45,1.64-34.94,3-52.38,0-.39-.57-.38-.6,0Z" transform="translate(0 -26.07)"/><path class="cls-2" d="M1051.09,163.58c-2.2,34-1.52,68.35-2.34,102.43-.15,6.42-.23,12.86-.64,19.28,0,.38.57.38.6,0,2.2-34,1.52-68.35,2.34-102.43.15-6.42.22-12.86.64-19.28,0-.38-.58-.38-.6,0Z" transform="translate(0 -26.07)"/><path class="cls-2" d="M1062.25,112.43l4.13,37.55c0,.38.64.38.6,0l-4.13-37.55c0-.38-.64-.38-.6,0Z" transform="translate(0 -26.07)"/><path class="cls-2" d="M1066.38,150c4,37.47,6.95,75.09,9.85,112.65.57,7.38,1.19,14.77,1.51,22.17,0,.38.62.38.6,0-1.64-37.6-5.82-75.23-9.24-112.7-.68-7.38-1.34-14.76-2.12-22.12,0-.38-.64-.39-.6,0Z" transform="translate(0 -26.07)"/><path class="cls-2" d="M1494.58,83.87c12.11,7.4,24.07,15,35.8,23,13.33,9.06,27.45,16.91,40.82,25.91,4,2.72,7.43,6.06,11.58,8.65,3.13,2,6.35,3.76,9.58,5.53s4.49,4,6.93,6.76a68.64,68.64,0,0,0,11.42,10.18c4.88,3.59,10.13,7.67,15.76,10,10.67,4.42,21.33-3.75,30.56-8.22,16.27-7.9,33.2-13.06,47.3-25,2.66-2.25,5.31-4.56,7.88-6.91,4.1-3.74,7.71-8.6,12.08-11.92,5.78-4.39,12.32-7.87,18.24-12.09,10.22-7.26,18.51-16.78,30.57-21.19,15-5.51,28.68-1,40.18,9.4,10.55,9.53,18.66,21.42,26.69,33.05,8.17,11.85,16.58,23.53,25.34,35q14.42,18.78,29.93,36.65a129.27,129.27,0,0,0,15.85,15.54,75,75,0,0,0,14.79,9.7c3.82,1.83,8.53,4.26,12.84,4.61,1.24.1,3.68-.07,2.6-2a.3.3,0,0,0-.52.3c1,1.76-2.84.93-3.37.81a54.47,54.47,0,0,1-15.13-6.32c-8.68-5-16.33-11.88-23.14-19.17-15.73-16.85-29.92-35.49-43.54-54-14.22-19.38-26.48-42.71-45.71-57.72-8.57-6.69-18.53-10.29-29.43-8.41-11.89,2.05-21,9.17-30,16.74a210.46,210.46,0,0,1-21.23,15.23,62.6,62.6,0,0,0-5.86,3.81c-4.13,3.45-7.6,8-11.6,11.63-6.47,5.89-13.17,11.56-20.72,16-8.76,5.17-18.34,9.08-27.7,13-8,3.36-15.48,8-23.66,10.87-8.47,3-14.42-.24-21.37-4.84A106.74,106.74,0,0,1,1603,156.75c-2.73-2.63-4.77-6.49-7.57-8.82-2.12-1.76-5.39-2.93-7.79-4.3a124.06,124.06,0,0,1-12.84-9.07c-13.25-10-28.32-17.77-42.18-26.92-12.5-8.24-25-16.48-37.75-24.29a.3.3,0,0,0-.31.52Z" transform="translate(0 -26.07)"/></g></svg>