<svg id="Capa_1" data-name="Capa 1" xmlns="http://www.w3.org/2000/svg" width="126.15" height="47.77" viewBox="0 0 126.15 47.77"><defs><style>.cls-1{fill:#3c4251;}.cls-1,.cls-2,.cls-3,.cls-4{fill-rule:evenodd;}.cls-2{fill:#00da9e;}.cls-3{fill:#3dc9ff;}.cls-4{fill:#eb3f93;}</style></defs><title>logo</title><g id="logo"><path id="raise" class="cls-1" d="M59,19.92h5.3v2.43a6,6,0,0,1,2.08-2,5.66,5.66,0,0,1,2.87-.71h.45a3.07,3.07,0,0,1,.57.06v5A5,5,0,0,0,68,24.14a3.45,3.45,0,0,0-2.77,1.08,4.78,4.78,0,0,0-.92,3.16v6.36H59Zm17.25,7.37a3.34,3.34,0,0,0,.26,1.34,3.46,3.46,0,0,0,.72,1.08,3.1,3.1,0,0,0,1.08.72,3.4,3.4,0,0,0,1.36.26A3.32,3.32,0,0,0,81,30.43a3.24,3.24,0,0,0,1.09-.72,3.83,3.83,0,0,0,.73-1.07,3.13,3.13,0,0,0,.28-1.3A3.24,3.24,0,0,0,82.82,26,3.74,3.74,0,0,0,82.09,25,3.42,3.42,0,0,0,81,24.22,3.5,3.5,0,0,0,79.67,24a3.58,3.58,0,0,0-1.36.26,3.27,3.27,0,0,0-1.08.73A3.45,3.45,0,0,0,76.51,26,3.07,3.07,0,0,0,76.25,27.29Zm6.67-7.37h5.33V34.74H82.92V33.09a5.57,5.57,0,0,1-4.59,2.11,7.64,7.64,0,0,1-3-.59A7.32,7.32,0,0,1,72.91,33a7.74,7.74,0,0,1-1.6-2.52,8.47,8.47,0,0,1-.57-3.14,8.26,8.26,0,0,1,.56-3,7.7,7.7,0,0,1,1.55-2.5,7.22,7.22,0,0,1,2.37-1.69,7.39,7.39,0,0,1,3-.62,6.15,6.15,0,0,1,4.65,1.93Zm12.74,0V34.74h-5.3V19.92ZM90,14.23a3,3,0,0,1,1.83-2.71A2.83,2.83,0,0,1,93,11.29a2.78,2.78,0,0,1,1.15.23A2.91,2.91,0,0,1,96,14.23a2.87,2.87,0,0,1-.23,1.14,2.93,2.93,0,0,1-.65.94,3.12,3.12,0,0,1-.95.64,3,3,0,0,1-1.15.23A3,3,0,0,1,91.84,17a3.12,3.12,0,0,1-1-.64,2.93,2.93,0,0,1-.65-.94A2.87,2.87,0,0,1,90,14.23Zm17.74,9.5a6.24,6.24,0,0,0-2.87-.75,2.19,2.19,0,0,0-1.18.29.88.88,0,0,0-.45.78,1,1,0,0,0,.07.42.67.67,0,0,0,.32.3,2.52,2.52,0,0,0,.73.26c.32.08.75.18,1.28.29a6.11,6.11,0,0,1,3.27,1.55A3.88,3.88,0,0,1,110,29.71a5.1,5.1,0,0,1-.53,2.34A5,5,0,0,1,108,33.8a7.11,7.11,0,0,1-2.26,1.1,10.17,10.17,0,0,1-2.9.39,11.86,11.86,0,0,1-6-1.71l1.94-3.7A7.53,7.53,0,0,0,103,31.39a2.1,2.1,0,0,0,1.2-.32,1,1,0,0,0,.47-.81,1.35,1.35,0,0,0-.07-.48.76.76,0,0,0-.31-.34,2.55,2.55,0,0,0-.69-.29c-.3-.09-.7-.18-1.18-.28A6.8,6.8,0,0,1,99,27.42a3.59,3.59,0,0,1-1-2.68,5.21,5.21,0,0,1,.47-2.23,4.62,4.62,0,0,1,1.35-1.69,6.22,6.22,0,0,1,2.12-1.07,9.56,9.56,0,0,1,2.77-.38,12.61,12.61,0,0,1,4.83,1Zm14.44,1.45a3.18,3.18,0,0,0-1.08-1.76,3.38,3.38,0,0,0-4,0,2.86,2.86,0,0,0-1,1.79Zm-6.21,3c0,2.25,1.08,3.38,3.22,3.38a2.88,2.88,0,0,0,2.61-1.39h5.12q-1.55,5.09-7.76,5.09a10.2,10.2,0,0,1-3.48-.57,7.79,7.79,0,0,1-2.71-1.6,7.14,7.14,0,0,1-1.74-2.48,8.24,8.24,0,0,1-.61-3.24,9,9,0,0,1,.58-3.33,7,7,0,0,1,1.67-2.53,7.39,7.39,0,0,1,2.62-1.6,9.94,9.94,0,0,1,3.47-.57,9.66,9.66,0,0,1,3.42.57A6.74,6.74,0,0,1,125,21.57a7.06,7.06,0,0,1,1.61,2.61,10.24,10.24,0,0,1,.56,3.48v.55Z" transform="translate(-0.99 -1.12)"/></g><g id="isotipo"><path class="cls-2" d="M47.42,7.42a3.44,3.44,0,0,0-2.27-1.28L38.4,5.31a3.4,3.4,0,0,0-3.79,3l-1.87,15.2a3.41,3.41,0,0,0,.34,2,3.52,3.52,0,0,0,.81,1,3.38,3.38,0,0,0,1.81.81l6.76.83h0a3.41,3.41,0,0,0,3.79-3l1.87-15.2A3.41,3.41,0,0,0,47.42,7.42Z" transform="translate(-0.99 -1.12)"/><path class="cls-3" d="M31.81,10.51,30.28,3a2.4,2.4,0,0,0-2.82-1.82l-3.94.73a2.3,2.3,0,0,0-1.9,2.7l1.53,7.53A2.39,2.39,0,0,0,26,13.93l3.94-.73A2.3,2.3,0,0,0,31.81,10.51Z" transform="translate(-0.99 -1.12)"/><path class="cls-4" d="M5,5.06l7.2-1.4A5,5,0,0,1,18,7.78l6.54,33.64a5,5,0,0,1-3.81,6l-7.2,1.4a5,5,0,0,1-5.79-4.11Q2.14,16.4,1.15,11T5,5.06Z" transform="translate(-0.99 -1.12)"/></g></svg>