<svg id="Capa_1" data-name="Capa 1" xmlns="http://www.w3.org/2000/svg" width="1496" height="1430" viewBox="0 0 1496 1430"><defs><style>.cls-1{fill:#b1e9ff;}.cls-1,.cls-2{fill-rule:evenodd;}.cls-2{fill:#82dcff;}</style></defs><title>segment_1</title><path id="Rectangle" class="cls-1" d="M711.55,42.09l667,415.52c120.89,75.31,157.74,234.21,82.3,354.9,0,.09-.11.18-.17.27L1147.77,1312c-75.52,120.5-234.54,157.15-355.32,81.9l-667-415.52C4.57,903.08-32.28,744.18,43.16,623.49c.05-.09.11-.18.17-.27L356.23,124C431.75,3.49,590.77-33.16,711.55,42.09Z" transform="translate(-4 -3)"/><path class="cls-2" d="M714.49,126.71l503.4,313.41c98.89,61.56,129.06,191.51,67.39,290.23l-.15.24-173.46,276.88c-61.75,98.55-191.78,128.55-290.57,67L317.7,761.1c-98.89-61.57-129.06-191.51-67.39-290.24l.14-.23L423.92,193.75C485.66,95.2,615.69,65.2,714.49,126.71Z" transform="translate(-4 -3)"/></svg>