<svg xmlns="http://www.w3.org/2000/svg" width="2560" height="370" viewBox="0 0 2560 370"><defs><style>.cls-1{fill:none;}.cls-2{fill:#fff;}</style></defs><title>sky_rocket</title><g id="BackGround"><rect class="cls-1" width="2560" height="370"/></g><g id="cohet"><path d="M879.2,219.65s-8,.86-14.81,12.49S851.29,273,850.25,276.2a38,38,0,0,1-4,7.49s8.42-6.84,14.57-10S886.43,259,890.1,253.08s8.82-9.79,9.68-18.49-3.79-10-7.71-12.73S879.2,219.65,879.2,219.65Z"/><polygon points="848.1 207.22 856.37 195.65 874.74 174.71 880.8 171.78 896.41 170.12 915.51 146.61 939.37 122.42 960.88 106.75 977.27 97.66 979.78 98.1 980.9 104.18 975.61 128.47 959.78 166.63 941.13 197.76 941.78 207.96 942.03 228.33 931.31 252.04 924.14 261.41 919.92 258.29 917.48 226.74 908.53 232.94 900.59 234.42 894.61 229.99 887.41 234.96 886.14 232.96 887.85 227.43 884.84 223.57 875.72 217.08 877.83 205.25 866.33 210.18 848.1 207.22"/><path class="cls-2" d="M882.49,196.19c2.47-3.8,4.75-7.73,7-11.7.51-.93,1-1.85,1.57-2.78s1.1-1.76,1.67-2.63c1.17-1.76,2.33-3.53,3.57-5.25.85-1.17,1.68-2.37,2.56-3.53l1.2-1.59c1.09-1.38,2.23-2.74,3.28-4.16s1.93-2.6,2.91-3.89c1.34-1.67,2.69-3.33,4.09-5l2-2.31,1.05-1.18c.34-.39.67-.8,1-1.19l2-2.38c.7-.85,1.39-1.72,2.11-2.56l1-1.14c.34-.41.68-.82,1-1.21.68-.77,1.39-1.51,2.09-2.26s1.52-1.62,2.3-2.43l1.13-1.15c.36-.37.71-.75,1.06-1.13s.71-.72,1-1.09.71-.77,1.07-1.15c.7-.74,1.41-1.47,2.15-2.18s1.53-1.44,2.31-2.14,1.62-1.43,2.42-2.16,1.58-1.4,2.38-2.1,1.53-1.4,2.32-2.07c1.06-.91,2.1-1.85,3.1-2.83.53-.53,1.08-1,1.64-1.53s1-.82,1.5-1.22c.68-.53,1.33-1.08,2-1.61,1.08-.82,2.18-1.61,3.25-2.43s2.08-1.65,3.12-2.48c.38-.28.75-.57,1.12-.86l.14-.11-.18.13c1.12-.86,2.21-1.75,3.32-2.62.77-.58,1.54-1.18,2.35-1.72s1.71-1.17,2.56-1.76c.39-.27.75-.57,1.14-.84l1.3-.88,2.48-1.61c.83-.53,1.66-1.06,2.53-1.54s1.89-1,2.86-1.48c.77-.31,1.54-.59,2.33-.82s1.82-.47,2.72-.7a.61.61,0,0,0-.32-1.18c-1,.27-2.09.49-3.11.8a21.24,21.24,0,0,0-3,1.13c-.92.43-1.83.89-2.71,1.39s-1.62,1-2.42,1.5-1.67,1-2.49,1.59c-.43.28-.86.55-1.27.84s-.79.56-1.2.82-.87.57-1.31.84-.91.55-1.35.85c-.85.56-1.68,1.16-2.5,1.77-.35.26-.69.53-1,.8l.07,0-.1.07-.08.06,0,0-.86.66h0l0,0-.15.11.1-.07-2.14,1.61L952,112.21l0,0,0,0-.13.11.12-.1c-.88.68-1.79,1.33-2.7,2-.46.33-.92.66-1.37,1s-1,.79-1.5,1.18c-.81.62-1.63,1.24-2.41,1.9s-1.52,1.39-2.27,2.09-1.55,1.38-2.34,2-1.57,1.38-2.36,2.07-1.56,1.31-2.32,2-1.64,1.45-2.47,2.17c-1.54,1.35-3.06,2.75-4.49,4.23s-3,3-4.44,4.55c-.76.78-1.52,1.56-2.27,2.36s-1.42,1.47-2.11,2.23-1.41,1.61-2.11,2.41-1.35,1.6-2,2.4-1.33,1.59-2,2.38c-.33.39-.65.8-1,1.18l-1.06,1.19c-2.21,2.54-4.42,5.08-6.49,7.75-1.19,1.54-2.33,3.13-3.52,4.68l.19-.25c-.57.71-1.12,1.43-1.7,2.13s-1.1,1.37-1.63,2.07c-1.31,1.68-2.57,3.4-3.79,5.14s-2.4,3.55-3.56,5.34c-.28.45-.57.88-.85,1.32s-.53,1-.79,1.42c-.5.92-1,1.83-1.5,2.76-1,1.94-2.09,3.88-3.15,5.81s-2.06,3.64-3.14,5.44a1,1,0,0,0,.36,1.36,1,1,0,0,0,.49.13,1,1,0,0,0,.87-.49ZM949,116.67l.16-.12-.16.12Zm10.63-8.26.11-.09-.11.09Zm-2.34-.28,0,0-.07,0,0,0Zm-.91.7h0l-.06.05.05,0ZM952,112.21Zm-47.75,47.12.09-.11-.19.24.1-.13Z"/><path class="cls-2" d="M923.31,223.78a45.68,45.68,0,0,0,3.3-3.23c.48-.52.94-1.07,1.39-1.62s1-1.1,1.38-1.71c1.47-2.14,2.94-4.3,4.53-6.38.77-1,1.52-2.05,2.29-3.07s1.6-2.08,2.36-3.16,1.4-2.17,2.05-3.28,1.32-2.25,2-3.36c1.41-2.21,2.89-4.39,4.31-6.59.71-1.09,1.49-2.13,2.2-3.21s1.42-2.22,2.13-3.33,1.36-2.25,2-3.4,1.24-2.37,1.88-3.54,1.25-2.3,1.87-3.45,1.22-2.36,1.83-3.53,1.18-2.38,1.78-3.56,1.24-2.41,1.84-3.63,1.15-2.53,1.68-3.81,1-2.41,1.43-3.62c.59-1.6,1.23-3.19,1.89-4.76l-.12.27c.56-1.32,1.16-2.62,1.68-3.95s.92-2.43,1.31-3.68.78-2.45,1.22-3.66,1-2.53,1.41-3.8c.89-2.51,1.71-5,2.58-7.56s1.67-4.89,2.45-7.36,1.49-4.92,2.15-7.39c.32-1.23.62-2.45.89-3.69s.45-2.57.63-3.87a40,40,0,0,0,.37-4.76,23.59,23.59,0,0,0-.1-2.91,9,9,0,0,0-.79-2.69,1,1,0,0,0-.43-.56.93.93,0,0,0-1.29.34.88.88,0,0,0-.1.72c.15.37.3.74.44,1.11a7.54,7.54,0,0,1,.28,1.16,18.46,18.46,0,0,1,.06,2.23c0,.62,0,1.23,0,1.85-.06,1.19-.18,2.38-.34,3.56a.53.53,0,0,0,0-.13c-.18,1.31-.38,2.61-.66,3.91s-.58,2.42-.9,3.62c-.66,2.45-1.38,4.89-2.14,7.31s-1.64,5-2.51,7.46-1.72,5-2.64,7.45c-.7,1.88-1.48,3.74-2.13,5.63-.32.91-.6,1.82-.92,2.72s-.71,1.88-1.09,2.82-.85,1.92-1.27,2.89-.86,2-1.28,3.09c-.81,2-1.59,4.06-2.44,6.07-.49,1.11-1,2.23-1.54,3.3s-1.27,2.42-1.91,3.62c-1.25,2.34-2.43,4.72-3.72,7-.64,1.15-1.29,2.29-1.91,3.45-.32.58-.61,1.17-.91,1.75s-.62,1.11-.93,1.66q-1,1.74-2.07,3.42c-.7,1.1-1.39,2.2-2.12,3.28s-1.57,2.23-2.32,3.37-1.44,2.16-2.15,3.25-1.41,2.14-2.09,3.22-1.35,2.23-2,3.35c-.44.75-.89,1.5-1.37,2.22s-.87,1.25-1.33,1.86l-.67.86.1-.12c-.75,1-1.5,1.92-2.23,2.89s-1.54,1.93-2.28,2.93c-.34.43-.67.86-1,1.3-.82,1-1.6,2.1-2.39,3.16-.38.45-.77.89-1.16,1.33s-.93,1.07-1.41,1.59c-1,1.11-2.07,2.18-3.16,3.21a1.49,1.49,0,0,0,1,2.54,1.54,1.54,0,0,0,1.06-.44Zm7-12.71.17-.22-.17.22Z"/><path class="cls-2" d="M975.61,128.48a6,6,0,0,0,.15-1.88c-.06-.49-.15-1-.23-1.45s-.11-.82-.17-1.23l-.06-.9c0-.41-.09-.83-.17-1.23a11.9,11.9,0,0,0-.82-2.3l.11.24a13.64,13.64,0,0,0-.7-1.44,8.61,8.61,0,0,0-.74-1.08c-.31-.4-.58-.83-.89-1.23a11.25,11.25,0,0,0-.93-1,14.67,14.67,0,0,0-1.08-1c-.47-.37-1-.72-1.43-1s-.82-.57-1.24-.82-.91-.47-1.38-.68a18.33,18.33,0,0,0-2.85-1.12c-.51-.13-1-.22-1.53-.32s-1.21-.25-1.83-.33a15,15,0,0,0-3.35.1,1,1,0,0,0-.71.29,1,1,0,0,0-.3.72,1,1,0,0,0,1,1l1.73-.15a8.07,8.07,0,0,1,1.39,0c.67.12,1.32.33,2,.51a19.28,19.28,0,0,1,2.12.66c.38.17.75.34,1.14.5s1,.46,1.53.74a12.41,12.41,0,0,1,1.29.84c.43.31.88.59,1.3.9a12.63,12.63,0,0,1,1.64,1.63c.29.39.57.79.87,1.19l-.07-.09a9.14,9.14,0,0,1,1.08,1.8l.21.48c.13.34.27.68.38,1a7.18,7.18,0,0,1,.2.92v.06c0,.32.07.65.09,1s.13.88.2,1.31.12.72.21,1.07a8.09,8.09,0,0,1,.21.95,7.36,7.36,0,0,1,0,1.15.84.84,0,0,0,.62.82l.21,0a.84.84,0,0,0,.83-.61ZM973.3,123l0-.21,0,.21Zm-.85-2.79-.06-.13.06.13Zm.59-2.93-.06-.08.06.08Zm-.07-.09-.05-.06.05.06Zm-9.39-4.47-.12,0,.12,0Z"/><path class="cls-2" d="M951.1,157.09a12.24,12.24,0,0,0,1.55-.33,12.61,12.61,0,0,0,1.44-.56,12,12,0,0,0,1.29-.65,12.93,12.93,0,0,0,2.41-1.82c.38-.35.73-.73,1.09-1.11a14.57,14.57,0,0,0,1-1.08,10.65,10.65,0,0,0,1-1.35,14,14,0,0,0,.71-1.52,11,11,0,0,0,.49-1.47c.12-.48.19-1,.29-1.46.2-1,.38-2.07.5-3.12a12.42,12.42,0,0,0,0-3.28,14.07,14.07,0,0,0-.88-3,10.8,10.8,0,0,0-1.41-2.87,16.24,16.24,0,0,0-2.29-2.47,7.81,7.81,0,0,0-.82-.6,6.53,6.53,0,0,0-1.51-.66,10.55,10.55,0,0,0-1.45-.35c-.43-.08-.86-.16-1.29-.21a.75.75,0,0,0-.48-.23l-1.63-.11c-.48,0-1-.08-1.45-.07a19.86,19.86,0,0,0-3.35.37,11.87,11.87,0,0,0-3,1,12.42,12.42,0,0,0-2.67,2,14.4,14.4,0,0,0-1.11,1.1c-.36.39-.68.82-1,1.25a16.15,16.15,0,0,0-1.57,2.58,14,14,0,0,0-.71,1.71,8.34,8.34,0,0,0-.41,1.54,19.53,19.53,0,0,0-.22,3.24,15.51,15.51,0,0,0,1.51,6,24.73,24.73,0,0,0,1.33,2.68,8.6,8.6,0,0,0,1,1.31c.34.38.7.73,1.06,1.09a12.54,12.54,0,0,0,1.07,1,4.62,4.62,0,0,0,1.89.91,30.12,30.12,0,0,0,3.12.47c1,.09,2,.1,3,.11h.3a9.3,9.3,0,0,0,1.29-.07Zm-2.32-1.27c-.83,0-1.67-.13-2.51-.24l.2,0c-.5-.07-1-.16-1.5-.28a10.91,10.91,0,0,1-1.49-.4,4.43,4.43,0,0,1-.59-.36c-.49-.42-.92-.92-1.37-1.38a18.38,18.38,0,0,1-1.25-1.4,14,14,0,0,1-1.29-2.49,21.13,21.13,0,0,1-1.25-4.32,11.86,11.86,0,0,1-.07-1.57c0-.52.06-1,.12-1.55a9.73,9.73,0,0,1,.35-1.51c.15-.5.35-1,.54-1.45a17.89,17.89,0,0,1,1-2c.35-.58.74-1.12,1.14-1.66s.93-1.08,1.43-1.59a18.93,18.93,0,0,1,1.61-1.49,9.46,9.46,0,0,1,1.81-1,17.21,17.21,0,0,1,3.22-.94l-.18,0,.31,0a.81.81,0,0,0,0,.16,1.3,1.3,0,0,0,.37.91,1.33,1.33,0,0,0,.91.37c.74,0,1.47.1,2.2.18a18.08,18.08,0,0,1,3.08.79,7.52,7.52,0,0,1,.91.54c.38.3.75.62,1.11,1a12,12,0,0,1,1.06,1.08c.15.21.3.41.43.63a9,9,0,0,1,.52,1c.28.56.55,1.13.8,1.7a8.9,8.9,0,0,1,.34,1,7.67,7.67,0,0,1,.19.93c0,.52.1,1,.11,1.56s0,1.13,0,1.69-.06,1.09-.1,1.63-.06,1.13-.12,1.69a8,8,0,0,1-.25,1.1,8.39,8.39,0,0,1-.4,1.13,8.48,8.48,0,0,1-.9,1.51c-.44.53-.92,1-1.4,1.52-.26.27-.52.54-.8.79s-.58.49-.88.72l.11-.08A13.84,13.84,0,0,1,954.1,155c-.43.18-.86.35-1.31.5a9.28,9.28,0,0,1-1.56.36,15.42,15.42,0,0,1-2.45,0Zm-11-14.09a.88.88,0,0,1,0-.16.88.88,0,0,0,0,.16Zm.83-2.74,0-.07,0,.07Z"/><path class="cls-2" d="M949.78,153.41a9.64,9.64,0,0,0,1.77-.23,8.89,8.89,0,0,0,1.59-.58,7.34,7.34,0,0,0,1.33-.85,6.33,6.33,0,0,0,1.21-1.27,12.76,12.76,0,0,0,1.58-3,13.28,13.28,0,0,0,.78-3.35,15.77,15.77,0,0,0,.2-3.36,16.45,16.45,0,0,0-.71-3.4,9.06,9.06,0,0,0-.67-1.68,4.15,4.15,0,0,0-.6-.84,4.45,4.45,0,0,0-1.72-1.18,1.66,1.66,0,0,0-1-.2.89.89,0,0,0-.43-.25c-.6-.15-1.2-.3-1.81-.43a7.23,7.23,0,0,0-.91-.16,5.31,5.31,0,0,0-1.38,0,6.84,6.84,0,0,0-1.77.54c-.49.22-1,.44-1.45.7a10.74,10.74,0,0,0-2.66,2.08c-.38.42-.75.86-1.12,1.3a7.09,7.09,0,0,0-1,1.6,11.42,11.42,0,0,0-.92,3.54c-.06.54-.07,1.1-.08,1.65s0,1.1,0,1.65a9,9,0,0,0,.32,1.79,14.37,14.37,0,0,0,.65,1.69,7.31,7.31,0,0,0,.82,1.37c.19.24.38.48.58.7a6.5,6.5,0,0,0,.74.65,7,7,0,0,0,1.61.87,7.27,7.27,0,0,0,1.63.43,15.65,15.65,0,0,0,2.37.17c.35,0,.7,0,1,0Zm-2.69-1.61a7.88,7.88,0,0,1-1.59-.4,8.34,8.34,0,0,1-1.22-.65,6.47,6.47,0,0,1-.79-.78,9.26,9.26,0,0,1-.91-1.55,11.68,11.68,0,0,1-.55-1.83,16.33,16.33,0,0,1,.14-3.63,10.37,10.37,0,0,1,.3-1.45c.16-.48.33-.95.52-1.42a6.6,6.6,0,0,1,.6-1.11,15.44,15.44,0,0,1,2.22-2.42,16.4,16.4,0,0,1,2.67-1.52,7.73,7.73,0,0,1,1.25-.35,5,5,0,0,1,.87,0c.55.09,1.09.21,1.63.35a1.31,1.31,0,0,0,0,.39,1.47,1.47,0,0,0,.71.92,6.56,6.56,0,0,1,1,.49,4.89,4.89,0,0,1,.39.4,15.86,15.86,0,0,1,1.41,2.75c.14.36.26.72.37,1.1a9,9,0,0,1,.21,1,16.39,16.39,0,0,1-.05,3.43,11,11,0,0,1-.26,1.27,9.35,9.35,0,0,1-.4,1.12,10,10,0,0,1-1,1.74,6,6,0,0,1-.92,1,8,8,0,0,1-1.36.79,6.81,6.81,0,0,1-1.53.42,17.16,17.16,0,0,1-3.72-.07Zm-5-5c0-.06,0-.11,0-.17a1,1,0,0,1,0,.17Zm14.22-1.29s0-.05,0-.07v.07ZM943,140l0-.09a.36.36,0,0,0,0,.09Zm2.62-3.29.08,0-.08,0Z"/><path class="cls-2" d="M888.28,235.58a2.92,2.92,0,0,0,1.15-.52,9.86,9.86,0,0,0,1.33-1.17c.82-.85,1.55-1.76,2.3-2.65s1.57-1.82,2.38-2.7,1.62-1.78,2.4-2.7c.37-.44.76-.86,1.13-1.31l1.11-1.37c.76-.93,1.48-1.89,2.24-2.82s1.49-1.72,2.2-2.61,1.59-2,2.41-2.92c1-1.15,2-2.27,3-3.46h0l.08-.1.07-.09,0,0c.7-.9,1.36-1.81,2-2.75s1.32-1.86,2-2.8c1.25-1.83,2.24-3.83,3.44-5.69.63-1,1.26-1.92,1.87-2.89s1.2-2.05,1.86-3l.94-1.43a16.74,16.74,0,0,0,.84-1.49c.54-1,1.08-2.1,1.55-3.18l.84-1.94c.35-.83.74-1.65,1-2.5s.6-1.71.86-2.58c.11-.39.17-.8.29-1.2s.19-.71.26-1.06a13.18,13.18,0,0,0,.2-1.52c0-.25,0-.5,0-.74a3,3,0,0,0-.11-.84,3.06,3.06,0,0,0-.69-1.09,1.49,1.49,0,0,0-1.11-.46h-.16a.72.72,0,0,0-.57.09,56.64,56.64,0,0,0-6.27,4.74c-.86.76-1.66,1.57-2.49,2.36a21.24,21.24,0,0,0-2.41,2.7c-.75,1-1.47,2-2.19,3.07s-1.47,2-2.22,3c-1.48,2-2.93,4.07-4.31,6.17-.68,1-1.31,2.1-1.95,3.15s-1.23,2.05-1.84,3.08c-1.3,2.18-2.6,4.36-3.93,6.53-.65,1.06-1.29,2.12-1.91,3.2s-1.08,2.06-1.58,3.11c-.25.52-.5,1-.79,1.53s-.63,1-1,1.53c-.66,1-1.31,2-1.92,3s-1.13,2.07-1.65,3.13-1,2.18-1.52,3.29a12.58,12.58,0,0,0-.61,1.79c-.13.55-.22,1.11-.33,1.66a18.06,18.06,0,0,0-.3,1.79c-.1.84-.24,1.82.54,2.39a1.69,1.69,0,0,0,1,.28,4,4,0,0,0,.6,0Zm-.39-1.73A8.67,8.67,0,0,1,888,233c0-.27,0-.53.08-.79a17.93,17.93,0,0,1,1-4.1,54.06,54.06,0,0,1,3-6.21c.62-1,1.27-2.05,1.92-3.07a23.14,23.14,0,0,0,1.62-3q.76-1.69,1.68-3.3c.62-1.09,1.27-2.16,1.92-3.23,1.3-2.12,2.57-4.25,3.84-6.39.59-1,1.19-2,1.8-3s1.29-2.1,2-3.13c1.41-2.12,2.91-4.18,4.43-6.22.79-1.06,1.59-2.12,2.35-3.2s1.45-2.06,2.2-3.07a18.57,18.57,0,0,1,1.39-1.54c.53-.51,1.08-1,1.61-1.51,1.08-1,2.21-2,3.38-2.87l-.11.08c.61-.47,1.21-.94,1.83-1.39l.86-.6.06.08c0,.27,0,.54,0,.81a6.79,6.79,0,0,1,0,.78,8.27,8.27,0,0,1-.19.83c-.09.35-.14.71-.23,1.06s-.21.7-.32,1l-.33,1.09c-.13.38-.24.76-.38,1.14s-.23.62-.34.93-.28.69-.41,1-.27.69-.41,1c0-.11.09-.22.14-.33-.12.27-.23.54-.34.81-.46,1-1,2-1.46,3s-1.12,2-1.73,3-1.16,2.07-1.77,3.09-1.19,1.95-1.77,2.93-1,1.87-1.53,2.82-1.1,2-1.71,3-1.24,1.94-1.84,2.91-1.24,1.92-1.9,2.85l-.17.23c-.59.75-1.21,1.48-1.83,2.21l-1.91,2.32c-.66.82-1.3,1.65-2,2.46s-1.31,1.52-1.92,2.31l0,0q-2.12,2.7-4.35,5.3c-.79.92-1.63,1.79-2.44,2.68s-1.59,1.83-2.35,2.77a19.19,19.19,0,0,1-2.66,2.82,3,3,0,0,1-.52.31l-.18,0Zm20.21-23.24.08-.1-.08.1Zm7.75-26.41.06-.08-.06.08Zm8.88-5.8s0-.08,0-.12,0,.08,0,.12Zm.23-1.64,0,0,0,0Zm-.15-.25v0Zm-24.25,43.27-.11.14.11-.14Z"/><path class="cls-2" d="M915.18,230.27l.4-.34a7.45,7.45,0,0,0,1-.6c.43-.3.84-.63,1.26-1l1.46-1.13c.42-.33.83-.66,1.23-1,1.67-1.45,3.27-3,4.88-4.5l.54-.53a.87.87,0,0,0,0-1.22.85.85,0,0,0-.85-.21.86.86,0,0,0-.28,0l-.24,0-.23.07a3.22,3.22,0,0,0-.5.23,4.47,4.47,0,0,0-.6.4c-.46.34-.91.72-1.36,1.08-.76.62-1.51,1.25-2.26,1.89l-2.45,2.09c-.79.68-1.57,1.36-2.37,2l-1.24,1.06a1.16,1.16,0,0,0,0,1.65,1.13,1.13,0,0,0,.82.34,1.19,1.19,0,0,0,.82-.34Z"/><path class="cls-2" d="M879.78,205.74a5.21,5.21,0,0,0,.09-.57c0-.17.06-.34.1-.51.1-.45.21-.88.33-1.32.2-.71.45-1.4.69-2.09s.4-1.13.59-1.69c.62-1.43,1.27-2.84,1.93-4.24a1.14,1.14,0,0,0,.13-.72l.29-.58a.71.71,0,0,0,.06-.47c0-.09.09-.19.13-.29a5.82,5.82,0,0,0,.35-.81s0,0,0-.06v0a.91.91,0,0,0-.09-.72.92.92,0,0,0-1-.43,1.16,1.16,0,0,0-.43.25l-.12.14c-.12.13-.22.28-.33.42s-.3.39-.44.59a11.35,11.35,0,0,0-.79,1.41c-.25.5-.48,1-.71,1.54s-.44,1-.64,1.48l-.36.9c-.11.26-.18.53-.27.8a11.15,11.15,0,0,0-.38,1.37c0,.12,0,.23-.07.35a25.66,25.66,0,0,0-.9,2.82c-.07.27-.13.55-.19.82-.12.53-.28,1.2.18,1.62a1.09,1.09,0,0,0,.65.3.66.66,0,0,0,.53.25.7.7,0,0,0,.7-.52Z"/><path class="cls-2" d="M894.08,217.21a.89.89,0,0,0,.14-1.07,4.15,4.15,0,0,0-.24-.34,8.24,8.24,0,0,0-.75-.91l-.3-.35c-.12-.14-.25-.27-.38-.41s-.41-.47-.63-.69a10.14,10.14,0,0,0-.94-.77c-.55-.42-1.15-.78-1.71-1.19l-1.56-1.17h0c-.51-.39-1-.8-1.53-1.2s-1-.68-1.49-1c-1-.62-2.14-1.15-3.12-1.87-.5-.42-1-.86-1.49-1.3a1.12,1.12,0,0,0-1.54,0,1.11,1.11,0,0,0,0,1.53c.63.56,1.25,1.11,1.92,1.63a13,13,0,0,0,1.79,1.09,23.43,23.43,0,0,1,3.34,2.06c.76.59,1.52,1.18,2.3,1.74s1.54,1,2.29,1.59c.44.38.82.81,1.22,1.22.2.22.39.45.61.66s.23.26.35.39a3.18,3.18,0,0,0,.63.48.88.88,0,0,0,.44.12.9.9,0,0,0,.64-.26Zm-8.41-5.89a.18.18,0,0,0-.07,0l.07,0Zm-.07,0-.14-.11.14.11Zm-4-5-.16-.12.16.12Z"/><path class="cls-2" d="M913.3,231a1.68,1.68,0,0,0,.42-1.61,1.65,1.65,0,0,0-.39-.69,2.24,2.24,0,0,0-.9-.76,2.3,2.3,0,0,1-.4-.23c-.33-.28-.65-.57-1-.88a17,17,0,0,0-1.28-1.27l-1-.8c-.36-.32-.69-.68-1.05-1a16.33,16.33,0,0,0-2.72-1.89c-1-.61-2-1.25-2.92-1.89a1.63,1.63,0,0,0-2.21.58,1.65,1.65,0,0,0,.58,2.21c.84.56,1.68,1.12,2.54,1.65.69.42,1.38.84,2,1.29s.95,1,1.44,1.46l.74.69a11.54,11.54,0,0,1,1,1.09,14.31,14.31,0,0,0,1.12,1.35,6.16,6.16,0,0,0,.84.69,3.43,3.43,0,0,0,.49.28h0a2.88,2.88,0,0,0,1.21.36H912a1.92,1.92,0,0,0,1.3-.61Z"/><path class="cls-2" d="M877.79,217.87l0,0a1.15,1.15,0,0,0,.15-.79c0-.16,0-.33,0-.48l0-.77c0-.49.09-1,.15-1.47a39,39,0,0,1,.8-4.15c.37-1.44.85-2.84,1.34-4.24a1.29,1.29,0,0,0-1.89-1.46,1.33,1.33,0,0,0-.59.77c-.37,1.05-.76,2.1-1.07,3.17s-.53,1.94-.74,2.92-.39,2.2-.54,3.31a12.1,12.1,0,0,0-.1,1.47q0,.38,0,.72a5.4,5.4,0,0,0,.08.58,1.38,1.38,0,0,0,.65.88,1,1,0,0,0,.57.18,1.32,1.32,0,0,0,1.08-.61Z"/><path class="cls-2" d="M902,235.82a11.92,11.92,0,0,0,3.09-.47c.91-.28,1.81-.6,2.71-.93a19.5,19.5,0,0,0,2.93-1.27c.83-.48,1.62-1,2.42-1.58a1.33,1.33,0,0,0,.47-1.79,1.32,1.32,0,0,0-1.79-.47,24.92,24.92,0,0,1-3.22,2,32.23,32.23,0,0,1-3.29,1,29.32,29.32,0,0,1-3.69.72,1.49,1.49,0,0,0-.62.36,1.4,1.4,0,0,0,1,2.39Z"/><path class="cls-2" d="M889.54,227.33a.92.92,0,0,0,.13-.49,1,1,0,0,0-.28-.68,7.06,7.06,0,0,0-.67-.67l-.76-.67a11,11,0,0,0-1-.73l-.88-.64c-.65-.45-1.33-.88-2-1.35s-1.1-.82-1.64-1.24l.06,0a42.12,42.12,0,0,1-5.52-5.16.94.94,0,0,0-1.33,0,1,1,0,0,0,0,1.33,41.74,41.74,0,0,0,4.69,4.52c.82.7,1.68,1.35,2.54,2s1.7,1.15,2.52,1.77l.67.51a7.92,7.92,0,0,1,1,.88,4.86,4.86,0,0,0,.41.38l.22.18a.69.69,0,0,0,.13.11,1.7,1.7,0,0,0,.6.34.58.58,0,0,0,.26,0,1,1,0,0,0,.83-.49Z"/><path class="cls-2" d="M900.53,235.34a1.47,1.47,0,0,0,1.21-.7,1.42,1.42,0,0,0-.22-1.71,2.86,2.86,0,0,0-1.09-.64l-.49-.17a8.13,8.13,0,0,1-.83-.43,8,8,0,0,1-.84-.59c-.84-.69-1.63-1.44-2.44-2.16a1.57,1.57,0,0,0-2.17,0,1.55,1.55,0,0,0,0,2.17c1,.91,2,1.88,3.11,2.71a7.21,7.21,0,0,0,2.48,1.28l.38.09a4.43,4.43,0,0,0,.79.16Z"/><path class="cls-2" d="M857.87,210.73c1.44,0,2.87-.19,4.3-.3s2.78-.11,4.16-.25a25.56,25.56,0,0,0,4.66-1,33.67,33.67,0,0,0,4-1.58c.53-.21,1.07-.36,1.63-.52l.79-.21a2,2,0,0,0,1.2-.52,1.3,1.3,0,0,0,.37-.88,1.25,1.25,0,0,0-.37-.87,1.24,1.24,0,0,0-1.65-.08c-.73.23-1.48.4-2.2.69l-2.65,1.06a26.37,26.37,0,0,1-5.37,1.4c-1.26.11-2.52.14-3.77.21s-2.48.22-3.72.31-2.58.09-3.86.07-2.5-.11-3.74-.26a8.89,8.89,0,0,1-1.54-.38,2,2,0,0,1-.25-.14c-.06,0-.11-.11-.16-.16h0v-.15a5.89,5.89,0,0,1,.34-1.08,12.85,12.85,0,0,1,1.41-2.25l1.63-2.21c1-1.42,2.11-2.82,3.17-4.22,1.79-2.23,3.62-4.44,5.39-6.69q1.33-1.69,2.7-3.39c.94-1.17,1.94-2.31,3-3.43.71-.79,1.42-1.56,2.15-2.34s1.46-1.45,2.2-2.16,1.6-1.51,2.41-2.25,1.35-1.27,2.07-1.85l.12-.09a9.9,9.9,0,0,1,2-1.15,22.47,22.47,0,0,1,4.81-1.34c.7-.09,1.39-.16,2.08-.26s1.34-.22,2-.33c1.29-.23,2.57-.47,3.87-.65l.3,0,2.27-.31,2.12-.29-.36,0c1.06-.14,2.11-.3,3.16-.48a1.3,1.3,0,0,0,.8-.61,1.34,1.34,0,0,0-.48-1.82,1.45,1.45,0,0,0-1-.13c-.63.11-1.25.21-1.88.3-1.47.18-3,.34-4.43.5s-3.12.41-4.68.62h.08l-1.79.26c-1.44.19-2.89.26-4.32.55a20,20,0,0,0-4.12,1.34,13.27,13.27,0,0,0-3.52,2.32c-1.08.95-2.12,1.94-3.17,2.93s-2.08,2-3.06,3.06S864.91,181.9,864,183c-2,2.27-3.75,4.71-5.56,7.11l-2.06,2.71q-2.67,3.44-5.19,7c-.41.59-.81,1.18-1.24,1.75s-.78,1.07-1.15,1.61a10.1,10.1,0,0,0-1.12,2.1,9.55,9.55,0,0,0-.34,1,3.32,3.32,0,0,0-.1,1.25,2.75,2.75,0,0,0,.77,1.59,5.55,5.55,0,0,0,3.4,1.3c.71.09,1.43.18,2.14.21,1.09.06,2.17.11,3.26.11l1.1,0ZM851.46,208l-.09,0,.09,0Zm-1.66-.47-.09-.12h0a1,1,0,0,1,.08.11Zm-.14,0s0-.08,0-.12l0,.12Zm.06-.11h0l0,0,0,0Zm-.12-.2a.36.36,0,0,1,0-.09.36.36,0,0,0,0,.09Zm6.67-9.9.08-.1-.08.1Zm19.82-22,0,0,0,0Zm.09-.07.26-.2-.26.2Zm14.5-3.68.15,0-.15,0Zm-5.92-2h0Z"/><path class="cls-2" d="M923.77,262.32a3.84,3.84,0,0,0,1.36-.5,6.41,6.41,0,0,0,1.64-1.47c.45-.54.9-1.07,1.32-1.62a32.86,32.86,0,0,0,1.93-3c.61-1,1.17-2.07,1.77-3.09s1.2-1.83,1.77-2.77,1.1-2.09,1.63-3.14c.27-.54.58-1.06.87-1.6s.5-1,.73-1.53c.47-1.07,1.12-2,1.66-3.07.29-.56.6-1.11.89-1.66s.53-1.08.79-1.62c.53-1.14,1-2.3,1.51-3.45a24.28,24.28,0,0,0,1.29-3.58,11.27,11.27,0,0,0,.45-3.6c0-.62-.09-1.24-.12-1.85s0-1.25,0-1.88c0-1.26,0-2.51,0-3.77s0-2.47-.1-3.7-.09-2.59-.08-3.89c0-2.52,0-5,0-7.57q0-3.09-.16-6.18a.91.91,0,0,0-1.82,0c.11,2.64.11,5.28.12,7.93v3.84c0,1.24,0,2.49,0,3.73s.14,2.59.22,3.89.14,2.52.19,3.78,0,2.5.14,3.75c0,.6.13,1.2.2,1.79a7.4,7.4,0,0,1,0,1.76.34.34,0,0,1,0,.1,19,19,0,0,1-1.28,4.17c-.5,1.13-1,2.25-1.55,3.35s-1.13,2.22-1.75,3.3c-.31.54-.6,1.09-.92,1.61s-.62,1-.89,1.45-.49,1-.74,1.48a15,15,0,0,1-1,1.51c-.85,1.18-1.61,2.43-2.48,3.61l-.66.84.08-.1c-.46.6-.91,1.22-1.32,1.87s-.79,1.31-1.18,2c-.72,1.22-1.43,2.47-2.26,3.62-.3.36-.63.69-.93,1.05a10.43,10.43,0,0,1-1,1.09,2.92,2.92,0,0,1-.48.29,2.49,2.49,0,0,1-.37.09H923l-.5-.14-.24-.14A2,2,0,0,1,922,259a2.43,2.43,0,0,1-.26-.44,18.81,18.81,0,0,1-.79-3.72c-.15-1.17-.25-2.34-.32-3.51-.08-1.34-.19-2.68-.27-4-.14-2.55-.12-5.1-.11-7.66,0-2,0-3.9,0-5.85,0-.94,0-1.89,0-2.83,0-.45,0-.91,0-1.36a10.55,10.55,0,0,0-.1-1.38h0v0a1.63,1.63,0,0,0,0-.76,1.57,1.57,0,0,0-.74-.95,1.59,1.59,0,0,0-1.94.25,2.21,2.21,0,0,0-.61,1.12c0,.28-.08.56-.11.84s0,.61,0,.91c0,.63,0,1.25,0,1.87,0,1.31,0,2.62,0,3.92,0,2.55,0,5.1.12,7.65s.23,5.23.46,7.84c.12,1.35.23,2.69.43,4a23.55,23.55,0,0,0,.75,3.81,11.19,11.19,0,0,0,.44,1.14,4.78,4.78,0,0,0,.86,1.23,4,4,0,0,0,1.93,1.12,6.93,6.93,0,0,0,.89.16l.32,0a4.32,4.32,0,0,0,.79-.08Zm-3.6-34.25h0Zm0,.13h0a.13.13,0,0,0,0,.06v-.06Zm10.59,21.45,0,.07,0-.07Zm-2.6,9-.09.11a.91.91,0,0,1-.11.16l.2-.27Z"/><path class="cls-2" d="M929.94,255.32c.71-1.09,1.41-2.19,2.11-3.3.52-.82,1.06-1.64,1.55-2.48l1.07-1.83c.25-.42.46-.86.67-1.3l1.4-2.76c.5-1,1-1.91,1.53-2.86s1.08-1.9,1.61-2.86.93-1.79,1.36-2.69a15.08,15.08,0,0,0,1.11-2.94c0-.21.11-.43.18-.64s.1-.46.15-.68.13-.49.2-.73.12-.55.18-.83a15.27,15.27,0,0,0,.2-3.17c0-1,0-1.94-.08-2.91,0-.52-.07-1-.09-1.56s0-1,0-1.49c0-1,.06-2,.12-3.07s.19-2.14.2-3.2c0-2.07,0-4.13,0-6.2,0-3.38,0-6.77-.27-10.14a1.36,1.36,0,0,0-.38-.91,1.3,1.3,0,0,0-1.82,0,1.27,1.27,0,0,0-.38.91c.1,1.11.17,2.21.21,3.32s0,2.18,0,3.27l0,6.32,0,3.11c0,1.06-.06,2.11-.12,3.17s-.08,2-.1,3.06c0,.48,0,1,0,1.46s0,1.06.09,1.59c.1,1.09.21,2.18.26,3.27,0,.54,0,1.09.07,1.64,0,.28,0,.56,0,.84s0,.49-.07.74-.15.7-.22,1.05c0,.17-.05.33-.08.49a4.39,4.39,0,0,1-.13.52c-.09.38-.17.76-.28,1.15a9.5,9.5,0,0,1-.34,1c-.37.85-.75,1.71-1.15,2.56s-1,1.89-1.52,2.82-1,1.91-1.53,2.86-1,2-1.47,3c-.34.69-.64,1.4-1,2.07s-.91,1.62-1.39,2.41c-1.07,1.76-2.14,3.52-3.24,5.26a.71.71,0,0,0,.26,1,.64.64,0,0,0,.35.1.75.75,0,0,0,.62-.35Z"/><path class="cls-2" d="M850.74,275.93c.18-.68.36-1.35.52-2,.14-.52.27-1,.42-1.57.25-1,.51-1.93.77-2.9l.84-3c.28-1,.56-2,.85-3s.54-2,.8-3,.6-2,.9-3,.54-2,.79-3,.51-2.07.78-3.1c.55-2,1.21-4,1.87-6,.32-1,.72-2,1.08-2.94.17-.48.35-.95.52-1.43s.36-1,.54-1.5c.25-.7.52-1.4.81-2.09.2-.46.41-.91.64-1.35s.48-.9.74-1.33c.53-.89,1.11-1.74,1.68-2.6l1.7-2.56.82-1.23c.28-.4.57-.79.86-1.18h0l0,0a25.05,25.05,0,0,1,1.71-2c.29-.3.59-.6.89-.89s.63-.56,1-.83a5.12,5.12,0,0,1,.56-.39l.82-.48c.6-.34,1.23-.64,1.85-1a.5.5,0,0,0,.17-.67.49.49,0,0,0-.67-.17,31.56,31.56,0,0,0-2.92,1.58,6.07,6.07,0,0,0-.57.43c-.2.17-.41.33-.61.51-.39.35-.75.72-1.12,1.09a21.57,21.57,0,0,0-2,2.42c-.59.78-1.12,1.61-1.66,2.44s-1.12,1.71-1.68,2.56-1.1,1.69-1.61,2.56a19.71,19.71,0,0,0-1.37,2.81c-.38,1-.73,2-1.05,3-.16.47-.33.93-.5,1.4s-.34.93-.52,1.4-.41,1.06-.6,1.6-.34,1-.5,1.51-.33,1-.49,1.5l-.45,1.43c-.15.51-.3,1-.44,1.52s-.28,1-.4,1.5c-.25,1-.49,2-.77,3s-.53,2-.84,3-.59,2-.86,3-.54,2-.82,3-.53,1.9-.79,2.84-.5,1.79-.73,2.68l-.75,2.79c-.13.47-.25.94-.37,1.41-.16.65-.33,1.29-.51,1.93a.4.4,0,0,0,.29.49l.1,0a.41.41,0,0,0,.39-.29Zm18-48.92,0,0,0,0Zm3.41-3.58.09-.07-.09.07Z"/><path class="cls-2" d="M846.55,284.48c.52-.54,1.1-1,1.65-1.52s1-.85,1.48-1.24.73-.56,1.11-.82l1.24-.83.54-.38.67-.42c.44-.26.86-.53,1.28-.83s.77-.51,1.16-.76l1.21-.81.66-.42.69-.41c.44-.27.88-.55,1.33-.81.8-.47,1.61-.92,2.4-1.42l1.25-.8c.43-.28.85-.59,1.27-.87l1.22-.83c.42-.3.85-.58,1.27-.86l1.26-.81,1.35-.86c.46-.29.92-.56,1.37-.85s.85-.58,1.27-.89.86-.58,1.28-.88.85-.57,1.26-.86l1.24-.82,1.28-.85c.45-.29.9-.58,1.36-.86l1.34-.85c.44-.28.89-.56,1.32-.85s.89-.59,1.33-.9.85-.63,1.26-.95.86-.66,1.27-1c.8-.66,1.55-1.36,2.3-2.09s1.5-1.44,2.25-2.16c.45-.44.89-.87,1.3-1.34l.61-.68c.21-.24.41-.49.61-.74.37-.47.73-1,1.1-1.44s.7-1,1.06-1.43l0,.06a36.77,36.77,0,0,0,2.28-3.13,15.71,15.71,0,0,0,.85-1.56c.27-.55.49-1.14.73-1.71a.5.5,0,0,1-.05.13,25.93,25.93,0,0,0,1-2.66c.14-.45.26-.9.38-1.34s.3-1,.46-1.49a.56.56,0,0,0-1.07-.3c-.18.6-.37,1.19-.52,1.79s-.27,1-.43,1.53-.36,1-.55,1.52-.37,1-.57,1.44a19.46,19.46,0,0,1-1.15,2.28c-.25.41-.54.8-.81,1.2s-.51.7-.78,1l0,0-.66.85-.59.81-1.14,1.53c-.26.34-.52.68-.8,1s-.63.71-1,1.06-.62.62-.94.93l-1.1,1.06c-.66.62-1.31,1.26-2,1.87-.31.29-.61.58-.94.86l-1.13.92c-.81.62-1.63,1.23-2.49,1.78l-1.33.85-1.32.82c-.43.28-.88.53-1.33.81s-.91.57-1.36.87c-.84.56-1.69,1.11-2.53,1.68l-1.29.87c-.42.28-.83.58-1.25.87s-.89.59-1.34.87-.92.57-1.38.86l-2.56,1.6c-.43.27-.85.56-1.28.84s-.8.52-1.2.8c-.8.56-1.66,1.06-2.5,1.56-.4.23-.81.45-1.22.66l-1.32.72c-.46.25-.91.52-1.36.79l-.67.4-.65.43-1.21.77c-.4.25-.8.53-1.2.79s-.65.39-1,.59-.61.41-.91.63c-.66.47-1.32.92-2,1.42s-1.21,1-1.8,1.51a19.22,19.22,0,0,0-1.78,1.83.59.59,0,0,0-.17.42.61.61,0,0,0,.17.42.61.61,0,0,0,.43.17.54.54,0,0,0,.41-.17Zm47.87-36.18,0,0,0,0Z"/><path class="cls-2" d="M860.16,259.91c.12-.23.24-.47.35-.71s.18-.41.27-.62c.2-.41.37-.83.54-1.25a.3.3,0,0,1,0,.1l.27-.63a.36.36,0,0,0,0,.09l.75-1.74a.36.36,0,0,0,0,.09l.4-.92,0,.09.21-.47h0l.26-.6a.36.36,0,0,0,0,.09c.2-.45.4-.91.62-1.36s.47-.91.71-1.37l.69-1.29c.22-.41.42-.84.63-1.25.47-.95.93-1.91,1.4-2.87.21-.41.42-.82.65-1.23s.5-.84.74-1.26.53-.92.8-1.38.53-.94.81-1.41c.53-.89,1.08-1.78,1.67-2.63a3.71,3.71,0,0,1,.23-.32.83.83,0,0,1,.11-.15l.12-.16c.15-.18.32-.34.48-.5.69-.69,1.39-1.39,2-2.14.44-.51.87-1,1.31-1.55.23-.27.48-.53.74-.78s.51-.47.78-.69a5.72,5.72,0,0,1,.48-.32c.22-.12.44-.23.67-.33a7.13,7.13,0,0,1,1-.32l1.29-.3a.41.41,0,0,0,.28-.49.4.4,0,0,0-.49-.28,10.58,10.58,0,0,0-3,1,5.27,5.27,0,0,0-.59.37c-.2.15-.4.32-.59.48a14.4,14.4,0,0,0-1.1,1.11l-.47.55-.48.59c-.29.35-.59.69-.89,1s-.71.75-1.07,1.11a13,13,0,0,0-1,1l-.12.14,0,0c-.28.36-.52.73-.77,1.1s-.57.89-.85,1.34-.56.91-.82,1.37-.53.94-.81,1.4-.51.91-.78,1.36-.48.82-.7,1.24c-.47.88-.89,1.79-1.33,2.68-.51,1.06-1,2.11-1.59,3.14-.29.54-.58,1.07-.85,1.62s-.52,1.12-.76,1.69a1,1,0,0,1,0-.1c-.08.19-.17.38-.25.58a.42.42,0,0,0,0-.1l-.22.54h0c-.13.3-.26.59-.38.89l0,0c-.25.58-.5,1.16-.74,1.74a.42.42,0,0,1,0-.1l-.27.64a.3.3,0,0,1,0-.1c-.15.34-.3.69-.46,1-.07.15-.14.31-.2.47s-.23.48-.35.71a.41.41,0,0,0,.15.55.46.46,0,0,0,.2.05.37.37,0,0,0,.34-.2Zm1.57-5.53s0,0,0,0l0,0Zm1.06-.47,0-.06,0,.06Zm15.79-23.43.06,0-.06,0Z"/><path class="cls-2" d="M883.53,248.92a24.12,24.12,0,0,0,3.34-4.88,45.56,45.56,0,0,0,2.3-5.61.73.73,0,0,0-1.4-.38c-.56,1.63-1.18,3.25-1.84,4.85l0,0c-.2.44-.39.88-.6,1.31s-.51,1-.78,1.47a30.79,30.79,0,0,1-1.79,2.7.47.47,0,0,0,.07.58.51.51,0,0,0,.36.14.4.4,0,0,0,.32-.14Z"/><path class="cls-2" d="M868.86,262.71l.57-.51.48-.41.45-.35-.08.06.57-.39c.21-.15.4-.3.59-.45l0,0,1.05-.83c.36-.28.69-.6,1-.91.73-.66,1.44-1.34,2.14-2l.43-.43.62-.55c.36-.32.74-.62,1.1-.93l1.1-.93c.45-.37.89-.75,1.33-1.13a.41.41,0,0,0-.28-.69.42.42,0,0,0-.28.12l-2.26,1.91c-.71.61-1.45,1.2-2.12,1.86S874,257.4,873.34,258l-1,.92c-.33.29-.67.55-1,.82l0,0-.64.5.07-.06c-.2.16-.41.3-.62.45s-.41.29-.61.45h0l-.56.44-.31.3-.39.35a.4.4,0,0,0,0,.56.39.39,0,0,0,.28.12.38.38,0,0,0,.28-.12Zm1.07-.94.06,0-.06,0Zm-.37-.72.07,0-.07,0Z"/><path class="cls-2" d="M862.42,267.89c.18-.12.37-.23.55-.36l.4-.29c.3-.2.58-.42.88-.62.69-.49,1.41-.95,2.12-1.42a.72.72,0,0,0,.25-1,.71.71,0,0,0-1-.25c-1.2.79-2.41,1.58-3.55,2.45l0,0c-.19.14-.37.27-.55.42a.67.67,0,0,0-.1.82.69.69,0,0,0,.6.34.55.55,0,0,0,.32-.1Z"/><path class="cls-2" d="M935.85,135.43a17,17,0,0,0,1.31-1.24l.48-.51.63-.61,2.12-2.06c.75-.72,1.5-1.45,2.27-2.15.4-.36.8-.73,1.21-1.08l.53-.45c.21-.17.41-.35.63-.52s.75-.6,1.13-.9.85-.68,1.26-1c.8-.65,1.59-1.3,2.37-2s1.5-1.31,2.25-2,1.54-1.36,2.34-2l.92-.66.94-.7c.73-.54,1.44-1.09,2.16-1.65a.44.44,0,0,0,.11-.29.43.43,0,0,0-.11-.28.4.4,0,0,0-.57,0l-1,.81h0c-.79.6-1.58,1.19-2.39,1.77-.44.31-.85.64-1.27,1s-.79.66-1.17,1c-.81.71-1.59,1.43-2.4,2.12s-1.66,1.4-2.5,2.09l-2.51,2c-.2.15-.37.31-.56.46s-.41.35-.62.52c-.4.33-.77.69-1.15,1-.78.71-1.53,1.44-2.3,2.17l-2.17,2.11c-.18.18-.37.35-.55.54s-.38.38-.56.58q-.64.67-1.35,1.29a.39.39,0,0,0,0,.56.36.36,0,0,0,.27.11.46.46,0,0,0,.29-.11Zm21-19.27,0,0,0,0Z"/><path class="cls-2" d="M885.6,209.18c.21-.41.43-.81.66-1.21s.48-.9.7-1.36.41-.86.61-1.29.44-.91.66-1.37l.69-1.39c.24-.47.51-.92.74-1.39.41-.81.83-1.61,1.25-2.42.25-.47.51-.93.77-1.4s.47-.84.69-1.27.45-.83.68-1.25.46-.84.7-1.26c.5-.87,1-1.74,1.44-2.64.23-.46.45-.94.69-1.41s.47-.89.71-1.33.51-.9.77-1.35.5-.86.77-1.28.61-.92.92-1.38.56-.81.85-1.22.61-.89.9-1.35.52-.86.79-1.27c.58-.9,1.12-1.81,1.71-2.7.29-.46.59-.92.89-1.38l.38-.61L905,175l.42-.65c.15-.22.3-.43.45-.66.27-.42.55-.83.84-1.24.62-.85,1.23-1.72,1.84-2.58l1-1.45.84-1.26.83-1.24c.27-.41.56-.82.84-1.22s.63-.9,1-1.34.6-.8.88-1.21.63-.92,1-1.38l.84-1.26c.56-.88,1.14-1.73,1.76-2.57l1.18-1.62c.38-.52.75-1.05,1.14-1.57.84-1.09,1.64-2.19,2.47-3.29l0,.06c.44-.57.89-1.13,1.34-1.68s1-1.19,1.46-1.77,1-1.06,1.48-1.57l1.59-1.69a.4.4,0,0,0-.56-.56c-.75.79-1.51,1.59-2.27,2.37-.36.37-.7.75-1,1.15s-.66.81-1,1.21c-.73.89-1.44,1.79-2.14,2.71-.28.37-.56.76-.84,1.14l-1.08,1.43c-.62.82-1.21,1.66-1.82,2.5-.3.41-.61.81-.9,1.22s-.59.85-.88,1.28-.55.87-.84,1.3-.59.86-.88,1.3-.66,1-1,1.41l-.89,1.21c-.6.85-1.2,1.71-1.78,2.58s-1.14,1.72-1.72,2.57l-.87,1.22c-.34.48-.67,1-1,1.43s-.59.82-.87,1.23-.57.84-.85,1.26-.58.9-.87,1.36-.54.87-.81,1.29c-.59.91-1.17,1.81-1.74,2.73-.27.44-.56.88-.84,1.32-.14.22-.27.45-.41.66s-.29.48-.45.72c-.55.83-1.16,1.64-1.71,2.48-.29.44-.58.89-.86,1.34s-.55.91-.81,1.37c-.5.87-1,1.75-1.42,2.66q-.33.69-.69,1.38c-.23.46-.49.91-.73,1.36s-.49.85-.72,1.28l-.7,1.25-.66,1.24c-.24.46-.5.9-.75,1.35-.46.82-.89,1.67-1.32,2.51-.23.44-.44.88-.68,1.31l-.36.67-.38.75c-.23.44-.44.89-.65,1.34s-.42.84-.62,1.26-.27.6-.41.89-.3.62-.47.93c-.29.53-.59,1.06-.87,1.59a.41.41,0,0,0,.14.55.39.39,0,0,0,.21.06.38.38,0,0,0,.34-.2Zm36.66-58.78,0,0,0,0Z"/><path class="cls-2" d="M909.47,225.91a2.12,2.12,0,0,0,.48-.37l.31-.27a2,2,0,0,0,.23-.18,2.83,2.83,0,0,0,.25-.24c.2-.19.37-.4.57-.59a5.24,5.24,0,0,1,.5-.44c.19-.16.39-.32.58-.5.73-.63,1.4-1.33,2.08-2s1.34-1.43,2-2.18c.29-.35.58-.69.88-1l.52-.57c.16-.17.3-.34.45-.51.68-.78,1.37-1.54,2.08-2.28.32-.34.64-.67,1-1s.61-.66.91-1c.67-.74,1.27-1.54,1.94-2.27.34-.37.68-.74,1-1.12s.62-.73.91-1.11.7-.87,1-1.32l.41-.54c.16-.23.32-.44.49-.66.31-.4.6-.81.9-1.21s.58-.79.85-1.2l.83-1.2,1-1.32c.29-.4.61-.8.9-1.21s.63-.89.94-1.34c.58-.86,1.18-1.71,1.77-2.56.29-.41.56-.83.86-1.24l.92-1.3c.61-.86,1.24-1.7,1.86-2.55s1.2-1.75,1.81-2.61c.48-.69,1-1.39,1.46-2.07s1-1.39,1.55-2.07l0,0,1.5-1.91a.45.45,0,0,0,.12-.29.42.42,0,0,0-.12-.28.44.44,0,0,0-.28-.12.38.38,0,0,0-.29.12l-1.12,1.43c-.32.41-.64.82-.94,1.23-.65.86-1.29,1.73-1.9,2.61-.3.43-.6.85-.89,1.28s-.59.85-.88,1.27c-.64.93-1.31,1.83-2,2.73-1.23,1.68-2.4,3.4-3.58,5.1-.6.86-1.17,1.72-1.8,2.56s-1.21,1.64-1.8,2.47c-.28.41-.56.83-.85,1.23s-.53.74-.8,1.11l-.87,1.17c-.3.39-.59.79-.88,1.18-.61.78-1.22,1.57-1.89,2.31l-1,1.07c-.33.37-.65.76-1,1.14-.16.2-.32.4-.49.59l-.5.57c-.3.34-.62.66-.93,1-.67.71-1.36,1.41-2,2.14-.16.18-.33.36-.49.55l-.5.57-1,1.13c-.28.32-.56.65-.83,1s-.66.77-1,1.13-.69.72-1,1.07-.66.68-1,1-.72.68-1.1,1a10.47,10.47,0,0,0-1,1,5.76,5.76,0,0,1-.61.6h0c-.11.09-.23.17-.34.27s-.26.24-.4.35l-.07,0a.39.39,0,0,0-.15.54.4.4,0,0,0,.34.2.42.42,0,0,0,.21-.06Zm-.35-.7v0Zm17.14-18.4v0Zm17.38-22.94,0,.06,0-.06Z"/><path class="cls-2" d="M878.62,211.57a1.12,1.12,0,0,0,.31-.75c.15-1.37.29-2.74.46-4.11a15,15,0,0,1,.41-1.73q.26-.82.57-1.62c0,.1-.09.2-.13.3.39-.93.75-1.86,1-2.82.14-.43.25-.86.4-1.29s.29-.84.44-1.27c.56-1.69,1.07-3.41,1.74-5.06.45-1,1-1.89,1.51-2.86s1-2.07,1.5-3.13c.22-.53.45-1,.68-1.56s.53-1,.8-1.51.54-1,.82-1.47.48-.73.74-1.08c.63-.8,1.28-1.58,1.9-2.38l-.23.3c.4-.5.8-1,1.15-1.52s.67-1.06,1-1.6c.61-1,1.18-2,1.8-3,.31-.48.61-1,.89-1.47s.57-1.06.88-1.58.6-.92.9-1.39.55-.82.85-1.21c.63-.78,1.23-1.59,1.83-2.39.92-1.15,1.88-2.26,2.78-3.43l.28-.36c.71-.88,1.46-1.73,2.17-2.61.42-.51.84-1,1.28-1.52s.82-.91,1.25-1.36q1.35-1.44,2.73-2.88c.48-.49,1-1,1.44-1.48s.85-1,1.26-1.49.86-1,1.32-1.44,1-1.06,1.49-1.59c.83-.88,1.58-1.84,2.39-2.74s1.83-2,2.72-3c.41-.46.8-.95,1.22-1.4s.89-1,1.36-1.41.92-.87,1.37-1.3.87-.88,1.29-1.33c.88-.92,1.77-1.82,2.66-2.73s1.79-1.88,2.77-2.73c.48-.43,1-.86,1.44-1.33s.87-.92,1.31-1.38a45.19,45.19,0,0,1,4-4c.67-.55,1.36-1.1,2-1.7s1.27-1.13,1.93-1.66,1.14-.8,1.71-1.2,1.28-.94,1.9-1.43,1.1-.92,1.65-1.38,1.07-.91,1.63-1.35c1-.73,2.07-1.36,3.14-2s2.11-1.3,3.16-2c.57-.35,1.15-.66,1.7-1s1.13-.78,1.72-1.13,1.17-.69,1.74-1.05,1.13-.8,1.69-1.19c1-.68,2-1.31,3-1.94s2.19-1.24,3.3-1.83,2.27-1.27,3.39-1.93c.56-.32,1.09-.68,1.63-1a11.54,11.54,0,0,1,1.55-.83,15,15,0,0,1,2-.69c.86-.22,1.75-.34,2.62-.48a1.11,1.11,0,0,0,.72-.55,1.21,1.21,0,0,0-.43-1.65,1.35,1.35,0,0,0-.93-.12c-.71.12-1.43.21-2.14.37s-1.29.31-1.92.51a18,18,0,0,0-1.91.68c-.58.26-1.14.56-1.69.87-1.12.64-2.26,1.24-3.39,1.84s-2.32,1.2-3.49,1.77-2,1.18-3,1.79-2.23,1.49-3.39,2.15c-.59.34-1.19.67-1.76,1s-1,.75-1.58,1.1c-1.07.7-2.15,1.38-3.23,2.07-.74.49-1.5,1-2.23,1.45-.4.28-.8.54-1.19.83s-.94.74-1.4,1.12c-.78.65-1.52,1.34-2.25,2s-1.4,1.2-2.12,1.77c-1,.76-2,1.47-3,2.3-.45.37-.87.78-1.31,1.17s-.9.76-1.35,1.13-1,.81-1.42,1.24-.9.9-1.34,1.36c-.89.92-1.74,1.88-2.61,2.81s-1.92,1.81-2.82,2.77L927,132.76c-.85.91-1.7,1.84-2.6,2.7s-1.87,1.75-2.77,2.66-1.75,1.9-2.69,2.79-1.88,1.8-2.76,2.76-1.76,1.85-2.65,2.76c-.47.47-1,.92-1.39,1.43s-.82,1-1.24,1.48c-.79.94-1.65,1.83-2.48,2.73s-1.67,1.73-2.47,2.62c-.41.44-.83.88-1.21,1.35s-.75.93-1.15,1.38c-.78.91-1.56,1.82-2.29,2.78l0-.07-.48.63c-.59.74-1.2,1.47-1.79,2.22s-1.24,1.69-1.87,2.52l0-.06-.07.08-.12.16h0l.08-.1-.13.17c-.69.88-1.33,1.81-1.95,2.74s-1.21,2-1.84,3-1.22,1.94-1.81,2.92-1.16,1.93-1.83,2.83c-.5.64-1,1.29-1.44,1.94a18.51,18.51,0,0,0-1.44,2.06c-.47.82-.89,1.67-1.32,2.52s-.75,1.67-1.1,2.52c-.51,1.15-1.11,2.27-1.73,3.37-.31.56-.63,1.11-.92,1.68a16.26,16.26,0,0,0-.83,2c-.44,1.21-.84,2.41-1.18,3.65-.17.58-.35,1.15-.54,1.73s-.34,1.18-.5,1.78-.43,1.48-.67,2.21-.39,1.48-.56,2.22a20,20,0,0,0-.33,2.79c-.09,1-.17,2.08-.25,3.12a1.07,1.07,0,0,0,1.06,1.06,1.08,1.08,0,0,0,.76-.31Zm5.59-25a1.22,1.22,0,0,0,.07-.17l-.07.17Zm12.86-20.81,0,0h0l0,0Zm6.36-3.53.07-.09-.07.09ZM900.74,161l.09-.11-.09.11Zm.82-1.06-.18.23.18-.23Zm-4.34,5.62,0,0-.07.09.05-.07ZM887,187l-.11.25c0-.08.07-.16.11-.25Zm-.11.25v0l0,.06,0-.08Z"/><path class="cls-2" d="M917.23,227.68c.65-.56,1.29-1.11,1.93-1.68a13.93,13.93,0,0,0,1.39-1.38c.85-1,1.72-1.92,2.6-2.86s1.57-1.82,2.36-2.72c.44-.49.89-1,1.3-1.48s.83-1,1.26-1.5c.56-.65,1.1-1.32,1.66-2s1.06-1.38,1.59-2.07l.41-.54c.34-.41.72-.78,1.09-1.17s.87-.91,1.27-1.39c.8-1,1.55-2,2.38-2.91a16.81,16.81,0,0,0,1.38-1.77c.36-.52.7-1.05,1-1.59s.7-1,1.06-1.49.67-1,1-1.46.71-1.07,1.08-1.59.74-1.05,1.05-1.61.66-1.21,1-1.8.69-1,1-1.5.71-1,1.07-1.54.77-1,1.12-1.6.61-1,.92-1.51.65-1,1-1.54l.17-.23.41-.52,0,0,.08-.1L950,186l0,.05c.78-1,1.5-2.08,2.2-3.14.32-.49.65-1,1-1.45s.68-1.11,1-1.66.73-1,1.08-1.56.7-1.1,1-1.66c.64-1,1.18-2.08,1.78-3.12s1.38-2.19,2-3.32,1.25-2.25,1.83-3.4a36.59,36.59,0,0,0,1.43-3.41c.26-.62.52-1.25.76-1.88s.4-1.23.63-1.84c0-.14.11-.29.16-.44.33-.75.69-1.49,1-2.24.43-1,.84-2,1.26-3.05l-.12.31c.28-.67.61-1.32.91-2a23.86,23.86,0,0,0,.88-2.31c.45-1.32.9-2.62,1.43-3.91a33.83,33.83,0,0,0,1.26-3.54c.35-1.18.62-2.38,1-3.56s.9-2.51,1.3-3.78c.17-.53.32-1.07.48-1.6s.36-1.22.55-1.83c.4-1.27.87-2.52,1.26-3.79s.71-2.48,1-3.73.73-2.59,1-3.9.51-2.46.75-3.7.41-2.57.7-3.84.55-2.35.9-3.51.75-2.36,1-3.56c.15-.67.26-1.35.35-2a16.45,16.45,0,0,0,.14-1.85,10.73,10.73,0,0,0-.23-2.4,11.19,11.19,0,0,0-1-2.44,1.05,1.05,0,0,0-1.43-.38A1.07,1.07,0,0,0,979,98c.17.35.33.69.49,1a5.82,5.82,0,0,1,.3,1.16,16.66,16.66,0,0,1,0,3.53c0,.1,0,.2,0,.3l0-.16a35.16,35.16,0,0,1-.77,3.64c-.29,1.15-.54,2.31-.77,3.48-.13.62-.25,1.25-.37,1.88s-.2,1.27-.29,1.91c-.18,1.23-.41,2.46-.65,3.68s-.63,2.66-1,4-.67,2.49-1,3.73c-.19.64-.4,1.28-.62,1.92s-.48,1.24-.71,1.86c-.45,1.2-.83,2.41-1.24,3.61-.29.84-.58,1.68-.91,2.52s-.78,1.94-1.09,2.94-.51,1.77-.79,2.66-.64,1.82-1,2.71-.93,2-1.32,3-.8,2.11-1.22,3.17c-.38.87-.84,1.71-1.24,2.58s-.84,1.92-1.28,2.88-.95,1.95-1.34,3c-.18.47-.35.95-.51,1.43s-.33.86-.5,1.28c-.35.81-.66,1.64-1,2.46a35.73,35.73,0,0,1-1.64,3.2c-.3.53-.58,1.08-.89,1.61s-.66,1.13-1,1.7-.66,1.11-1,1.68-.57,1.06-.86,1.59c-.61,1.09-1.26,2.16-2,3.2-.41.61-.85,1.2-1.23,1.83s-.78,1.34-1.2,2c-.84,1.27-1.66,2.55-2.57,3.77a23.82,23.82,0,0,0-2.06,3.1c-.3.52-.57,1.06-.86,1.59s-.69,1.13-1,1.7c-.64,1-1.36,2.06-1.94,3.15a19.25,19.25,0,0,1-1,1.78c-.35.53-.71,1-1.06,1.57-.68,1-1.31,2-2,3s-1.32,2-2,3c-.48.57-1,1.1-1.48,1.67s-1,1.22-1.5,1.82-1,1.13-1.51,1.67l-.75.76a9.4,9.4,0,0,0-.79,1,1.13,1.13,0,0,0,.1-.13c-.47.6-.89,1.23-1.35,1.84-.29.37-.6.73-.88,1.11l-.83,1.15-1.35,1.73c-.33.43-.7.83-1.06,1.23l-1,1.16c-.33.37-.65.76-1,1.13s-.76.81-1.14,1.21-.83.91-1.24,1.36-.69.84-1,1.23a38.93,38.93,0,0,1-3,2.77,1,1,0,0,0,0,1.34.9.9,0,0,0,.64.27,1.09,1.09,0,0,0,.69-.27Zm14-15.51,0-.06,0,.06Zm-1.52-1.62-.07.09.07-.09Z"/><path d="M1872.27,12.9c-11.76-1.29-21.31,1.47-25.35,8.26s-12.49,18.92-8.08,26.45S1852.24,66,1864,66.16s21.86-6.24,26.27-16,5.87-20,.36-27.91S1872.27,12.9,1872.27,12.9Z"/><path class="cls-2" d="M1870.61,67.26a15.49,15.49,0,0,0,3-.58c.82-.23,1.63-.55,2.44-.84s1.75-.71,2.6-1.1a17.64,17.64,0,0,0,4.29-3.1,32.57,32.57,0,0,0,3.47-3.48,33.8,33.8,0,0,0,3.1-4.49c.88-1.52,1.64-3.1,2.37-4.69a39.15,39.15,0,0,0,2.09-5.32,37.81,37.81,0,0,0,1.12-4.93,24.41,24.41,0,0,0,.12-5.73,28.4,28.4,0,0,0-.44-2.89,13.81,13.81,0,0,0-.75-2.5,25.62,25.62,0,0,0-1.23-2.53c-.4-.71-.78-1.44-1.22-2.14a22.89,22.89,0,0,0-3.36-4.34,40.65,40.65,0,0,0-3.78-3.27,28.75,28.75,0,0,0-2.35-1.76c-.77-.48-1.54-.94-2.33-1.38a3.07,3.07,0,0,1-.31-.17,25.68,25.68,0,0,0-2.77-.75c-2.07-.19-4.16-.19-6.23-.19h-1.6a48.09,48.09,0,0,0-6.47.24h0a37.43,37.43,0,0,0-3.88,1,34.67,34.67,0,0,0-3.86,1.37c-1,.79-2,1.58-3,2.39-1.55,1.27-3.05,2.61-4.49,4-1.11,1.07-2.11,2.26-3.27,3.28-.16.14-.31.27-.48.4l-.63,1.07c-.44.79-.9,1.57-1.33,2.36s-.88,1.64-1.28,2.48-.68,1.61-1,2.42a23.16,23.16,0,0,0-.86,2.55c-.21.79-.4,1.61-.57,2.41s-.35,1.78-.48,2.67a15.27,15.27,0,0,0-.17,2.78,18.32,18.32,0,0,0,1.07,5.13,25.25,25.25,0,0,0,2.32,4.9,25.62,25.62,0,0,0,1.53,2.17c.59.78,1.16,1.57,1.78,2.34a23.17,23.17,0,0,0,1.89,1.95c.63.6,1.27,1.2,1.94,1.77a22.51,22.51,0,0,0,4.54,3.1c.85.4,1.74.72,2.62,1s1.67.55,2.52.78,1.68.47,2.53.68a24.37,24.37,0,0,0,2.81.52c1.78.21,3.57.31,5.35.39.48,0,1,0,1.43,0s.8,0,1.21,0Zm5.07-4.34a22.7,22.7,0,0,1-5,1.5,38.17,38.17,0,0,1-4.41,0c-1.43-.07-2.84-.16-4.25-.34s-3-.67-4.47-1a34.09,34.09,0,0,1-4.17-1.3,16.45,16.45,0,0,1-1.68-.84A18.73,18.73,0,0,1,1850,59.7c-.85-.67-1.65-1.37-2.44-2.12a26,26,0,0,1-2.41-2.51L1844,53.48c-.44-.59-.9-1.17-1.29-1.79a28.17,28.17,0,0,1-2-3.81,20.66,20.66,0,0,1-1.24-4.34,12.4,12.4,0,0,1-.08-1.61,16.21,16.21,0,0,1,.13-1.7c.24-1.48.57-2.93.94-4.38a18.81,18.81,0,0,1,.68-2.21c.26-.66.54-1.32.82-2h0a47.06,47.06,0,0,1,2.22-4.22,41.89,41.89,0,0,1,2.45-3.86,20.4,20.4,0,0,1,1.56-1.79c.49-.48,1-.93,1.51-1.37a17,17,0,0,1,3.13-2.48l.72-.4a15.52,15.52,0,0,1,4.66-2.61,14.31,14.31,0,0,1,2.56-.64l.19,0c1.32-.35,2.65-.62,4-.84a17.23,17.23,0,0,1,2.59-.05c1,.05,2.06.11,3.09.22a17.39,17.39,0,0,1,2.45.57c.45.13.89.32,1.32.48s.78.29,1.17.45l1.11.47c1.16.53,2.3,1.13,3.41,1.76a16.29,16.29,0,0,1,1.5,1c.48.33,1,.68,1.42,1l.69.53c.68.55,1.34,1.11,2,1.7a19.88,19.88,0,0,1,1.64,1.79c.7.95,1.35,1.93,2,2.94s1.17,1.87,1.66,2.86a20.83,20.83,0,0,1,1,4.05c.11,1,.17,1.91.2,2.87a19.56,19.56,0,0,1-.15,2.76c-.21,1.35-.51,2.68-.84,4-.14.54-.3,1.08-.47,1.61a4.15,4.15,0,0,1-.26,1.22,10.58,10.58,0,0,1-.86,2l-.38.52c-.46,1-.94,2-1.44,2.92a31,31,0,0,1-2.56,4,31.9,31.9,0,0,1-2.77,3q-1.55,1.48-3.21,2.84a7.12,7.12,0,0,1-.89.63,15.17,15.17,0,0,1-1.5.77l0,0-1.15.5Zm-5.28,1.54.19,0-.19,0Zm14.76-9.32.17-.22a1.84,1.84,0,0,1-.17.22Z"/><path class="cls-2" d="M1918.46,30a10.84,10.84,0,0,0,1.76-.54,11.14,11.14,0,0,0,2-1,13.49,13.49,0,0,0,2-1.42,12.5,12.5,0,0,0,1.52-1.65,10,10,0,0,0,1.16-1.8,7.33,7.33,0,0,0,.6-1.93c.1-.55.22-1.1.34-1.64a16.72,16.72,0,0,0,.3-1.72c.09-.57.21-1.13.34-1.69a7.63,7.63,0,0,0,.22-2,11.18,11.18,0,0,0-.27-2.07,9.58,9.58,0,0,0-.51-1.54,9,9,0,0,0-.38-.84,5.58,5.58,0,0,0-.55-.73,9.49,9.49,0,0,0-.82-.86,20.88,20.88,0,0,0-1.56-1.41c-.34-.27-.68-.52-1-.75a7.21,7.21,0,0,0-1.22-.59,6.74,6.74,0,0,0-1.65-.46,10.73,10.73,0,0,0-1.38-.13,9,9,0,0,0-1.15.07c-.75.07-1.48.23-2.22.35a22.26,22.26,0,0,0-2.56.28,5.34,5.34,0,0,0-1.52.64c-.57.31-1.09.72-1.63,1.07a1.51,1.51,0,0,0-.62.82l-.1.09a11.11,11.11,0,0,0-1.38,1.68,18.67,18.67,0,0,0-1,1.6,17.33,17.33,0,0,0-1,1.92,11.7,11.7,0,0,0-.51,1.75,14.05,14.05,0,0,0-.28,2.15,13.61,13.61,0,0,0,.27,4.27,15.33,15.33,0,0,0,1,2.52,10,10,0,0,0,.86,1.73A12.54,12.54,0,0,0,1909,28a6.34,6.34,0,0,0,2.4,1.32,9.87,9.87,0,0,0,2.08.58,21.21,21.21,0,0,0,2.65.24h.25a12.12,12.12,0,0,0,2.08-.21Z"/><path d="M1913.92,26.87a11.18,11.18,0,0,1-2.32-.67,3.62,3.62,0,0,1-.43-.24,10,10,0,0,1-1.16-1.27,7.22,7.22,0,0,1-.73-1.3l-.44-1a10.94,10.94,0,0,1-.6-2.12,18.82,18.82,0,0,1,0-4c.06-.35.14-.69.22-1a10.58,10.58,0,0,1,.35-1.22c0,.11-.09.21-.13.32l.27-.63h0c.28-.62.56-1.25.9-1.84a14.06,14.06,0,0,1,1-1.54,1.7,1.7,0,0,1,.22-.24,1.82,1.82,0,0,0,.5-.16l1.15-.61a10.68,10.68,0,0,1,1.64-.5c.49,0,1,0,1.48-.07.65,0,1.28-.13,1.92-.22a8.18,8.18,0,0,1,1.64,0,7.06,7.06,0,0,1,.91.21,8.65,8.65,0,0,1,1,.35,10.13,10.13,0,0,1,1.52.9c.63.43,1.28.84,1.91,1.29.15.14.31.28.45.43a7.84,7.84,0,0,1,.49.9,9.51,9.51,0,0,1,.49,1.79,7.62,7.62,0,0,1,0,1.17c-.07.4-.17.8-.24,1.2s-.15,1-.21,1.55-.24,1-.37,1.55a13,13,0,0,1-.5,1.61,9.39,9.39,0,0,1-.93,1.63,12.45,12.45,0,0,1-1.83,1.87,10.94,10.94,0,0,1-1.3.82c-.39.22-.79.44-1.19.64a10.26,10.26,0,0,1-1.72.5,20,20,0,0,1-3.94-.07Z"/><path class="cls-2" d="M1921.89,25.12l.16-.12-.16.12Z"/><path class="cls-2" d="M1906.63,24.62a.42.42,0,0,1,0-.1l0,.1Z"/><path class="cls-2" d="M1925.81,25.15a.64.64,0,0,0-.1.13,1.47,1.47,0,0,1,.1-.13Z"/><path class="cls-2" d="M1925.71,25.28l0,.06-.07.09.12-.15Z"/><path d="M0,0V275c9.94,2.64,43.51,9.55,87.82-3,53.14-15,102.51-55.89,123.3-110.85C231.28,107.87,239.28,30.77,216.34,0Z"/><path class="cls-2" d="M45.76,281.51c1.48-.1,3-.17,4.44-.3,3-.26,6-.65,9.07-1.06,1.63-.22,3.26-.47,4.88-.71s3.39-.44,5.06-.75S72.4,278,74,277.8s3.19-.44,4.78-.73,3.2-.52,4.8-.78,3-.5,4.46-.8,2.76-.62,4.14-.92c2.88-.64,5.72-1.45,8.57-2.23a80.59,80.59,0,0,0,9.38-3c2.78-1.14,5.56-2.24,8.3-3.47s5.4-2.53,8-3.94c2.91-1.57,5.76-3.23,8.66-4.82a92.74,92.74,0,0,0,8.15-4.82c2.67-1.83,5.3-3.69,7.81-5.76s4.76-4.13,7.1-6.24,4.71-4.2,7.1-6.28c1.14-1,2.23-2.09,3.3-3.17s2.16-2.15,3.23-3.23c1.93-2,3.86-3.91,5.78-5.88,2.12-2.19,4-4.56,5.91-6.92,2.09-2.56,4.22-5.1,6.1-7.83,1.68-2.43,3.31-4.9,4.86-7.42.87-1.39,1.73-2.78,2.56-4.2s1.73-2.75,2.58-4.13c1.56-2.53,2.95-5.15,4.34-7.78s2.64-5.06,3.9-7.63c1.36-2.78,2.8-5.52,4.15-8.3.74-1.5,1.43-3,2.08-4.57v0l.1-.24,0,.07.06-.12.69-1.63c-.07.15-.13.3-.2.46l.94-2.23-.07.16.07-.16c.54-1.32,1.05-2.63,1.53-4s1-2.8,1.47-4.21,1-2.9,1.39-4.36.82-3.16,1.22-4.73c.77-3,1.53-6,2.19-9.08.7-3.24,1.34-6.5,2-9.76.76-3.77,1.31-7.59,1.8-11.41.42-2.85.86-5.7,1.29-8.56.23-1.54.51-3.08.75-4.62s.45-3.37.67-5.06c.44-3.07.87-6.14,1.38-9.19.58-3.36,1-6.76,1.43-10.15.34-3,.48-6,.61-9.07.06-1.61.11-3.22.09-4.83s-.13-3.17-.2-4.74-.27-3.3-.44-5-.49-3.33-.73-5c-.43-3.56-1-7.12-1.66-10.65-.33-1.68-.73-3.33-1.17-5a51.07,51.07,0,0,1-1.14-5c-.23-1.69-.49-3.39-.83-5.07-.16-.76-.37-1.52-.52-2.28s-.27-1.59-.44-2.37A38.26,38.26,0,0,0,225,10.67c-.48-1.42-1.08-2.8-1.68-4.17-.43-1.07-.86-2.13-1.37-3.15s-.87-1.77-1.27-2.66l.15.36-.34-.78q-4.11.41-8.24.75c.14.27.27.53.4.8a58.49,58.49,0,0,0,2.79,5.81c.52,1,.92,2,1.41,2.91.36.7.68,1.42,1,2.13a28.72,28.72,0,0,1,1.21,3.6c.34,1.4.59,2.82,1,4.22s.68,3,1,4.48c.16.77.24,1.56.37,2.33a22,22,0,0,0,.57,2.4c.2.7.35,1.41.54,2.12s.47,1.68.66,2.54c.3,1.39.6,2.78.86,4.19.13.72.29,1.43.44,2.14s.28,1.61.42,2.41c.28,1.6.48,3.2.78,4.8.2,1,.42,2,.56,3.06l.39,2.75a94.93,94.93,0,0,1-.41,22.66c-.18,1.34-.38,2.68-.57,4-.5,3.54-1.09,7-1.55,10.59v-.09c-.23,1.78-.44,3.56-.67,5.34-.23,1.61-.53,3.2-.76,4.81-.28,1.95-.59,3.88-.85,5.83,0-.12,0-.25.05-.37l-.09.67-.09.69c0-.13,0-.27.05-.4,0,.13,0,.27-.05.4-.23,1.66-.47,3.32-.69,5-.46,3.09-.92,6.19-1.52,9.27-.66,3.33-1.27,6.67-2,10-.64,3-1.41,6.08-2.17,9.11-.39,1.57-.77,3.14-1.21,4.69s-.92,2.89-1.4,4.32c-.61,1.8-1.2,3.61-1.86,5.39s-1.49,3.69-2.25,5.53c-1.25,2.88-2.73,5.64-4.16,8.44-1.3,2.59-2.6,5.18-3.93,7.75s-2.66,5-4,7.51c-1.54,2.83-3.37,5.49-5,8.27-1.25,2.15-2.6,4.24-4,6.31s-2.77,4.09-4.26,6l-1.09,1.42.47-.61c-1,1.22-2,2.4-3,3.61s-1.9,2.37-2.87,3.53c-1.86,2.21-3.86,4.28-5.91,6.31s-4,4-6.09,6c-1.15,1.09-2.28,2.18-3.45,3.24s-2.45,2-3.67,3.08c-4.16,3.57-8.28,7.18-12.55,10.62-2.14,1.61-4.38,3.1-6.62,4.55-2.76,1.79-5.7,3.26-8.53,4.92a180,180,0,0,1-16.32,8.6c-2.1,1-4.23,1.84-6.34,2.77a84.87,84.87,0,0,1-8.79,3c-2.89.82-5.75,1.75-8.66,2.5-1.38.35-2.75.72-4.14,1s-3,.61-4.5.88-3.18.57-4.77.91-2.91.49-4.37.72-2.8.57-4.2.84-2.88.51-4.33.71-2.79.49-4.19.68-2.8.4-4.2.61c-3,.37-5.92.66-8.89.91-1.58.13-3.16.27-4.75.3s-2.92,0-4.38,0c-3.12,0-6.24.05-9.35,0s-6.52,0-9.76-.24c-.82-.06-1.64-.14-2.46-.23-1.93-.29-3.83-.72-5.75-1.06-2.2-.39-4.4-.76-6.62-1-.71-.11-1.4-.24-2.09-.4l.12,2.58c0,.7.05,1.4.07,2.11.69.11,1.4.19,2.09.27,1.52.22,3,.46,4.55.76l4.86,1a65.47,65.47,0,0,0,9.77,1c6.29.25,12.58.23,18.87.31H42c1.28,0,2.54-.07,3.81-.16ZM220.92,113.62c0-.11,0-.23.05-.34,0,.11,0,.23-.05.34Zm2.46-16.82c0-.1,0-.19,0-.28,0,.09,0,.18,0,.28Zm2.92-20.87a2.91,2.91,0,0,0,0-.31,2.91,2.91,0,0,1,0,.31Z"/><path class="cls-2" d="M13.86,240.63c2.27-.24,4.51-.61,6.74-1.07s4.48-1.05,6.7-1.62c2.07-.54,4.17-1,6.26-1.4,1.1-.23,2.18-.51,3.27-.78s2.39-.56,3.59-.86c2.15-.56,4.3-1.12,6.46-1.64s4.55-.7,6.81-1.16S57.88,231,60,230.43l3.37-1a24.06,24.06,0,0,1,3.13-.62h-.14l.15,0h0a34.31,34.31,0,0,0,6.36-1.2c2.21-.69,4.37-1.54,6.52-2.41s4.23-1.72,6.38-2.5,4.22-1.62,6.32-2.45c1.65-.65,3.27-1.38,4.9-2.08,2.07-.85,4.15-1.68,6.29-2.33s4.1-1.5,6.14-2.28,4.26-1.55,6.44-2.18c1-.29,2-.53,3-.86s2.1-.77,3.17-1.12c2.05-.69,4.11-1.4,6.14-2.18a53.06,53.06,0,0,0,5.91-2.78c2-1.06,4.11-2.06,6.11-3.18s3.82-2.18,5.71-3.29l4.19-2.47A40.34,40.34,0,0,0,154,193c1.35-1,2.62-2.09,3.88-3.2s2.35-2,3.55-3c1-.75,2.1-1.38,3.17-2.06,1.37-.87,2.74-1.77,4.08-2.7,2.64-1.83,5.19-3.81,7.72-5.77l4.45-3.45c1.77-1.34,3.58-2.62,5.35-4s3.56-2.87,5.25-4.41a54.35,54.35,0,0,0,4.62-5c.69-.8,1.37-1.62,2.08-2.42l2.14-2.43c1.58-1.77,3.16-3.54,4.69-5.36s3-3.94,4.54-5.93a50.8,50.8,0,0,0,3.54-5.37,99,99,0,0,0,5.9-13.07c.37-1,.75-1.89,1.13-2.82.93-2.1,2-4.12,3.13-6.11,1.26-2.27,2.59-4.48,3.93-6.69a2.53,2.53,0,1,0-4.37-2.56c-1.72,2.82-3.42,5.64-5,8.5-.76,1.34-1.53,2.68-2.19,4.06-.77,1.62-1.47,3.29-2.15,5a2.88,2.88,0,0,0-.13.31l.06-.15A61.55,61.55,0,0,1,206.15,137c-2.62,3.33-5.31,6.59-8.21,9.67-1.57,1.68-3.18,3.32-4.72,5s-2.91,3.44-4.38,5.15c-.73.85-1.45,1.68-2.22,2.48s-1.49,1.55-2.25,2.3c-1.6,1.6-3.28,3.11-5,4.63-.74.66-1.44,1.39-2.15,2.09s-1.56,1.48-2.37,2.2c-1.75,1.56-3.5,3.13-5.3,4.64s-3.41,2.88-5.17,4.26c-1.25.94-2.52,1.84-3.74,2.8-.52.4-1,.8-1.52,1.25s-1.09,1-1.64,1.56c-1,1-2,2-3,3s-2.23,2-3.41,3c-1.73,1.31-3.53,2.52-5.32,3.74s-3.72,2.5-5.61,3.69-3.82,2.34-5.77,3.44l-2.94,1.67c-.94.54-1.91,1-2.88,1.51-.28.14-.58.27-.87.4h0l-.26.11.06,0-.26.11.06,0c-2,.84-4,1.57-6.1,2.27-1,.35-2,.76-3,1.1s-2.08.61-3.13.92c-2.08.62-4.17,1.34-6.18,2.16s-4.21,1.72-6.38,2.38a93.86,93.86,0,0,0-9.7,3.82h0l-.17.07.09,0c-2,.82-4,1.62-6,2.35s-4.25,1.57-6.35,2.42-4.15,1.67-6.25,2.45a30.33,30.33,0,0,1-6.23,1.53h0c-1.09.14-2.18.27-3.26.45a25.56,25.56,0,0,0-3,.78c-2.11.62-4.21,1.28-6.34,1.82s-4.55.82-6.83,1.2-4.28,1-6.4,1.52l-6.59,1.67c-2.14.55-4.31,1-6.46,1.47s-4.36,1.1-6.55,1.64-4.4.93-6.62,1.27c-.64.08-1.28.17-1.93.24s-1.57.13-2.36.17a26,26,0,0,1-4.32-.14l-.65-.1a.76.76,0,0,0-.91.51.74.74,0,0,0,.52.91,27.91,27.91,0,0,0,4.38.34,31.16,31.16,0,0,0,3.34-.19Zm-6.58-1.46h0Zm-.13,0h0Zm89.92-21,.05,0-.05,0Zm89.3-49.44-.19.15-.47.36.66-.51ZM92.78,218.29h0l-.09,0,.08,0Zm-24.92,8.78h0Zm-1.37,1.73h0Z"/><path class="cls-2" d="M16.47,171c2.5-.14,5-.3,7.48-.45.57,0,1.15-.09,1.72-.1l1.9,0c1.09,0,2.17,0,3.26-.09,2.12-.08,4.23-.3,6.34-.5a49,49,0,0,1,5-.14H43.5c3.62,0,7.24-.06,10.86-.22,1.89-.09,3.76-.24,5.64-.44s3.6-.49,5.4-.75l3-.38c1.16-.14,2.33-.25,3.48-.41s2.28-.34,3.4-.59,2.27-.53,3.4-.8a126,126,0,0,0,12.86-3.89c1.1-.4,2.19-.79,3.26-1.24s1.89-.91,2.84-1.37c2.12-1,4.24-2,6.39-3,1-.47,2.11-.92,3.16-1.4s1.94-.94,2.88-1.47,1.82-1,2.7-1.54l2.88-1.78c2-1.22,4-2.41,6-3.59,1-.59,2.08-1.17,3.14-1.71s2.14-1,3.24-1.49h0c2.29-1,4.55-2,6.8-3,1.09-.5,2.19-1,3.29-1.43l3.4-1.51c1.9-.79,3.81-1.53,5.75-2.24s4-1.47,6-2.28a51.37,51.37,0,0,0,6.42-3.12,41.94,41.94,0,0,0,5.71-4.23c4.43-3.69,8.65-7.63,13.18-11.19,1.24-1,2.47-1.94,3.7-2.91l-.32.25c.9-.7,1.79-1.41,2.64-2.18s1.5-1.38,2.25-2.07c1.61-1.48,3.19-3,4.82-4.46,3.27-2.94,6.3-6.15,9.5-9.17a60.85,60.85,0,0,0,4.67-5c.78-.92,1.47-1.91,2.2-2.87.62-.8,1.2-1.64,1.79-2.47,2.52-3.57,5.05-7.13,7.68-10.63,1.41-1.89,2.71-3.86,3.94-5.87.29-.49.59-1,.86-1.49a20.36,20.36,0,0,0,1-2.12l1.27-3.09c.3-.69.59-1.39.9-2.07s.73-1.45,1.1-2.17A31.33,31.33,0,0,1,229.39,52c.58-.74,1.17-1.48,1.77-2.21a1.52,1.52,0,0,0,.41-1,1.39,1.39,0,0,0-.41-1,1.41,1.41,0,0,0-1-.41,1.29,1.29,0,0,0-1,.41c-.75.91-1.5,1.82-2.21,2.76s-1.29,1.76-1.9,2.67c-.52.76-1,1.53-1.53,2.29s-1,1.6-1.5,2.44-.91,1.75-1.35,2.63c-.24.49-.47,1-.7,1.47s-.45,1-.72,1.44c-1.07,1.75-2.24,3.44-3.47,5.08L214.75,70l0,0-.06.06-.27.35c.08-.09.15-.19.22-.28-1.68,2.15-3.43,4.25-5.1,6.4s-3.41,4.56-5.09,6.86l-1.54,2c-.69.84-1.41,1.64-2.15,2.44s-1.55,1.65-2.36,2.44-1.58,1.49-2.34,2.25-1.68,1.62-2.5,2.45c-3,3.09-6.32,5.95-9.47,8.93L181.81,106c-.75.69-1.51,1.35-2.3,2l.06,0-2.16,1.69.17-.13-.2.15-.28.22.25-.19c-1.51,1.15-3,2.28-4.54,3.45s-3,2.43-4.47,3.63c-.72.58-1.4,1.2-2.1,1.8s-1.5,1.27-2.25,1.9q-2.18,1.83-4.4,3.6l-.68.52.51-.4a30.25,30.25,0,0,1-2.72,1.78c-1,.57-1.92,1.13-2.91,1.64s-1.93,1-2.91,1.45l-3,1.4c-1.93.93-3.89,1.77-5.82,2.69L139,134.61l-3,1.49c-2,1-4,2-6,3-1,.55-2,1.09-3.07,1.62s-2,1-3,1.53c-3.83,2.12-7.41,4.69-11.07,7.1-.74.49-1.47,1-2.22,1.46s-1.51.91-2.27,1.36a54.81,54.81,0,0,1-5,2.53c-1.78.82-3.57,1.68-5.33,2.55-1.59.79-3.17,1.63-4.8,2.35a115.84,115.84,0,0,1-11,3.78q-2.87.81-5.75,1.55a56.35,56.35,0,0,1-6.18,1.25h0c-1.75.24-3.51.51-5.26.77-.86.13-1.71.3-2.56.43s-1.76.27-2.64.39l.17,0c-4.38.53-8.8.7-13.21.79-2.13,0-4.27.05-6.39.05-1,0-2.09,0-3.13.11s-2.07.2-3.1.28c-2.81.22-5.61.26-8.42.32-.7,0-1.4.09-2.1.13l-2.25.15-5,.31a.56.56,0,0,0-.55.56.55.55,0,0,0,.52.55Zm188-87.75.33-.42-.33.42Zm20.07-22.74.08-.19c0,.06,0,.13-.08.19Zm4.63-8.32.17-.21-.17.21ZM214.73,70h0l-.07.08,0-.07Zm-37.35,39.63,0,0-.06,0,0,0Zm-49,33.93-.35.15.35-.15Z"/><path class="cls-2" d="M43.17,90.26c1.22-.12,2.43-.26,3.64-.39,1.06-.12,2.12-.24,3.18-.29,2.33-.1,4.67,0,7,.06,2.18.07,4.36.18,6.54.31,1.12.07,2.25.13,3.38.16A33.9,33.9,0,0,0,70.39,90c4.49-.35,8.94-1.13,13.38-1.87,2.3-.39,4.61-.76,6.91-1.17,1.07-.18,2.14-.39,3.21-.6s2.17-.52,3.25-.82c2.16-.6,4.24-1.42,6.33-2.22s4.25-1.67,6.44-2.32,4.39-1.16,6.59-1.76,4.27-1.3,6.38-2,4.32-1.57,6.47-2.4,4.18-1.67,6.3-2.44,4.49-1.65,6.77-2.35,4.54-1.17,6.8-1.78a45.92,45.92,0,0,0,12.51-5.53c1.88-1.19,3.71-2.47,5.52-3.77.94-.68,1.89-1.34,2.81-2s1.93-1.53,2.9-2.3c1.72-1.3,3.47-2.54,5.26-3.75.89-.61,1.81-1.19,2.72-1.78s1.87-1.15,2.78-1.76c1.93-1.29,3.8-2.68,5.68-4.05.93-.68,1.89-1.32,2.83-2s2-1.49,2.93-2.28c2.39-2,4.76-4,7-6.12q1.66-1.59,3.36-3.13c1.13-1,2.25-2,3.44-3,2.06-1.55,4.13-3.05,6.16-4.64s4.19-3.4,6.25-5.14a1.47,1.47,0,0,0,0-2.08,1.44,1.44,0,0,0-1-.43,1.57,1.57,0,0,0-1,.43c-1.78,1.51-3.57,3-5.41,4.45-1.61,1.22-3.24,2.42-4.93,3.53-.87.58-1.75,1.13-2.59,1.75S204.4,26,203.46,26.8c-1.67,1.39-3.31,2.82-5,4.25s-3.16,2.6-4.77,3.86c-.82.62-1.65,1.24-2.49,1.84s-1.93,1.28-2.9,1.89-1.92,1.22-2.88,1.84-1.86,1.27-2.8,1.89c-1.94,1.27-4,2.41-5.94,3.62s-3.67,2.32-5.46,3.55c-1.52,1-3,2.18-4.48,3.22s-2.91,2-4.39,3-3,2-4.6,2.92-3.16,1.73-4.8,2.48c-.89.37-1.77.73-2.68,1.06s-2.13.73-3.21,1.06c-2.15.66-4.32,1.28-6.45,2S136.19,67,134,67.92s-4.4,2-6.59,2.91q-2.58,1.14-5.16,2.23c-1.4.58-2.8,1.16-4.2,1.76-3,1.23-6,2.18-9,3.28-3.23,1.19-6.38,2.59-9.53,4-.87.36-1.75.7-2.64,1-1.06.35-2.12.71-3.2,1-2.16.52-4.35,1-6.53,1.38-1.07.2-2.14.38-3.21.57s-2.23.42-3.35.6c-2.26.38-4.52.78-6.79,1.1l.26,0a60.87,60.87,0,0,1-6.74.58c-2.22,0-4.44-.16-6.65-.23s-4.34-.11-6.5-.12c-1.18,0-2.38,0-3.56,0s-2.4.18-3.59.32c-2.05.22-4.1.47-6.15.66a37.66,37.66,0,0,1-6.1.08c-.94-.08-1.88-.22-2.82-.34s-2.07-.26-3.11-.34c-2-.15-4-.18-6-.42-1.63-.29-3.24-.68-4.87-.93-1.87-.27-3.75-.46-5.63-.62-3.71-.32-7.42-.67-11.13-1a.56.56,0,0,0-.56.56.57.57,0,0,0,.56.57c5,.43,10,1,15,1.55l1.82.3c.54.08,1.08.22,1.61.33,1.16.24,2.3.54,3.47.71s2.19.23,3.29.3,2.17.15,3.25.25c2.26.22,4.49.63,6.77.72l1,0a52.55,52.55,0,0,0,5.75-.4ZM117.9,74.87l.08,0-.08,0Zm.14-.06.13,0-.13,0ZM122.46,73l.16-.06-.16.06Z"/><path class="cls-2" d="M60.92,46.45c1.42,0,2.82-.09,4.23-.17S68,46.15,69.42,46s2.82-.3,4.22-.49h0l1.06-.14h0c1.54-.21,3.06-.51,4.59-.74s2.8-.32,4.21-.42,2.72-.19,4.08-.32l2.12-.2c.69-.05,1.38-.1,2.08-.17,1.37-.14,2.73-.32,4.11-.45s2.87-.25,4.31-.33c.66,0,1.32,0,2-.09s1.42-.11,2.13-.2,1.5-.22,2.25-.35,1.26-.26,1.89-.4c1.39-.31,2.75-.8,4.11-1.24s2.56-1,3.85-1.41,2.73-1,4.09-1.52,2.72-1.11,4.06-1.71,2.49-1.15,3.71-1.78l3.21-1.61c1-.53,2.1-1,3.15-1.47l-.1,0,.12-.05h0l.11,0,.21-.09.74-.32c1.29-.52,2.59-1,3.87-1.56s2.77-1.12,4.12-1.77c.62-.31,1.25-.63,1.88-.92l1.78-.85c.61-.31,1.23-.6,1.83-.94s1.14-.55,1.69-.87c.26-.15.51-.3.78-.43s.52-.26.79-.39a12,12,0,0,0,1.63-.93l1.61-1.13c.62-.44,1.25-.86,1.83-1.36,1-.83,1.86-1.73,2.76-2.61l.76-.73c.21-.23.42-.47.65-.69.51-.47,1.06-.9,1.6-1.32l-.3.24c.28-.2.56-.39.85-.56a11.33,11.33,0,0,0,1.17-.78,6.49,6.49,0,0,0,.79-.7,4.19,4.19,0,0,0,.5-.6c.09-.14.16-.29.25-.43a5.85,5.85,0,0,0,.38-.49,3.72,3.72,0,0,1,.21-.39l.13-.19c.14-.22.28-.44.43-.66.36-.42.77-.81,1.16-1.21a13.16,13.16,0,0,1,1.1-1,4.27,4.27,0,0,1,.44-.3c.3-.19.6-.34.9-.52a1.13,1.13,0,1,0-1.15-1.95,11.71,11.71,0,0,0-1.57.82,13.88,13.88,0,0,0-1.49,1.25,14.84,14.84,0,0,0-1.32,1.31,15.9,15.9,0,0,0-1,1.41,1.71,1.71,0,0,1-.2.18c-.13.13-.25.27-.39.39l.2-.15c-.35.26-.67.56-1,.83s-.66.41-1,.6a10.28,10.28,0,0,0-1.13.72c-.45.32-.88.65-1.31,1a10.21,10.21,0,0,0-.94.92c-.29.31-.62.59-.92.89s-.65.61-1,.92c-.63.62-1.29,1.22-2,1.79-.43.32-.87.62-1.32.92-.25.16-.49.36-.74.53s-.57.4-.86.59a18.32,18.32,0,0,1-1.62.89c-.28.14-.56.27-.83.43s-.55.33-.83.49-.58.28-.87.44-.53.32-.81.47c-.6.34-1.23.64-1.84,1s-1.12.54-1.67.82-1.25.65-1.9.95c-1.32.61-2.65,1.19-4,1.76-.64.27-1.28.53-1.91.81-1.3.53-2.58,1.1-3.85,1.71-.65.3-1.29.62-1.92.95l-1.85,1c-1.22.66-2.44,1.34-3.68,2s-2.5,1.25-3.78,1.82l-1.11.48c-1.27.54-2.54,1.07-3.82,1.57s-2.6,1-3.91,1.56-2.7,1-4.08,1.35a33.87,33.87,0,0,1-3.88.83l-.5.08h0c-1.79.23-3.59.34-5.38.54s-3.64.48-5.45.74h0l-.14,0,.08,0c-1.37.18-2.74.32-4.1.48s-2.82.34-4.24.47-2.79.27-4.18.49-2.88.5-4.32.77c-1.79.35-3.61.59-5.43.83-1.44.17-2.88.3-4.33.39s-2.7.18-4.05.2c-2.86,0-5.72-.06-8.58-.2-1.09,0-2.18-.13-3.26-.23S47.91,45,46.75,45c-2.4,0-4.79-.05-7.19-.08a.41.41,0,0,0-.4.4.4.4,0,0,0,.4.4l4.86,0c1.36,0,2.73,0,4.08.11s2.78.27,4.17.35,2.81.13,4.22.18l2,.05c.57,0,1.14,0,1.72,0Zm13.63-1h0Zm.23,0h0Zm-4.37-.33ZM138,26.53l.11-.05-.11.05ZM164.41,9.65l.08-.05-.08.05ZM135.23,30.74l-.21.09-.13.05.34-.14Zm-.34.14-.08,0-.13,0h0l.23-.1ZM92.75,42h0Zm-19,3.53h0Z"/><path d="M2346.51,68.06s8.45-25.35,33.43-28.41,38.08,18.74,39.92,23.76,3.3,38.57-8.45,47.51-32.7,14.45-44.08,6.37-17.64-16.29-20.09-26.7S2346.51,68.06,2346.51,68.06Z"/><path class="cls-2" d="M2385.83,123.2a46.16,46.16,0,0,0,5.12-.47,28.47,28.47,0,0,0,4.24-1.12c1.46-.48,3-.75,4.45-1.27.32-.11.63-.24.94-.37h0l0,0h0l.13-.06.17-.07a63.82,63.82,0,0,0,7.63-4,15.21,15.21,0,0,0,2.09-1.57c.56-.5,1.1-1,1.62-1.58s1.1-1.25,1.61-1.91.86-1.19,1.3-1.79a18.66,18.66,0,0,0,1.5-2.41,20.16,20.16,0,0,0,1.16-2.9c.61-1.83,1.31-3.6,2-5.38h0c.39-1,.77-1.89,1.11-2.86s.8-2.14,1.15-3.22c.17-.53.3-1.07.42-1.62s.24-1,.34-1.59c.22-1.27.43-2.54.61-3.82.26-1.94.38-3.89.45-5.85,0-.91.08-1.84.07-2.76a23.27,23.27,0,0,0-.17-2.77s0-.05,0-.08v-.09a18.48,18.48,0,0,0-.5-2.46c-.22-.77-.43-1.54-.65-2.31s-.41-1.56-.65-2.34-.55-1.5-.86-2.24c-1.15-2.79-1.75-5.8-3.38-8.39l-1.26-2c-.42-.66-.8-1.34-1.22-2a26.31,26.31,0,0,0-3.29-3.79c-1.11-1.14-2.22-2.27-3.41-3.33-.58-.52-1.18-1-1.79-1.51a26.51,26.51,0,0,0-2.33-1.73,27.58,27.58,0,0,0-4.54-2c-1.47-.58-2.91-1.2-4.42-1.68a12,12,0,0,0-1.44-.34c-.5-.09-1-.2-1.5-.31L2392,37l-1.39.05c-.62,0-1.24,0-1.86,0s-1.39,0-2.08,0c-.88.06-1.76.06-2.65.06h-1.7c-1,0-2,.12-3,.23a22.34,22.34,0,0,0-4.62,1.23c-1.77.7-3.55,1.36-5.31,2.06a16,16,0,0,0-1.41.76,2.26,2.26,0,0,0,.08.51l0,.09q-1.86,1.23-3.71,2.5c-1.29.89-2.58,1.77-3.86,2.68s-2.52,1.95-3.77,2.94a31.68,31.68,0,0,0-3.31,3.14,38.06,38.06,0,0,0-3,3.66c-.46.62-.91,1.26-1.36,1.88s-1,1.27-1.39,1.94a19.12,19.12,0,0,0-1.94,4.39,29.78,29.78,0,0,0-1.3,4.7,40.81,40.81,0,0,0-.42,4.94c-.07,1.63,0,3.25,0,4.88a42.63,42.63,0,0,0,.42,5,27,27,0,0,0,1.07,4.43c.47,1.46,1,2.92,1.54,4.36s1.21,2.91,1.69,4.41c.25.78.48,1.56.72,2.34a13,13,0,0,0,1.18,2.83,31.92,31.92,0,0,0,2.09,2.94l-.25-.33c.81,1,1.6,2.1,2.46,3.1a34.49,34.49,0,0,0,2.55,2.58c1.76,1.69,3.5,3.41,5.42,4.93a12.24,12.24,0,0,0,2.12,1.34c.68.33,1.39.6,2.07.94s1.42.77,2.13,1.16a17,17,0,0,0,2.55,1.12c1.42.52,2.92.81,4.36,1.22a28.11,28.11,0,0,0,5.08.87c1.12.09,2.26.16,3.4.16.42,0,.84,0,1.25,0Zm1.82-82.27a24.82,24.82,0,0,1,3.17.67c1.21.35,2.47.56,3.67,1s2.25.84,3.37,1.28c.94.38,1.9.7,2.84,1.07a17.69,17.69,0,0,1,2.05,1.12c.61.38,1.19.83,1.77,1.27a44.75,44.75,0,0,1,3.53,3.22,44,44,0,0,1,3.21,3.34c.36.51.69,1,1,1.57s.69,1.08,1,1.61.77,1.1,1.11,1.68a15.44,15.44,0,0,1,.8,1.57c.43,1.06.81,2.14,1.22,3.2.28.7.58,1.39.89,2.07.25.53.52,1.06.77,1.6.45,1.2.78,2.46,1.15,3.7a26.89,26.89,0,0,1,.88,3.51,43.78,43.78,0,0,1,.16,5.49,47.44,47.44,0,0,1-.29,5.46,42.75,42.75,0,0,1-1.09,5.83c-.13.46-.32.92-.49,1.37s-.34.91-.5,1.37c-.31.84-.61,1.68-.94,2.51-.55,1.25-1.08,2.51-1.55,3.79s-.87,2.51-1.35,3.75a11.8,11.8,0,0,1-.81,1.53c-.36.55-.73,1.09-1.13,1.61-.28.35-.54.71-.81,1.07a25.35,25.35,0,0,1-3.65,3.6c-.45.32-.91.62-1.39.9a9.93,9.93,0,0,1-1.42.8c-.43.23-.86.44-1.3.64-1.36.63-2.7,1.29-4.06,1.89a19.91,19.91,0,0,1-2.09.73c-.86.24-1.72.45-2.57.69s-1.62.52-2.44.75a17.41,17.41,0,0,1-2.36.51c-.84.1-1.68.15-2.52.19s-2,.13-2.93.13a48.14,48.14,0,0,1-5.37-.24c-1.29-.22-2.53-.58-3.78-.9-.69-.17-1.38-.34-2.06-.53s-1.07-.36-1.59-.57-1.19-.63-1.77-.94a20.43,20.43,0,0,0-2.18-1l.19.07c-.59-.25-1.18-.49-1.73-.79a13.25,13.25,0,0,1-1.59-1c-.9-.74-1.77-1.53-2.65-2.29s-1.8-1.58-2.71-2.36a28.1,28.1,0,0,1-2.69-2.55c-.77-.85-1.54-1.71-2.25-2.61h0l-.06-.07,0,0,0,0s0,0,0,0a.31.31,0,0,1-.09-.11v0l-.15-.2-.73-1a8.24,8.24,0,0,1-.76-1.4c-.51-1.3-.87-2.66-1.38-4s-1.19-2.83-1.73-4.27-1-2.64-1.4-4a26.93,26.93,0,0,1-1-4,62.94,62.94,0,0,1-.14-13.72c0,.12,0,.23,0,.35,0-.18,0-.36.07-.54h0a22.39,22.39,0,0,1,.89-3.61c.34-1.09.69-2.17,1.11-3.23.26-.53.53-1,.84-1.55s.78-1.13,1.19-1.68c.72-1,1.4-2,2.12-3A47.68,47.68,0,0,1,2357,53c.69-.67,1.46-1.26,2.2-1.87s1.43-1.17,2.16-1.75c1.21-.9,2.45-1.75,3.69-2.62s2.67-1.84,4-2.77l.69-.47a2.23,2.23,0,0,0,.89,0c1.8-.43,3.6-.84,5.41-1.25,2.33-.53,4.66-1.14,7-1.52q.64-.06,1.29-.06a26.36,26.36,0,0,1,3.32.26Zm-23,72-.2-.16.2.16Zm-10.21-9.75-.06-.07.06.07Z"/><path class="cls-2" d="M888,235.92a6.34,6.34,0,0,0,1.84-1c.51-.4,1-.86,1.45-1.3a17.93,17.93,0,0,0,1.43-1.46c.3-.36.59-.73.9-1.09s.65-.71,1-1.07a28.1,28.1,0,0,0,1.82-2.26c.68-.87,1.46-1.64,2.2-2.45s1.56-1.66,2.32-2.51,1.49-1.73,2.17-2.64,1.34-1.79,2-2.69,1.31-1.54,2-2.33c.41-.51.83-1,1.23-1.53s.66-.9,1-1.34l-.07.09c.55-.7,1.14-1.36,1.66-2.09s.89-1.45,1.32-2.18c1-1.72,1.88-3.52,2.76-5.32a.94.94,0,0,0-1.62-1c-.72,1.42-1.45,2.83-2.23,4.22-.35.62-.72,1.23-1.1,1.84s-.62,1-1,1.48-.92,1.15-1.37,1.73-.84,1.16-1.26,1.73c-.81,1-1.67,2-2.47,3s-1.71,2.32-2.59,3.47a71.46,71.46,0,0,1-5.07,5.51c-.44.44-.87.89-1.26,1.36s-.82,1-1.24,1.52-.79.85-1.2,1.26-.87.93-1.28,1.41a14.94,14.94,0,0,1-1.52,1.56c-.48.42-.94.87-1.44,1.27a5.16,5.16,0,0,1-.83.46,3.57,3.57,0,0,1-.46.16,8.26,8.26,0,0,1,.08-1c.06-.36.14-.72.23-1.07s.3-.87.45-1.3c.29-.82.58-1.63.91-2.43.28-.65.55-1.31.81-2,.55-1.2,1.18-2.37,1.8-3.54s1.21-2.11,1.75-3.2,1.15-2.08,1.72-3.13,1.15-2.14,1.75-3.2,1.2-2.22,1.8-3.33,1.24-2.2,1.9-3.28c.32-.53.67-1,1-1.58s.63-1,1-1.54c.69-1,1.41-2,2.14-2.94l1.47-2c.54-.72,1-1.48,1.52-2.24,1-1.56,2.09-3,3.18-4.51.75-1,1.51-1.93,2.31-2.86s1.54-1.92,2.31-2.88c.37-.45.78-.88,1.17-1.32s.75-.84,1.12-1.27.77-.93,1.18-1.37.89-.9,1.35-1.34l1.49-1.42c.49-.48,1-.91,1.55-1.34a34.9,34.9,0,0,1,3.23-1.89,1.39,1.39,0,0,0,.5-1.88,1.41,1.41,0,0,0-1.89-.5c-.64.36-1.3.7-1.93,1.07a13.66,13.66,0,0,0-1.78,1.22c-.55.43-1.09.87-1.6,1.34s-.92.89-1.4,1.31a28.45,28.45,0,0,0-2.59,2.56c-.78.88-1.6,1.72-2.41,2.57-.52.56-1,1.15-1.52,1.74s-1.16,1.31-1.72,2-1.12,1.35-1.67,2-1.09,1.46-1.63,2.19l.25-.32c-.63.81-1.25,1.63-1.82,2.49s-1.07,1.66-1.63,2.48-1,1.31-1.47,2-1,1.32-1.47,2l.09-.11c-.41.53-.82,1.06-1.2,1.6s-.67,1-1,1.54c-.69,1.08-1.36,2.17-2,3.29s-1.12,2.15-1.66,3.23-1.18,2.27-1.74,3.42-1.07,2.12-1.64,3.17c-.28.53-.53,1.08-.78,1.63s-.54,1.09-.83,1.63-.6,1.1-.88,1.66-.57,1.21-.85,1.82-.64,1.4-.92,2.11-.44,1.25-.69,1.86-.5,1.28-.73,1.92-.44,1.25-.64,1.89a11.29,11.29,0,0,0-.39,2c0,.26,0,.53-.06.79a4.14,4.14,0,0,0,0,.86,2.27,2.27,0,0,0,.57,1,3.05,3.05,0,0,0,.51.43,1.85,1.85,0,0,0,1,.37h0a3.5,3.5,0,0,0,1.23-.28Zm-.89-1.89a.14.14,0,0,1,0-.06l0,.06Zm.13-.08-.07,0,.07,0Zm9.21-6.28.07-.1a.61.61,0,0,1-.07.1Z"/><path class="cls-2" d="M929.82,255.69a41.43,41.43,0,0,0,3-3.71c.35-.51.63-1.07.93-1.6a18,18,0,0,1,1.1-1.72,28.54,28.54,0,0,0,2.2-3.36c.64-1.18,1.2-2.4,1.74-3.61.3-.67.6-1.33.85-2s.42-1.16.63-1.73c.44-1.2.9-2.38,1.37-3.55a11.77,11.77,0,0,0,.55-1.81,17,17,0,0,0,.37-1.72,31.13,31.13,0,0,0,.31-4.31c.06-1.68.2-3.36.19-5,0-.85,0-1.69,0-2.53s.13-1.62.23-2.43c0-.31.09-.62.13-.93a1,1,0,0,0-.09-.72,1,1,0,0,0-.57-.44,1,1,0,0,0-1.16.66c-.19,1.34-.36,2.67-.44,4s-.06,2.53-.2,3.79c-.12.77-.26,1.54-.38,2.31s-.18,1.78-.29,2.66a19.06,19.06,0,0,1-.58,2.8,24.58,24.58,0,0,1-.86,2.5c-.23.52-.49,1-.73,1.54s-.53,1.15-.79,1.73c-.5,1.1-1,2.21-1.51,3.31s-1.16,2.4-1.75,3.59c-.31.62-.62,1.22-.95,1.82s-.67,1.17-1,1.75c-.59,1-1.08,2.07-1.62,3.1a12.11,12.11,0,0,1-1,1.55c-.38.53-.77,1-1.16,1.58l-.49.62a1.5,1.5,0,0,0-.39,1,1.36,1.36,0,0,0,.39.95,1.43,1.43,0,0,0,1,.39,1.22,1.22,0,0,0,.92-.39Z"/><path class="cls-2" d="M861.87,211.7c.66-.08,1.31-.13,2-.19s1.34-.14,2-.24,1.28-.14,1.92-.24,1.19-.25,1.78-.36a12.88,12.88,0,0,0,1.84-.52c.67-.23,1.3-.55,2-.84.88-.35,1.78-.67,2.62-1.1s1.95-1.1,2.92-1.65a1.63,1.63,0,0,0,.59-2.22,1.65,1.65,0,0,0-2.22-.58c-1,.57-2,1.18-3.08,1.68-.68.26-1.37.46-2.06.71l-1.29.47a6.46,6.46,0,0,1-1,.22c-1.26.13-2.53.2-3.79.24-.66,0-1.31.11-2,.16s-1.46.1-2.2.18a15.67,15.67,0,0,1-1.94.12c-.66,0-1.32-.13-2-.17a14.14,14.14,0,0,0-1.84.06,13.07,13.07,0,0,1-1.77,0l-.9-.2c-.44-.09-.88-.16-1.33-.21a11.08,11.08,0,0,1-1.15-.21,1.82,1.82,0,0,0-2.74,1.58,1.81,1.81,0,0,0,.53,1.3,4.81,4.81,0,0,0,1.36.81,3.74,3.74,0,0,0,.57.17c.31.08.63.12.94.17a10.1,10.1,0,0,1,1.21.28,10.77,10.77,0,0,0,1.6.31,16,16,0,0,0,2.08.12c.6,0,1.19,0,1.79.07a13.28,13.28,0,0,0,1.78.2h.24a13.3,13.3,0,0,0,1.55-.11Zm11.21-2.29.12,0-.12,0Zm-3.61-2.51.13,0-.13,0Z"/><path class="cls-2" d="M1421.69,182.16a.36.36,0,0,0,.18-.24.35.35,0,0,0,0-.3.41.41,0,0,0-.24-.19l-1.2-.49.09,0c-.5-.22-1-.44-1.51-.63l-1.55-.59q-.72-.27-1.47-.51l-1.62-.53-1.39-.44-1.6-.56c-.46-.15-.91-.33-1.36-.49l-1.57-.51-1.36-.44-1.57-.5c-1-.31-2-.66-3-.95a26.36,26.36,0,0,0-6.25-1l-2.17-.11a.42.42,0,1,0,0,.83c.8.05,1.61.09,2.42.16l1.06.1c.27,0,.54.07.81.1l-.12,0a28.68,28.68,0,0,1,3.07.59c.54.14,1.07.29,1.59.46l1.57.5,3,.91c1,.29,2,.6,2.94.94.71.24,1.42.49,2.14.72s1.54.47,2.31.72l1.18.38c.37.11.73.23,1.09.37.77.28,1.54.58,2.3.89h0l2,.81.1,0a.39.39,0,0,0,.21-.06Zm-2.27-.77Z"/><path class="cls-2" d="M1361.34,173.09l.67-.1h0l1.4-.15,1.32-.13c.94-.09,1.88-.2,2.82-.24s2-.08,3-.16,1.84-.2,2.75-.32h-.11l.87-.1.78-.05c.59,0,1.18-.08,1.77-.14,1.28-.14,2.55-.31,3.82-.48a.38.38,0,0,0,.28-.12.36.36,0,0,0,.12-.28.38.38,0,0,0-.12-.28.36.36,0,0,0-.28-.12c-1.31.18-2.63.37-4,.49-.64.06-1.29.1-1.94.15s-1.28.12-1.92.21h.05c-.44.07-.89.12-1.33.17l-1.29.11c-.43,0-.87.06-1.3.08l-1.41.06c-.92.06-1.84.15-2.77.24l-1.43.14-.7.08c-.44,0-.87.11-1.31.17a.41.41,0,0,0-.28.5.53.53,0,0,0,.18.24.48.48,0,0,0,.2,0Zm11.36-1.82h0ZM1362.06,173h0Z"/><path class="cls-2" d="M1299.29,188.55c.33-.17.67-.33,1-.48l.64-.3,1.26-.63c.82-.41,1.66-.8,2.5-1.18h0c1-.39,1.94-.75,2.94-1.09s2-.67,3.08-1,2-.55,3-.8,2.06-.48,3.11-.68c1.33-.26,2.66-.49,4-.71.62-.09,1.24-.21,1.87-.3l2-.29h-.07l3.29-.4a.41.41,0,0,0,.28-.11.4.4,0,0,0,.12-.29.36.36,0,0,0-.12-.28.39.39,0,0,0-.28-.12l-1.8.22-1.7.2c-1.06.15-2.12.3-3.17.48s-2.21.36-3.3.56-2.14.41-3.2.64-2.07.49-3.1.76-2,.58-3,.9-2,.67-3,1-2,.79-2.92,1.25l-1.68.83-1,.49-.44.2-.76.37a.4.4,0,0,0-.14.55.39.39,0,0,0,.34.19.41.41,0,0,0,.21,0Zm5.32-2.55h0Zm20.1-4.88h0Z"/><path class="cls-2" d="M1285.34,194.1c.55-.25,1.1-.52,1.64-.78l.64-.31.58-.26c.39-.16.78-.32,1.19-.46l.64-.22.8-.24,1.16-.32,1.78-.45a.4.4,0,0,0,.28-.49.41.41,0,0,0-.49-.28c-.78.2-1.55.38-2.32.6l-1.07.3c-.36.11-.7.23-1.05.35-1.45.49-2.79,1.24-4.18,1.87a.36.36,0,0,0-.18.24.38.38,0,0,0,0,.31.41.41,0,0,0,.23.18h.11a.49.49,0,0,0,.2-.05Zm2.87-1.35.06,0-.06,0Z"/><path class="cls-2" d="M1165,252.93l1.8-.53,1.27-.64c1.72-.86,3.43-1.75,5.16-2.6.81-.4,1.64-.78,2.45-1.19l2.67-1.34,2.37-1.19c.85-.44,1.72-.87,2.57-1.32,1.66-.87,3.32-1.73,5-2.55.76-.36,1.51-.73,2.26-1.12s1.66-.88,2.48-1.32,1.54-.78,2.32-1.16l2.58-1.31c3.15-1.59,6.3-3.19,9.42-4.85,1.55-.82,3.1-1.62,4.66-2.42.73-.37,1.45-.76,2.18-1.16s1.52-.8,2.28-1.19c1.55-.81,3.1-1.63,4.65-2.43.73-.38,1.47-.74,2.19-1.13s1.56-.84,2.34-1.25q2.27-1.23,4.58-2.39l2.42-1.23c.76-.39,1.52-.78,2.31-1.14,1.49-.69,3-1.33,4.5-2s3.18-1.45,4.8-2.14h0l4.15-1.75h0c.74-.32,1.48-.63,2.21-1,.88-.39,1.74-.82,2.6-1.24l5.58-2.74c.84-.42,1.68-.86,2.5-1.32s1.65-.9,2.48-1.33,1.43-.74,2.15-1.08l1.35-.64,1.28-.58-.1.05,3.27-1.4c.81-.34,1.62-.67,2.46-1,1-.37,2-.67,3-1a.41.41,0,0,0,.28-.49.39.39,0,0,0-.49-.28c-1.54.48-3.08,1-4.58,1.57l-3.71,1.58.09,0c-.79.34-1.58.68-2.35,1.05s-1.49.71-2.22,1.08-1.52.78-2.28,1.19-1.56.87-2.35,1.28-1.76.89-2.64,1.33l-2.79,1.36-2.59,1.28c-.87.43-1.78.82-2.67,1.21l.09,0-2,.88.09,0c-1.72.73-3.44,1.45-5.14,2.2-.76.33-1.51.68-2.26,1s-1.7.78-2.54,1.15l-2.21,1c-.84.37-1.66.79-2.48,1.21-1.64.84-3.29,1.65-4.92,2.51-.75.39-1.5.78-2.25,1.19s-1.72.94-2.59,1.39c-.72.38-1.45.73-2.17,1.11l-2.35,1.23c-1.6.84-3.22,1.67-4.82,2.53s-3.27,1.7-4.9,2.55l-4.64,2.44-4.83,2.47q-2.36,1.2-4.73,2.38c-.76.38-1.52.77-2.27,1.17l-2.52,1.32c-.76.39-1.53.74-2.28,1.12s-1.8.9-2.7,1.37l-4.94,2.55-2.18,1.09c-.92.47-1.83.93-2.76,1.37-1.74.84-3.47,1.71-5.19,2.59l-2.2,1.1-1.48.74c-.5.26-1,.48-1.54.72l-2.43,1.14-.29.14,3.58-1.13Zm83.29-41.33.06,0-.06,0Zm23.35-11.26h0Z"/><path class="cls-2" d="M1321.69,166l3.11-.43h0c1-.12,2.06-.24,3.1-.34l3.42-.33c1-.1,2-.17,3-.28l1.78-.19,1.44-.14,1.83-.21q.92-.12,1.83-.21c.67-.08,1.35-.15,2-.24l1.89-.26h-.1l1.86-.25h0c.88-.12,1.77-.22,2.66-.31l2.66-.24c.45,0,.89-.07,1.34-.09s.91,0,1.37-.07c1-.06,2-.16,3-.25a.37.37,0,0,0,.28-.11.44.44,0,0,0,.12-.28.39.39,0,0,0-.4-.4c-1,.09-2.08.19-3.12.25l-1.52.08c-.47,0-1,.06-1.42.11l-1.5.12c-.48,0-1,.1-1.44.15l-1.43.16-1.52.2h.06l-3,.41.11,0-1.7.2-1.5.17c-1.09.13-2.18.26-3.27.37s-2.17.23-3.25.33l-1.7.15-1.53.15c-1.32.13-2.63.24-4,.39l-2,.25-2.7.38a.36.36,0,0,0-.24.18.38.38,0,0,0,0,.31.4.4,0,0,0,.18.24.49.49,0,0,0,.19.05Z"/><path class="cls-2" d="M1277.09,177.47l.11-.05c.45-.19.89-.38,1.32-.58.92-.37,1.84-.71,2.77-1l3-1.05c2-.71,4-1.38,6-2.06,1-.33,2-.65,3-1s2-.59,3-.88,2.11-.59,3.18-.82c.48-.11,1-.2,1.46-.3s1-.2,1.47-.28c1.22-.2,2.44-.36,3.66-.53a.39.39,0,0,0,.24-.18.48.48,0,0,0,0-.31.41.41,0,0,0-.5-.28c-1.1.16-2.22.29-3.32.48-.53.08-1,.17-1.57.28l-1.52.31c-1,.22-2,.47-3,.77s-2,.56-2.95.87-2,.65-3.05,1-2,.65-3,1l-3,1-2.94,1c-.7.24-1.4.49-2.09.75l-1,.4-.5.22-.79.35.1,0-.41.17a.36.36,0,0,0-.18.24.38.38,0,0,0,0,.31.36.36,0,0,0,.24.18l.09,0a.6.6,0,0,0,.22-.06Zm.15-.06h0l-.06,0,.1,0Z"/><path class="cls-2" d="M1214.74,205.94c1-.58,2-1.13,3.08-1.7l2.83-1.51L1222,202c.44-.23.89-.47,1.34-.69q1.47-.69,2.94-1.35l1.3-.59,1.39-.67c.89-.42,1.78-.83,2.68-1.23l2.81-1.21,2.64-1.16h0l2.3-1c.81-.34,1.61-.7,2.41-1.05l1.28-.57c.41-.18.8-.37,1.2-.56l2.28-1,.79-.33.5-.2h0l.05,0,.24-.1a.19.19,0,0,0,.08,0h0l.42-.18,1.7-.64c.61-.23,1.23-.46,1.85-.67,1.38-.47,2.77-.86,4.16-1.26a.41.41,0,0,0,.29-.49.41.41,0,0,0-.5-.28c-.94.27-1.89.53-2.83.83s-1.67.54-2.49.84-1.59.58-2.37.89l-.61.25h0l-.31.13,0,0h0c-.76.31-1.53.62-2.28,1s-1.46.67-2.19,1l-2.37,1.06c-.79.35-1.57.69-2.36,1h0c-1,.4-1.89.79-2.82,1.2s-1.89.83-2.84,1.23-1.89.83-2.83,1.26-2,.93-2.93,1.39l-2.79,1.26c-.49.23-1,.45-1.45.7l-1.37.7c-.93.49-1.86,1-2.79,1.48l-1.44.78-1.33.73-1.37.76a.4.4,0,0,0-.14.55.39.39,0,0,0,.35.19.39.39,0,0,0,.2-.05ZM1246.48,191h0Z"/><path class="cls-2" d="M1170,227.77l1.16-.56c.23-.12.46-.22.69-.32l1.44-.68c.9-.43,1.77-.9,2.65-1.37.45-.24.92-.48,1.38-.7l1.53-.73c.46-.22.91-.44,1.37-.64s1-.46,1.55-.69l.93-.42,2.48-1a.64.64,0,0,0,.44-.77.66.66,0,0,0-.29-.38.6.6,0,0,0-.49-.07c-.63.26-1.26.52-1.88.8-.45.19-.9.39-1.33.62-.94.5-1.88,1-2.82,1.54l-1.38.74-1.47.8c-.87.47-1.74,1-2.62,1.38l-1.63.77-.78.35c-.44.23-.88.45-1.33.66a.39.39,0,0,0-.14.54.36.36,0,0,0,.33.2.5.5,0,0,0,.21,0Z"/><path class="cls-2" d="M904.53,282.48a.35.35,0,0,0,.18-.23,31.13,31.13,0,0,0,1.12-3.2c.13-.49.27-1,.38-1.46s.17-1,.23-1.51.08-1,.13-1.53.07-1,.09-1.56c0-.25,0-.5,0-.75s0-.52,0-.78l0-1.59q0-1.39-.09-2.79c0-.88-.1-1.76-.22-2.63v.11l-.06-.47v0a11.93,11.93,0,0,0-.35-1.68c-.08-.32-.18-.62-.27-.93s-.17-.56-.27-.83a29.84,29.84,0,0,0-1.72-3.72.4.4,0,0,0-.55-.14.41.41,0,0,0-.14.55l.81,1.57c.2.42.38.84.57,1.27a.3.3,0,0,1,0-.1c.13.31.26.63.36.95l.33,1.06a12.42,12.42,0,0,1,.48,2.09.13.13,0,0,0,0-.06l.06.44v-.11a.77.77,0,0,1,0,.15h0c.13,1,.17,1.95.22,2.92s.07,1.94.08,2.92,0,2,0,3.05c0,.51-.07,1-.11,1.52s-.08.9-.13,1.35q0,.3-.09.6c0,.26-.1.51-.16.77-.1.44-.24.89-.37,1.33s-.27.86-.41,1.29-.4,1.11-.63,1.66a.47.47,0,0,0,0,.31.45.45,0,0,0,.24.19h.11a.36.36,0,0,0,.2-.06Zm1.73-18.37v.08a.25.25,0,0,0,0-.08Zm-.73.51v.1a.38.38,0,0,0,0-.1Z"/><path class="cls-2" d="M851.76,231.23l1.77-.49c.72-.21,1.45-.41,2.18-.6a.41.41,0,0,0,.28-.49.4.4,0,0,0-.49-.28c-.7.18-1.41.37-2.1.57-.27.08-.54.17-.82.24l-1,.26c-1.17.33-2.33.7-3.5,1.06a.45.45,0,0,0-.19.11c.18.2.35.41.51.62,1.1-.33,2.2-.68,3.31-1Z"/><path class="cls-2" d="M901.09,252.87a.4.4,0,0,0,.14-.54c-.33-.65-.63-1.31-1-2s-.57-1.16-.85-1.75a.4.4,0,0,0-.69.41c.28.58.57,1.16.85,1.75s.62,1.3.95,1.95a.39.39,0,0,0,.35.2.36.36,0,0,0,.2-.06Z"/><path class="cls-2" d="M818.33,287.51c0-.46,0-.92,0-1.38a58.4,58.4,0,0,1,.33-6.61h0v0h0v-.05s0,0,0-.05v0c.19-1.36.38-2.71.67-4.05.33-1.56.76-3.09,1.11-4.65.17-.75.34-1.49.54-2.23s.38-1.46.63-2.18c.51-1.46,1.12-2.89,1.71-4.32a.24.24,0,0,0,0,.08c.49-1.15,1-2.29,1.55-3.42.27-.57.55-1.14.83-1.7s.72-1.34,1.08-2,.63-1.06,1-1.58.69-1.09,1-1.63c.77-1.14,1.56-2.26,2.39-3.36a1.13,1.13,0,0,1-.1.13l.7-.91,0,0,.79-1h0l.94-1.23a56.91,56.91,0,0,1,4.16-4.76c.71-.74,1.47-1.44,2.23-2.15s1.47-1.47,2.27-2.13,1.48-1,2.21-1.51a.53.53,0,0,0,.19-.72.52.52,0,0,0-.71-.18l-1.71,1.12c-.24.16-.48.31-.71.48s-.52.42-.77.63c-.55.48-1.07,1-1.59,1.49l-1.63,1.54c-1.05,1-2.05,2.08-3,3.18-.48.54-.94,1.1-1.4,1.66s-.89,1.12-1.32,1.69h0l-.54.71.09-.13-.79,1c-1,1.23-1.9,2.48-2.8,3.77-.43.62-.84,1.25-1.24,1.88-.19.32-.4.63-.58.95l-.78,1.38c-.36.64-.68,1.3-1,2s-.75,1.55-1.1,2.34c-.62,1.39-1.18,2.81-1.7,4.24-.26.72-.53,1.44-.78,2.16s-.44,1.59-.63,2.4-.3,1.52-.43,2.28-.31,1.68-.49,2.51-.34,1.51-.48,2.27-.27,1.54-.39,2.31-.2,1.38-.28,2.08-.14,1.47-.17,2.2c-.08,1.56-.09,3.11-.09,4.66,0,.36,0,.71,0,1.07a6,6,0,0,1,.82-.27Zm13.48-39.92.06-.08-.06.08Zm.67-.88.07-.09-.07.09Zm1-1.39.06-.07-.06.07Z"/><path class="cls-2" d="M818.69,279.5Z"/><path class="cls-2" d="M818.69,279.47v0Z"/><path class="cls-2" d="M818.69,279.45v0Z"/><path class="cls-2" d="M818.69,279.45v0Z"/><path class="cls-2" d="M823.33,262.08l0,.08,0-.08Z"/><polygon class="cls-2" points="831.71 245.72 831.71 245.72 831.71 245.72 831.71 245.72 831.71 245.72"/><polygon class="cls-2" points="831.71 245.72 831.71 245.72 831.71 245.72 831.71 245.72 831.71 245.72"/><path class="cls-2" d="M905.22,298.57a.41.41,0,0,0,.15-.55c-.23-.36-.47-.73-.68-1.11s-.49-.88-.69-1.33l0,.09a6.75,6.75,0,0,1-.25-.76c0-.16-.07-.32-.1-.48s-.05-.4-.07-.6,0-.48,0-.73a14.64,14.64,0,0,1,0-1.48c.06-1,.17-2,.28-3.05a.4.4,0,0,0-.12-.29.41.41,0,0,0-.28-.11.44.44,0,0,0-.29.11.46.46,0,0,0-.11.29c-.09.81-.18,1.63-.24,2.45a20.87,20.87,0,0,0-.08,2.24,11.35,11.35,0,0,0,.1,1.16,5.84,5.84,0,0,0,.27,1.17,8.25,8.25,0,0,0,.74,1.56c.24.44.5.85.77,1.27a.39.39,0,0,0,.34.2.35.35,0,0,0,.2-.05Zm-1.51-4.06v-.08s0,.05,0,.08Z"/><path class="cls-2" d="M937,318.83a.47.47,0,0,0-.33-.58c-1.23-.38-2.46-.73-3.68-1.13-1-.34-2-.72-3-1.09l-1.47-.54c-.5-.19-1-.35-1.53-.53l-3-1c-.65-.22-1.3-.45-1.94-.7a24,24,0,0,1-3.28-1.76c-1.09-.73-2.16-1.48-3.19-2.27-.77-.62-1.52-1.25-2.3-1.85h0l-.4-.31c-.46-.36-.92-.71-1.4-1.05s-1.06-.71-1.6-1.05a.59.59,0,1,0-.6,1c.47.29.93.59,1.38.89s.78.56,1.15.85l-.11-.1,1.21.95,1.29,1.05c.42.34.85.67,1.28,1s.88.62,1.32.92a25.3,25.3,0,0,0,2.67,1.66,19.16,19.16,0,0,0,2.85,1.29c1,.36,2.07.69,3.1,1l1.51.5c.47.15.93.3,1.39.47l3.24,1.16c1,.35,2,.66,3,.95l1.78.53h.12a.47.47,0,0,0,.46-.34Z"/><path class="cls-2" d="M990.53,322.83l1.16,0c.52,0,1-.07,1.54-.11s1-.08,1.48-.13,1-.09,1.49-.17l2.1-.36c.46-.07.91-.17,1.36-.25l1.79-.36c1.38-.27,2.77-.55,4.15-.84a.4.4,0,1,0-.21-.77c-1.61.34-3.22.66-4.83,1l-1.55.31-.7.13-2.52.43-1.68.17c-.55.06-1.1.09-1.65.14l-.53,0-.93,0c-.5,0-1,0-1.49,0-1.11,0-2.21,0-3.32,0s-2.25-.08-3.37-.14-2.11-.15-3.17-.24l-.87-.07c-.31,0-.62,0-.93-.06l-1.44-.08-1.79-.1-1.58-.07c-1.12,0-2.24-.09-3.36-.16l-1.26-.11-1.08-.13h0l-.87-.15-1.08-.2-1-.19-1-.18c-.64-.12-1.28-.27-1.91-.41s-1.49-.34-2.23-.53a.4.4,0,1,0-.21.78c1.12.27,2.25.53,3.38.78s2,.37,3.08.57l.8.16.85.13c.5.08,1,.14,1.51.18,1.08.1,2.16.18,3.24.22l1.71.06,1.77.08,3.23.19,1.43.11c.6.06,1.21.11,1.81.15,1,.08,2,.13,3.06.17l1.59,0,1.66,0h1.86l.59,0Zm-23.23-2h0Z"/><path class="cls-2" d="M1019.3,318.43c.54,0,1.08,0,1.61,0l.41,0,.41-.05.9-.12c.5-.08,1-.18,1.49-.29a46.62,46.62,0,0,0,6.18-2c.63-.23,1.28-.44,1.93-.64s1.23-.39,1.84-.61,1.29-.46,1.91-.72l2.15-.91h0c1-.4,1.92-.78,2.89-1.14.51-.19,1-.36,1.52-.53s1-.33,1.5-.52,1-.37,1.43-.57,1-.46,1.48-.7l1.31-.67,1.41-.76c.94-.53,1.9-1.05,2.86-1.55l1.34-.7,1.4-.72c1-.52,2-1.05,2.89-1.63.44-.27.86-.56,1.29-.83l1.3-.85c.9-.61,1.79-1.24,2.68-1.85s1.72-1.12,2.58-1.7,1.82-1.19,2.75-1.76l1.29-.79,1.33-.78.61-.37.7-.41,1.32-.84c.9-.58,1.8-1.17,2.69-1.77s1.68-1.13,2.52-1.7c.43-.29.84-.6,1.26-.92s.79-.65,1.17-1,.71-.71,1.07-1.06c.17-.17.35-.35.53-.51l.64-.57,1.16-1,1.25-1c.36-.3.74-.58,1.1-.88l1.16-1,1.12-1c.37-.34.73-.71,1.12-1s1.07-.87,1.6-1.32l1.79-1.48c.5-.41,1-.8,1.51-1.21.29-.24.57-.47.85-.72l1.36-1.18a.4.4,0,0,0,0-.56.4.4,0,0,0-.29-.12.42.42,0,0,0-.28.12l-1,.87c-.21.18-.4.36-.61.53-.45.38-.9.75-1.36,1.11-.85.67-1.67,1.36-2.5,2l-1.22,1c-.39.32-.76.66-1.12,1q-1.11,1-2.25,2c-.59.52-1.21,1-1.82,1.48s-1.28,1.08-1.91,1.63l-.91.82c-.31.27-.59.57-.87.86a19.73,19.73,0,0,1-1.74,1.57l0,0c-.4.31-.81.62-1.23.91l-.66.44-.66.45q-1.24.86-2.52,1.68c-.89.59-1.79,1.17-2.69,1.74l-.62.36-.7.42-1.32.78c-.91.55-1.83,1.11-2.73,1.68s-1.69,1.13-2.54,1.68-1.79,1.19-2.68,1.8-1.75,1.21-2.65,1.79c-.43.28-.85.56-1.29.83s-1,.56-1.44.83l-1.46.8c-.46.25-.93.48-1.39.72l-2.76,1.45c-1,.51-1.89,1.05-2.85,1.56s-1.92,1-2.91,1.42c-.6.24-1.2.48-1.82.68s-1.43.48-2.14.74-1.47.55-2.2.85-1.37.57-2.06.86h0l-1.51.62c-.47.19-1,.36-1.43.53s-.91.32-1.37.46l-1.49.46c-1,.35-2,.74-3.06,1.1s-2.07.69-3.12,1a26.52,26.52,0,0,1-2.9.57h.05l-.57.07c-.15,0-.31,0-.47,0-.32,0-.65,0-1,0h-2.51a.41.41,0,0,0-.4.4.4.4,0,0,0,.4.4Zm18.74-5.31,0,0,0,0Zm42-24.79h0Zm-43.34,24.48,0,0,0,0Z"/><path class="cls-2" d="M1103,268.47a.36.36,0,0,0,.11.25l.11.08-.22-.33Z"/><path class="cls-2" d="M1106.21,268.39c.52-.32,1-.63,1.56-1a2.9,2.9,0,0,0,.36-.25l.26-.19.71-.56a14.19,14.19,0,0,0,1.15-1l1-1,1.11-1.17,1.22-1.29c.76-.77,1.55-1.5,2.36-2.22.29-.25.58-.5.88-.74l.8-.65,0,0,.05,0,0,0h0c.67-.5,1.33-1,2-1.48l2.34-1.56c.34-.23.68-.48,1-.73l1-.78.52-.39h0l.1-.08.24-.18,0,0,.09-.08,0,0c.81-.63,1.64-1.26,2.49-1.85.42-.3.87-.58,1.3-.86s.89-.56,1.34-.84c.87-.52,1.76-1,2.64-1.52s1.79-1,2.65-1.56,1.75-1.17,2.64-1.74,1.77-1,2.68-1.52l.69-.36c.23-.13.46-.23.7-.35l.71-.36a7.08,7.08,0,0,0,.66-.38c.88-.54,1.73-1.14,2.59-1.7s1.77-1.06,2.66-1.57q.68-.39,1.38-.75c.48-.25,1-.48,1.45-.71.93-.45,1.85-.91,2.75-1.41.5-.27,1-.56,1.5-.85l1.26-.78c.8-.52,1.61-1,2.43-1.51.39-.24.81-.44,1.22-.65s.84-.39,1.27-.57l-.1,0,.86-.34a.5.5,0,0,0,.24-.19.41.41,0,0,0,0-.31.47.47,0,0,0-.18-.24.38.38,0,0,0-.31,0l-1,.39-.77.34c-.24.1-.47.22-.7.33l-.63.33c-.45.26-.9.53-1.34.81s-1,.6-1.46.91-.83.53-1.25.78-1,.57-1.5.85c-.91.5-1.82,1-2.75,1.4-.49.23-1,.47-1.45.72s-.93.49-1.39.75c-.89.51-1.79,1-2.65,1.58s-1.71,1.15-2.59,1.69l-.64.37c-.24.14-.49.25-.73.37-.47.22-.93.47-1.39.71-.91.47-1.81,1-2.68,1.52l-1.3.85-1.34.89c-.86.56-1.77,1.05-2.65,1.56s-1.78,1-2.64,1.53c-1.21.73-2.4,1.49-3.54,2.33-.55.4-1.1.82-1.64,1.24l-.12.09-.18.14-.14.11a.21.21,0,0,0-.08.06l-.09.07h0l-1.09.82c-.42.31-.84.64-1.27.93-.88.59-1.78,1.17-2.65,1.78-.43.3-.86.61-1.27.93l-.64.48-.69.54-1.36,1.17-.47.42-.61.57c-.51.5-1,1-1.51,1.52s-1,1.14-1.59,1.69-1,1-1.51,1.51a18.21,18.21,0,0,1-1.51,1.25c-.15.11-.29.22-.45.32a4.52,4.52,0,0,1-.52.32l-1,.65a.4.4,0,0,0-.15.54.42.42,0,0,0,.36.2.45.45,0,0,0,.19-.05ZM1124,252.77l0,0,0,0Zm1,.22,0,0,0,0Zm-7.38,5.29h0l0,0,0,0Z"/><path class="cls-2" d="M836.07,322.67a.4.4,0,0,0,0-.57c-1.53-1.49-3-3-4.55-4.53l-.78-.78-1.23-1.32c-.26-.27-.52-.53-.76-.82l-1-1.22c-.32-.42-.63-.83-.94-1.26s-.48-.66-.71-1-.5-.73-.74-1.11-.55-.87-.8-1.32c-.49-.88-1-1.76-1.45-2.65-.21-.41-.41-.81-.6-1.23l-.54-1.27c-.32-.84-.61-1.7-.87-2.57s-.57-2-.87-3a.4.4,0,0,0-.49-.28.41.41,0,0,0-.28.49c.18.6.36,1.2.53,1.8s.26.92.4,1.37.31,1,.49,1.49c.09.26.18.52.29.79s.2.5.31.75a30.2,30.2,0,0,0,1.32,2.75l.87,1.57.3.52c.18.31.38.62.57.93s.2.34.31.51l.56.82c.15.22.3.45.46.67s.26.37.4.55c.32.42.63.86,1,1.27l.67.83.3.37.12.14,1.33,1.41.81.86,2.49,2.48c.84.85,1.69,1.69,2.54,2.52a.38.38,0,0,0,.28.11.37.37,0,0,0,.28-.11Zm-14.07-19,0,0,0,0Z"/><path class="cls-2" d="M902,355.09a.42.42,0,0,0-.12-.28.45.45,0,0,0-.29-.12c-1.79-.18-3.58-.42-5.37-.65l-1.81-.32c-.52-.09-1-.22-1.53-.34l-1.39-.34c-.49-.12-1-.24-1.48-.38l-1.89-.53-1.62-.48c-.92-.28-1.85-.55-2.78-.81l-3.57-1c-.49-.14-1-.25-1.47-.38l-1.46-.34-3.32-.75c-.51-.12-1-.25-1.51-.39l-.68-.2a6.54,6.54,0,0,1-.75-.24l-.56-.2-.58-.25-.86-.41c-.47-.23-.92-.49-1.38-.76-1-.55-1.91-1.13-2.85-1.7l-1.23-.76-1.5-.93-1.44-.87-1.33-.76-1.44-.81-1.38-.85c-.91-.56-1.83-1.11-2.73-1.68s-1.85-1.21-2.76-1.83l-1.14-.84c-.47-.36-.95-.71-1.43-1.05-.73-.54-1.47-1.08-2.2-1.64h0c-.52-.41-1-.83-1.56-1.27a.43.43,0,0,0-.28-.11.44.44,0,0,0-.29.11.41.41,0,0,0,0,.57c.88.72,1.75,1.43,2.67,2.1s1.84,1.34,2.75,2c.42.32.84.63,1.28.93l1.48,1c.86.57,1.73,1.11,2.61,1.64l1.4.85c.47.29.94.58,1.42.86.91.53,1.84,1,2.74,1.57,1.84,1.11,3.66,2.27,5.51,3.37,1,.56,1.92,1.14,2.92,1.64.24.12.47.22.71.32s.48.22.73.31.51.19.76.27l.87.27c1,.29,2,.51,3,.74l1.58.35c.51.11,1,.22,1.54.35l1,.26.66.17,1.84.5,2.86.79,3.41,1c.53.16,1.05.3,1.57.44l1.35.36,1.34.34,1.36.32.52.12a4,4,0,0,0,.48.08l1.59.28.32.05.86.11,1.18.15c1.07.14,2.14.26,3.22.37h0a.41.41,0,0,0,.38-.4Zm-55.77-22.8,0,0,0,0Z"/><path class="cls-2" d="M1086.65,315.57l.75-.59-.07.06c.82-.63,1.64-1.28,2.48-1.9.43-.33.86-.66,1.3-1l1.42-1,1.39-1,1.28-.95c.4-.29.77-.6,1.16-.9l1.26-1c.43-.35.87-.68,1.29-1.05l1.29-1.13.58-.52.71-.68,1.08-1.05c.37-.36.74-.72,1.12-1.07l1.17-1.08,2.36-2.15,1.34-1.24,1.09-1,1.34-1.2c.37-.33.75-.64,1.12-1l2.5-2.23c.8-.7,1.61-1.38,2.41-2.07.36-.31.7-.62,1.06-.92l1.39-1.17c.39-.32.77-.66,1.16-1s.79-.67,1.17-1c.81-.74,1.62-1.48,2.42-2.24l2.4-2.23c1.58-1.45,3.15-2.91,4.8-4.28l2.51-2.07c.41-.34.84-.67,1.26-1l1.36-1.06.15-.11h0l3.77-2.89-.08.06c.41-.31.81-.63,1.22-.93L1143,268l2.52-1.86,1.32-1c.22-.16.44-.3.66-.45s.42-.28.64-.41l1.43-.91c.43-.27.87-.53,1.32-.77.8-.43,1.6-.86,2.39-1.3.2-.11.4-.24.59-.36l.61-.37,1.38-.88a.4.4,0,0,0,.14-.55.41.41,0,0,0-.55-.14c-1,.63-2,1.27-3,1.83s-1.85,1-2.75,1.52l-1.44.9c-.42.27-.85.52-1.25.8-.21.14-.42.28-.62.43l-.72.53-1.26.94-2.86,2.11c-1,.72-1.92,1.47-2.87,2.2l.06,0c-1.77,1.34-3.53,2.68-5.27,4.06-.84.67-1.66,1.37-2.49,2.05s-1.63,1.39-2.43,2.09-1.5,1.38-2.25,2.06-1.62,1.49-2.42,2.25-1.57,1.47-2.37,2.2-1.69,1.48-2.54,2.21l-1.16,1c-.44.37-.88.74-1.31,1.12l-2.37,2-1.17,1.05-1.13,1-2.46,2.16c-.82.74-1.63,1.5-2.45,2.25l-2.39,2.19-1.12,1c-.39.36-.78.71-1.16,1.08-.77.75-1.52,1.51-2.31,2.23l-1.32,1.16-.49.43-.83.66c-.84.68-1.71,1.34-2.57,2l.08-.07-1.09.81c-.34.26-.71.51-1.06.76l-2,1.47-1.07.8-.91.69-2.61,2a.38.38,0,0,0-.12.28.45.45,0,0,0,.12.29.43.43,0,0,0,.28.11.44.44,0,0,0,.29-.11Z"/><path class="cls-2" d="M1025.75,348.17c.62-.3,1.24-.58,1.87-.86l1.41-.62c1-.4,1.92-.82,2.88-1.23h0c.47-.19.94-.39,1.41-.57l1.4-.55c1-.37,1.9-.73,2.84-1.11.5-.19,1-.41,1.47-.63l1.38-.62c1-.47,2-1,2.92-1.53s1.84-1,2.76-1.52c.45-.25.89-.51,1.33-.77l1.35-.78c.91-.55,1.84-1.1,2.77-1.64l.66-.39.74-.41c.2-.12.42-.21.63-.31l.7-.32c1-.45,2-.87,3-1.32s2-.92,2.91-1.43c.48-.26.95-.53,1.42-.8s.86-.52,1.29-.78c.93-.58,1.87-1.16,2.82-1.73.75-.45,1.49-.93,2.23-1.4.37-.23.76-.44,1.15-.66l1-.57c.75-.4,1.49-.81,2.25-1.18l2.67-1.33a.4.4,0,0,0,.14-.55.39.39,0,0,0-.54-.14c-1,.52-2.08,1-3.11,1.55s-1.84,1-2.73,1.46c-.43.23-.87.47-1.28.73l-1.37.87c-.93.58-1.87,1.14-2.8,1.71-.44.27-.86.54-1.3.8l-1.48.88c-.46.26-1,.51-1.42.77s-.92.46-1.39.69c-.93.44-1.87.85-2.82,1.26l-1.56.7-.72.35c-.26.12-.5.27-.75.41l-.68.4-.66.39-1.29.76-2.76,1.62-1.29.73c-.47.27-.94.52-1.41.77l-1.38.77-1.53.81c-1.19.61-2.42,1.13-3.64,1.65l.09,0c-.94.38-1.89.74-2.84,1.11l-1.4.54c-.51.2-1,.41-1.5.62-1,.4-1.93.83-2.89,1.24l-1.43.62c-.59.27-1.19.53-1.78.82l-.15.07a.41.41,0,0,0-.15.55.39.39,0,0,0,.34.19.41.41,0,0,0,.21-.05Z"/><path class="cls-2" d="M948.26,357c-5.66-.59-11.48-.22-17.18-.43s-11.42-.78-17.14-.76a.15.15,0,0,0,0,.3,112.94,112.94,0,0,0,16.23,1.6c6,.3,12.21.83,18.13.06A.39.39,0,0,0,948.26,357Z"/><path class="cls-2" d="M1001.05,351.24c-6.85,1.28-13.44,2.79-20.46,3.05a.32.32,0,0,0,0,.63c6.92.72,14.46.23,20.84-2.78C1002,351.89,1001.57,351.15,1001.05,351.24Z"/></g></svg>