<svg xmlns="http://www.w3.org/2000/svg" width="2560" height="370" viewBox="0 0 2560 370"><defs><style>.cls-1{fill:none;}.cls-2{fill:#fff;}</style></defs><title>sky_stars</title><g id="BackGround"><rect class="cls-1" width="2560" height="370"/></g><g id="estrellas"><polygon class="cls-1" points="1317.76 231.47 1320.69 230.74 1325.84 235.51 1330.61 235.88 1334.29 233.67 1335.2 239.18 1329.33 242.49 1327.31 254.61 1321.24 245.98 1314.63 243.22 1317.57 238.45 1317.76 231.47"/><polygon class="cls-1" points="1422.02 38.18 1420.18 43.69 1414.67 47.61 1421.41 49.94 1425.69 55.69 1431.08 47.24 1426.18 45.04 1423.49 38.92 1422.02 38.18"/><polygon class="cls-1" points="1460.35 55.2 1457.53 62.06 1451.78 65.25 1456.06 75.16 1461.94 71.86 1469.04 69.9 1468.92 64.88 1463.65 63.41 1462.31 56.18 1460.35 55.2"/><path class="cls-1" d="M1707.6,76.72l5.6-4.4,4.41-7.63,2,2.76,2.48,5.42,4,.18,5.51-1.47-1.28,4.78-.37,4s-5.79-.55-7.81,1.1-6.79,6.7-6.79,6.7l-2.48-6.79Z"/><path class="cls-1" d="M1941.69,233.12l2.45,7,2.82,2.82,5.26,1-5.75,5.26-3.31,5.76s-.85-4.41-3.67-6.74a17.37,17.37,0,0,0-5.14-3.06l3.92-5Z"/><polygon class="cls-1" points="1964.1 158.43 1966.67 161.49 1967.16 172.02 1973.65 165.53 1978.18 164.43 1983.82 163.82 1983.2 155.74 1976.1 156.84 1971.82 153.65 1969.37 156.47 1964.1 158.43"/><polygon class="cls-1" points="614.35 241.33 608.71 251.61 617.04 261.04 622.92 251.61 617.29 244.26 614.35 241.33"/><polygon class="cls-1" points="735.51 171.41 744.14 179.12 747.26 186.29 739.18 190.14 735.69 195.47 730.92 187.2 725.96 184.08 731.65 179.31 735.51 171.41"/><polygon class="cls-1" points="839.47 54.04 837.08 57.9 838.74 60.47 840.02 65.06 843.14 62.86 846.26 63.41 849.02 59.37 842.96 56.06 839.47 54.04"/><polygon class="cls-1" points="162.88 261.53 154.06 272.43 161.9 281.49 169.74 273.65 166.06 263.74 162.88 261.53"/><polygon class="cls-1" points="325.98 45.9 328.55 46.39 332.22 54.59 339.08 57.53 332.22 59.37 329.29 66.1 323.9 60.84 319.25 59.86 326.59 54.47 325.98 45.9"/><polygon class="cls-1" points="428.59 79.2 427.37 85.94 422.84 91.57 429.08 93.53 433.37 96.1 436.8 86.92 428.59 79.2"/><polygon class="cls-1" points="501.45 129.41 498.14 137.86 505.37 142.26 510.39 136.51 504.75 133.33 503.53 130.51 501.45 129.41"/><polygon class="cls-1" points="477.08 148.75 483.2 150.47 483.33 155.25 488.1 159.41 482.71 162.35 480.39 166.39 477.2 161.25 470.96 157.45 475.61 154.26 477.08 148.75"/><polygon class="cls-1" points="398.1 173.49 401.65 178.88 404.84 180.47 401.65 182.92 400.18 187.08 397.74 182.92 394.18 179.86 398.1 173.49"/><polygon class="cls-1" points="392.35 236.18 395.65 235.94 400.8 240.84 403.74 241.57 407.78 249.78 400.31 251.25 395.53 255.53 393.2 250.63 387.2 248.06 392.84 243.53 392.84 238.63 392.35 236.18"/><path class="cls-2" d="M329.86,70.2c.93-.25,1-1.33,1.07-2.13,0-.49.08-1,.11-1.47,0-1,.06-2.11.16-3.16a7.6,7.6,0,0,1,.33-1.41,3.3,3.3,0,0,1,.26-.45,4.81,4.81,0,0,1,.51-.5,6.3,6.3,0,0,1,1-.55,8.58,8.58,0,0,1,1.41-.36c.54-.09,1.08-.15,1.61-.25a17.69,17.69,0,0,0,3.12-.82l.78-.3a4.66,4.66,0,0,0,1.09-.49,1.41,1.41,0,0,0,.57-.75,1.3,1.3,0,0,0-.33-1.2,2.79,2.79,0,0,0-1.4-.53c-.5-.13-1-.29-1.51-.43s-1.31-.31-2-.55a12.92,12.92,0,0,1-2.21-1.37,11.9,11.9,0,0,1-1.69-1.64,7,7,0,0,1-.62-1.06,13.69,13.69,0,0,1-.63-2.36c-.18-1-.34-1.92-.48-2.89a1.82,1.82,0,0,0-.46-.78,1.77,1.77,0,0,0-3,1.26,21.5,21.5,0,0,0,.25,2.52,15.85,15.85,0,0,0,.34,1.8,9.38,9.38,0,0,0,1.25,3,10.75,10.75,0,0,0,2.38,2.38,14.73,14.73,0,0,0,3.17,1.84,12,12,0,0,0-2.44.47,6.37,6.37,0,0,0-2.45,1.49A5.47,5.47,0,0,0,328.61,63c0,.23-.05.47-.06.71l-.31-.55a10,10,0,0,0-1.44-1.8,7.85,7.85,0,0,0-2.74-1.88,6.87,6.87,0,0,0-1.77-.5c.36-.23.72-.45,1.07-.69.56-.38,1.1-.78,1.63-1.19a6.93,6.93,0,0,0,1.25-1.23,6.3,6.3,0,0,0,1-1.89,9.89,9.89,0,0,0,.38-3.67c0-.58-.09-1.16-.14-1.74-.14-1.33-.31-2.66-.48-4a1.34,1.34,0,0,0-.36-.88,1.22,1.22,0,0,0-.88-.37,1.26,1.26,0,0,0-.89.37,1.15,1.15,0,0,0-.36.88c.15,1.2.31,2.4.44,3.61a20.74,20.74,0,0,1,.18,4.24,7.35,7.35,0,0,1-.3,1.14,4.77,4.77,0,0,1-.42.73,6.49,6.49,0,0,1-.89.85l.25-.19a47.06,47.06,0,0,1-4.07,2.63,10.44,10.44,0,0,0-1.1.78,2.1,2.1,0,0,0-.79,1,1.65,1.65,0,0,0,0,.88,1.46,1.46,0,0,0,.66.91,2.25,2.25,0,0,0,.71.26,4.17,4.17,0,0,0,.71.08h.58c.53,0,1.05,0,1.57,0a7.06,7.06,0,0,1,1.36.39,7.45,7.45,0,0,1,1.28.76,9.75,9.75,0,0,1,1.4,1.4,14.22,14.22,0,0,1,1.47,2.64c.17.42.33.83.47,1.26.08.21.15.43.22.65a4.36,4.36,0,0,0,.43,1.07,1.15,1.15,0,0,0,.93.53.9.9,0,0,0,.28,0Z"/><path class="cls-2" d="M435.76,99.21a1,1,0,0,0,.7-1.23,5.43,5.43,0,0,0-.37-1.07c-.16-.42-.36-.83-.55-1.24a11.15,11.15,0,0,1-.62-2.21,5.9,5.9,0,0,1,0-.73,5,5,0,0,1,.26-.89,7.11,7.11,0,0,1,.6-1.12,6.91,6.91,0,0,1,.76-.77,15.48,15.48,0,0,1,2.08-1.14c.3-.16.6-.3.9-.44a3.39,3.39,0,0,0,1.12-.73,1.32,1.32,0,0,0,.35-.84,1.36,1.36,0,0,0-.18-.66,1.69,1.69,0,0,0-1.19-.72c-.29-.06-.58-.1-.87-.18-.63-.19-1.26-.36-1.88-.58a11.54,11.54,0,0,1-1.55-.83c-.47-.29-.92-.62-1.37-1a16.2,16.2,0,0,1-1.82-1.79,6,6,0,0,1-.53-.88,5.7,5.7,0,0,1-.27-1,6.37,6.37,0,0,1,0-1.07,4.48,4.48,0,0,1,.27-.93,1.67,1.67,0,0,0,0-.83,1.59,1.59,0,0,0-1.94-1.1,1.54,1.54,0,0,0-.89.63l-.15-.6a1.26,1.26,0,0,0-2.42.67c.42,1.71.86,3.42,1.14,5.16a9.55,9.55,0,0,1,0,2,8,8,0,0,1-.44,1.59,13.05,13.05,0,0,1-1.17,1.93,21,21,0,0,1-1.61,1.78c-.59.59-1.19,1.16-1.77,1.76a4.71,4.71,0,0,0-.71.89,1.51,1.51,0,0,0,.23,1.82,2.55,2.55,0,0,0,1.57.58l.69.07,1.37.07c.33,0,.67.06,1,.1a10.7,10.7,0,0,1,1.85.48,15.76,15.76,0,0,1,2.75,1.67c.83.62,1.69,1.21,2.51,1.83.22.17.43.34.64.53a4,4,0,0,0,.38.54,1.06,1.06,0,0,0,.87.44,1,1,0,0,0,.24,0Zm-2.05-1.42,0,0,0,0Zm1.56-10.38a6.05,6.05,0,0,0-1.35,1.12,7.57,7.57,0,0,0-1.6,2.86,4.29,4.29,0,0,0-.18,1,4.61,4.61,0,0,0,0,1,6.65,6.65,0,0,0,.19,1c-.53-.41-1.06-.82-1.61-1.19a10.26,10.26,0,0,0-1.29-.74,10,10,0,0,0-2.28-.76,20.46,20.46,0,0,0-2.71-.33l.41-.38,1.35-1.29a17.88,17.88,0,0,0,2.36-2.91,8.61,8.61,0,0,0,1-2.23,7.58,7.58,0,0,0,.24-1.17,4.89,4.89,0,0,0,.45.46A18.93,18.93,0,0,0,433.14,86a13.76,13.76,0,0,0,2.43,1.21l-.3.16Z"/><path class="cls-2" d="M400.55,189.74a.73.73,0,0,0,.3-.28A1.69,1.69,0,0,0,401,189c0-.21.06-.43.08-.65s.06-.6.08-.9c0-.6.06-1.2.12-1.8a5.89,5.89,0,0,1,.33-1.18,4.6,4.6,0,0,1,.37-.64,6,6,0,0,1,.84-.83,8.19,8.19,0,0,1,1.59-.87c.37-.14.75-.27,1.13-.38a9.76,9.76,0,0,0,1.3-.4.82.82,0,0,0,.39-.95.93.93,0,0,0-.61-.64,1.72,1.72,0,0,0-.5-.11l-.71-.09a7.37,7.37,0,0,1-1.24-.36,6.06,6.06,0,0,1-.78-.45,6.38,6.38,0,0,1-.9-.9,7.94,7.94,0,0,1-.79-1.35c-.09-.23-.18-.47-.26-.7l-.18-.56a8.37,8.37,0,0,1-.24-1.08,1.27,1.27,0,0,0-.6-.78,1.32,1.32,0,0,0-1-.14l-.07,0,.48-1a1.09,1.09,0,0,0,.11-.81,1,1,0,0,0-.48-.62,1.06,1.06,0,0,0-1.44.37l-1.14,2.43a21.46,21.46,0,0,1-1,1.91c-.4.68-.83,1.33-1.27,2-.23.32-.45.64-.68,1a2.29,2.29,0,0,0-.5,1.41,1.34,1.34,0,0,0,.36.8,3.39,3.39,0,0,0,.46.39,19.08,19.08,0,0,1,3,2.71,9.9,9.9,0,0,1,1.06,1.91c.21.57.41,1.14.59,1.71l.25.86a3.5,3.5,0,0,0,.62,1.39.69.69,0,0,0,.48.19.59.59,0,0,0,.32-.09Zm2.32-8.64a6.38,6.38,0,0,0-2.24,1.92,4.93,4.93,0,0,0-.81,2.3,12.51,12.51,0,0,0-.85-1.95,9.09,9.09,0,0,0-1.93-2.3c-.29-.27-.58-.52-.88-.78s-.48-.38-.71-.58h0a22.45,22.45,0,0,0,2.38-3.36c.24-.44.46-.88.68-1.33a7.87,7.87,0,0,0,.34,1.24c.12.33.26.67.41,1a8.1,8.1,0,0,0,1.86,2.57,6.15,6.15,0,0,0,1.66,1.1l.24.09-.16.09Zm-5.58,2.73-.05-.05.05.05Zm-.06-.07-.08-.1.08.1Zm-2.83-2.6-.12-.08.12.08Z"/><path class="cls-2" d="M396.09,260.84a1.94,1.94,0,0,0,.48-1.23,6.3,6.3,0,0,0,.08-1.68l0-.34q.18-.68.42-1.35c.14-.31.28-.63.44-.93a11.43,11.43,0,0,1,.74-1.16,8.49,8.49,0,0,1,1.14-1.18,10.18,10.18,0,0,1,1.18-.62,18.76,18.76,0,0,1,4.3-1.11l-.34,0c.8-.1,1.61-.19,2.41-.26L408,251c.17,0,.35,0,.53,0a2,2,0,0,0,.42,0,1.36,1.36,0,0,0,1.35-1,1.31,1.31,0,0,0-.92-1.61l-.19,0a5.72,5.72,0,0,1-.48-.32,11.64,11.64,0,0,1-1.14-1.08c-.38-.42-.74-.86-1.08-1.31l.24.3a12.48,12.48,0,0,1-1.3-2.08,4.44,4.44,0,0,1-.15-.52,2,2,0,0,1,0-.35,5.54,5.54,0,0,1,.21-.8,9.71,9.71,0,0,1,.89-1.45l.35-.27a3.25,3.25,0,0,0,1.32-1.63,1.55,1.55,0,0,0-.4-1.49,1.59,1.59,0,0,0-1.13-.49,2.11,2.11,0,0,0-1.05.34,5.06,5.06,0,0,0-.69.53,4.42,4.42,0,0,0-.52.54l-.23.26-.16.08a8.34,8.34,0,0,1-1.46.41,4.57,4.57,0,0,1-.74,0,4.68,4.68,0,0,1-.73-.21,4.14,4.14,0,0,1-.68-.39,5.07,5.07,0,0,1-.65-.66,12.22,12.22,0,0,1-1.19-2.23c0-.09-.07-.18-.11-.27l-.18-.43a1.81,1.81,0,0,0-.64-.65,1.9,1.9,0,0,0-1.4-.18,1.87,1.87,0,0,0-1.08.83,1.78,1.78,0,0,0-.18,1.39c.18.49.35,1,.55,1.45s.27.66.42,1a8.16,8.16,0,0,0,.94,1.4,6.19,6.19,0,0,0,2.58,1.85,6.55,6.55,0,0,0,1.68.41,5.57,5.57,0,0,0,1.08,0,4.81,4.81,0,0,0,0,1.26,4.9,4.9,0,0,0,.27,1.13c.12.28.25.56.38.84s.25.44.39.66a12.19,12.19,0,0,0,1.2,1.56,11.94,11.94,0,0,0,.83.91l-.58.08a18.4,18.4,0,0,0-4.2,1c-.39.15-.77.31-1.15.5s-.52.26-.78.41a6.23,6.23,0,0,0-1.33,1.12,10.52,10.52,0,0,0-1.27,1.69,11.07,11.07,0,0,0-.51-1.31,8.71,8.71,0,0,0-3-3.31,7.38,7.38,0,0,0-1.78-.88,5.43,5.43,0,0,0-1-.25c.19-.11.37-.23.55-.35a11.34,11.34,0,0,0,2.82-2.43,7.42,7.42,0,0,0,1.43-2.81,7.55,7.55,0,0,0,0-3.66c-.31-1.13-.69-2.24-1.07-3.34a1.14,1.14,0,1,0-2.2.61,25.51,25.51,0,0,1,1.19,4,6.37,6.37,0,0,1,0,1.38,5.76,5.76,0,0,1-.26,1.07,8.15,8.15,0,0,1-.86,1.45,11.63,11.63,0,0,1-1.43,1.38,31.33,31.33,0,0,1-3,1.85c-.68.39-1.34.92-1.16,1.8s1.06,1.07,1.8,1.14c.54.06,1.08.08,1.62.13a6.52,6.52,0,0,1,1.24.35,9.37,9.37,0,0,1,1.34.78,9.64,9.64,0,0,1,1.36,1.35,6.8,6.8,0,0,1,.73,1.25,16.63,16.63,0,0,1,.85,3.26,8.72,8.72,0,0,0-.21,1.26c0,.3,0,.61-.07.91a4.8,4.8,0,0,0,.08.93,1.65,1.65,0,0,0,.19.58,1.56,1.56,0,0,0,.41.4.78.78,0,0,0,.46.14,1.19,1.19,0,0,0,.75-.3ZM391.48,251l-.13-.1.13.1Zm6.94-15.59-.09-.22.09.22Z"/><path class="cls-2" d="M481.09,171.67A.9.9,0,0,0,482,171a3,3,0,0,0-.14-1.39,2.56,2.56,0,0,1-.05-.27c0-.23,0-.46,0-.69a12,12,0,0,1,.05-1.8,10.18,10.18,0,0,1,.51-1.95,9.92,9.92,0,0,1,1.1-1.85,5.21,5.21,0,0,1,.71-.7,12.68,12.68,0,0,1,1.77-1c.39-.19.78-.37,1.18-.54.57-.22,1.14-.41,1.72-.58l.88-.24c.71-.15,1.54-.4,1.76-1.19a1.25,1.25,0,0,0-.55-1.33,2.36,2.36,0,0,0-.87-.34c-.41-.07-.82-.12-1.23-.17-.59-.07-1.18-.1-1.77-.15a5.79,5.79,0,0,1-1-.23,2,2,0,0,1-.25-.14,4.11,4.11,0,0,1-.29-.3,4.3,4.3,0,0,1-.34-.59,8.7,8.7,0,0,1-.44-1.74,8.23,8.23,0,0,1,0-1.57c0-.24.08-.49.14-.74a5.16,5.16,0,0,1,.29-.92c.05-.12.11-.23.17-.35a3.09,3.09,0,0,0,.38-.8,1.47,1.47,0,0,0-.14-1,1.33,1.33,0,0,0-.82-.63,1.09,1.09,0,0,0-.4-.07,2,2,0,0,0-.79.23l-.27.14-.66.33a8.19,8.19,0,0,1-1.46.44,4.57,4.57,0,0,1-.74,0,2.66,2.66,0,0,1-.38-.1,6.25,6.25,0,0,1-.9-.53,2.2,2.2,0,0,1-.31-.3l-.2-.3a1.55,1.55,0,0,0-1.13-.72.82.82,0,0,0-.28-.14.8.8,0,0,0-1,.55v.06A1.52,1.52,0,0,0,476,149c0,.25-.08.5-.13.75a15,15,0,0,1-.75,2.89,10.38,10.38,0,0,1-.67,1.23,6.79,6.79,0,0,1-1,.94,14.26,14.26,0,0,1-1.47,1,16.79,16.79,0,0,0-1.8.9,1.07,1.07,0,0,0-.48,1.14,1.14,1.14,0,0,0,.28.49,1.81,1.81,0,0,0,.68.37c.3.1.59.19.9.27.56.17,1.12.39,1.67.6a11.51,11.51,0,0,1,1.81,1,12.78,12.78,0,0,1,1.63,1.66l-.06-.09a16,16,0,0,1,1.41,2c.45.79.87,1.59,1.25,2.42.15.38.28.77.4,1.17s0,.67.06,1,.07.64.11,1a5.47,5.47,0,0,0,.26,1.2,1.07,1.07,0,0,0,1,.76Zm3.19-12.08a11.2,11.2,0,0,0-1.13.62,6.92,6.92,0,0,0-1.81,1.81,9.47,9.47,0,0,0-.9,1.58,6,6,0,0,0-.28.7l-.37-.71a12.9,12.9,0,0,0-.92-1.57c-.4-.54-.79-1.07-1.22-1.59a9,9,0,0,0-2.31-2,11.3,11.3,0,0,0-1.79-.85l-.81-.28.65-.41a9.62,9.62,0,0,0,2.38-2.16,5.79,5.79,0,0,0,.56-1c.16-.34.3-.69.43-1.05a15.39,15.39,0,0,0,.48-1.89,1.42,1.42,0,0,1,0-.2l.11.09a5.92,5.92,0,0,0,1.56.85,4.92,4.92,0,0,0,3,.1v0a8.34,8.34,0,0,0,.13,3.3,7.32,7.32,0,0,0,.81,2.11,4.31,4.31,0,0,0,1,1.15,4,4,0,0,0,1.47.77l.14,0c-.41.17-.8.36-1.19.56Z"/><path class="cls-2" d="M506.85,145.43a1.08,1.08,0,0,0,.48-1.18,4.39,4.39,0,0,0-.21-.61v0a7.06,7.06,0,0,1,0-1.3,5.54,5.54,0,0,1,.3-1.13,6.83,6.83,0,0,1,.58-1,13.86,13.86,0,0,1,1.93-1.82,13.12,13.12,0,0,1,1.56-1c.41-.21.84-.4,1.26-.58a1.8,1.8,0,0,0,.7-.27,1,1,0,0,0,.48-.83,1,1,0,0,0-.48-.84,1,1,0,0,0-.51-.14,1.38,1.38,0,0,0-.54.13h0l-.11,0a11.76,11.76,0,0,1-2,.06,12.17,12.17,0,0,1-2.36-.66,10.87,10.87,0,0,1-1.42-.78A5,5,0,0,1,506,133a7.93,7.93,0,0,1-.74-1.3,4.78,4.78,0,0,1-.25-.84,2.94,2.94,0,0,1,0-.42l0-.17a1.28,1.28,0,0,0-.12-1,1.3,1.3,0,0,0-.75-.57,1.26,1.26,0,0,0-1.34.47l.36-1.6a1.45,1.45,0,0,0-1-1.76,1.43,1.43,0,0,0-1.76,1c-.29,1.3-.57,2.6-.91,3.89-.17.66-.35,1.3-.55,2a15.26,15.26,0,0,1-.55,1.47,19.48,19.48,0,0,1-1.06,2.15l-.28.47c-.06.1-.12.2-.17.3a1.75,1.75,0,0,0-.22,1.28l.18.42a1.32,1.32,0,0,0,.46.45,2,2,0,0,0,.69.28c.35.06.7.09,1.05.13s.68.11,1,.19a8.17,8.17,0,0,1,1.21.4,8.07,8.07,0,0,1,1.38.84,6.52,6.52,0,0,1,.85.89c.31.4.6.82.88,1.24s.46.69.67,1.06v0a3.86,3.86,0,0,0,.25.64,1.36,1.36,0,0,0,.48.53.83.83,0,0,0,.49.14,1.16,1.16,0,0,0,.56-.14Zm-3.44-3.64-.05-.07.05.07Zm2.32-2.18a4.53,4.53,0,0,0-.43.92,6.83,6.83,0,0,0-1.28-1.35l-.77-.59a5.34,5.34,0,0,0-1.08-.58,12.06,12.06,0,0,0-1.26-.48,6.87,6.87,0,0,0-1-.24c.24-.37.44-.77.65-1.16a24.31,24.31,0,0,0,1.11-2.7,27.37,27.37,0,0,0,.73-2.65l0-.12a4.89,4.89,0,0,0,.05.66,5.73,5.73,0,0,0,.51,1.58,6.54,6.54,0,0,0,1.65,2.21,8.74,8.74,0,0,0,2.94,1.47,7.84,7.84,0,0,0,.83.23,10,10,0,0,0-2.71,2.8Z"/><path class="cls-2" d="M839.93,67.77a1.51,1.51,0,0,0,.63-.87c0-.15.08-.29.11-.44.2-.35.42-.68.65-1a7.74,7.74,0,0,1,1.16-1.2,4.48,4.48,0,0,1,.72-.44,2.52,2.52,0,0,1,.39-.12h.29l.24.07.29.17a3.7,3.7,0,0,1,.48.49,3.26,3.26,0,0,1,.22.34l.14.24a1.49,1.49,0,0,0,.42.41,1,1,0,0,0,.51.13,1,1,0,0,0,.72-.29,2.08,2.08,0,0,0,.5-.89,11.58,11.58,0,0,1,1.21-2A13.51,13.51,0,0,1,850,60.88c.26-.19.52-.38.8-.55l.1,0a5,5,0,0,0,.67-.28,1.67,1.67,0,0,0,.63-.44,1.15,1.15,0,0,0,.29-1.1,1.12,1.12,0,0,0-.79-.79,1.83,1.83,0,0,0-1.41.32l-.17,0a5.24,5.24,0,0,1-1,0,6.67,6.67,0,0,1-1.08-.31,11.89,11.89,0,0,1-2-1.15,5.31,5.31,0,0,1-.69-.65c-.15-.23-.29-.47-.42-.7a1.48,1.48,0,0,0-2.56,1.49,8.88,8.88,0,0,0,1,1.36,7.24,7.24,0,0,0,1.45,1.07,10.76,10.76,0,0,0,1.17.6,9.89,9.89,0,0,0,1.33.52,10.14,10.14,0,0,0-1.07,1.44,7.44,7.44,0,0,0-.44.78l-.06.13a3.11,3.11,0,0,0-1.61-.85,4.25,4.25,0,0,0-3.51,1.41q-.08-.45-.18-.9A7.41,7.41,0,0,0,839,59.05a5.9,5.9,0,0,0-.94-.78,5.09,5.09,0,0,0,.5-.3,4,4,0,0,0,.83-.81A5.25,5.25,0,0,0,840,56c.28-.71.45-1.47.66-2.2a.85.85,0,0,0-1.64-.45c-.21.77-.41,1.54-.69,2.29a6.48,6.48,0,0,1-.33.57,3.89,3.89,0,0,1-.36.34,3.32,3.32,0,0,1-.69.39l-.21.08a3.39,3.39,0,0,0-.53.2,1.21,1.21,0,0,0-.58.7,1,1,0,0,0,.27.94,6.18,6.18,0,0,0,.83.62l.54.39a6,6,0,0,1,.64.59,8,8,0,0,1,.58,1,10.81,10.81,0,0,1,.6,2.23,10,10,0,0,1,0,1.64l-.2.36a1.75,1.75,0,0,0-.23,1.7.94.94,0,0,0,.81.46,1,1,0,0,0,.47-.12Zm4.93-3.42a.27.27,0,0,1-.07-.08l.07.08Zm3.8-2.1.09-.12-.09.12Z"/><path class="cls-2" d="M153.66,21.1c1.75-1.8,3.52-3.57,5.31-5.33,1.42-1.4,2.83-2.83,4.3-4.19,1-.91,1.93-1.85,2.95-2.71s2-1.66,3-2.45l1.43-1.12h0l0,0c.8-.61,1.6-1.21,2.41-1.8a1.08,1.08,0,0,0,.46-.59,1.05,1.05,0,0,0-.1-.78,1,1,0,0,0-.6-.45.91.91,0,0,0-.77.1c-1,.7-1.94,1.42-2.89,2.16-.46.36-.93.71-1.38,1.08l-1.5,1.23-1.08.92c-.33.29-.69.58-1,.89l-2.78,2.62c-.76.72-1.49,1.48-2.23,2.21l-1.94,1.94c-1.64,1.64-3.28,3.29-4.88,5a.92.92,0,0,0,.66,1.57.91.91,0,0,0,.65-.26ZM170.42,5.46l.06,0-.06,0Z"/><path class="cls-2" d="M1328.62,257.93a1.22,1.22,0,0,0,.89-1.16,4.3,4.3,0,0,0-.19-1.06c0-.22-.09-.44-.13-.66-.08-.43-.15-.85-.21-1.27a28,28,0,0,1-.22-6.53,12.22,12.22,0,0,1,.65-2.6,6.53,6.53,0,0,1,.64-1.08,8.11,8.11,0,0,1,1-1,13.6,13.6,0,0,1,2.12-1.23l-.06,0,.59-.25-.19.08.77-.28a6.21,6.21,0,0,1,1-.25,2.2,2.2,0,0,0,.37.06,1.19,1.19,0,0,0,1.18-1.18h0a1.12,1.12,0,0,0-.53-1l0,0a11.07,11.07,0,0,1-.46-2.29c0,.11,0,.22.05.33a16.48,16.48,0,0,1,0-3.58,1.87,1.87,0,0,1,0-.25l.06-.08c.43-.61.89-1.19,1.3-1.81.09-.13.16-.25.24-.38a1.46,1.46,0,0,0,.13-.25,2,2,0,0,0,.25-.55,1.39,1.39,0,0,0,0-.78,1.81,1.81,0,0,0-.35-.62,1.51,1.51,0,0,0-.62-.37l-.46-.06a2.1,2.1,0,0,0-.5.09,2.44,2.44,0,0,0-1.11.76,5,5,0,0,0-.75,1.17,11.79,11.79,0,0,0-.61,1.82h0a13.32,13.32,0,0,1-1.77,1.91,7.42,7.42,0,0,1-1,.58,7.66,7.66,0,0,1-1.13.33,5.61,5.61,0,0,1-.82,0,7.4,7.4,0,0,1-1.32-.38,14,14,0,0,1-2.57-1.6,15,15,0,0,1-1.75-1.53,6.9,6.9,0,0,1-.48-.89c-.07-.16-.13-.33-.2-.49a1.93,1.93,0,0,0-.8-1,1.73,1.73,0,0,0-2.38.62,1.66,1.66,0,0,0-.17,1.34c.19.49.37,1,.59,1.45a7.14,7.14,0,0,0,.89,1.37,10,10,0,0,0,1.76,1.48c.59.45,1.22.84,1.85,1.23a10.79,10.79,0,0,0,1.71.83,7.73,7.73,0,0,0,3.22.58,7.42,7.42,0,0,0,3-.94,7.28,7.28,0,0,0,1.09-.75c0,.2,0,.39.07.58.07.62.17,1.24.3,1.85,0,.13.06.26.1.39-.32.08-.63.18-.94.29a20.15,20.15,0,0,0-2.12.95,9.13,9.13,0,0,0-2.07,1.52,6.89,6.89,0,0,0-1.41,2,10.65,10.65,0,0,0-.77,2.46,13.11,13.11,0,0,0-.29,2.65c0,.51,0,1,0,1.52-.41-.65-.83-1.28-1.29-1.89a13.58,13.58,0,0,0-4.34-4.06,16.65,16.65,0,0,0-2.7-1.19,6.63,6.63,0,0,0-1.19-.26,11.11,11.11,0,0,0,1.66-3.16,14.71,14.71,0,0,0,.78-4.21,16.63,16.63,0,0,0-.24-3.79c-.12-.63-.23-1.26-.35-1.89-.23-1.25-.53-2.49-.81-3.73a1.16,1.16,0,1,0-2.23.62c.44,2,.93,4,1.22,6.08a18.16,18.16,0,0,1,0,3.9,14.44,14.44,0,0,1-.78,2.9,9.9,9.9,0,0,1-1,1.82,12.71,12.71,0,0,1-1.74,1.7h0a3.52,3.52,0,0,0-.45.18,2.34,2.34,0,0,0-.51.36,1.27,1.27,0,0,0,0,1.78v0a1.23,1.23,0,0,0,.88.36,1.14,1.14,0,0,0,.61-.17,5.71,5.71,0,0,1,.82-.18,9,9,0,0,1,1.72,0,11.05,11.05,0,0,1,1.94.57,14.88,14.88,0,0,1,2.26,1.3,14.71,14.71,0,0,1,2,2.07,31,31,0,0,1,2.56,4c.38.7.72,1.42,1.09,2.14l.54,1a5,5,0,0,0,.86,1.39,1.28,1.28,0,0,0,.86.36,1.18,1.18,0,0,0,.31-.05ZM1329,254v-.12s0,.08,0,.12Zm6.21-13.33h0Zm-18.52-4.42s0-.06,0-.09v.09Zm15.16-2.7.09-.07-.09.07Z"/><path class="cls-2" d="M1427.16,58.05a1.6,1.6,0,0,0,.43-1,3.21,3.21,0,0,0-.07-1,2.64,2.64,0,0,0,0-.28,16.59,16.59,0,0,1,.88-3,11.47,11.47,0,0,1,.95-1.76,6.75,6.75,0,0,1,.84-.85,8.14,8.14,0,0,1,1.49-.86,21.06,21.06,0,0,1,3.22-.9c.52-.12,1-.21,1.57-.31l.84-.17a2.72,2.72,0,0,0,.73-.24,1.17,1.17,0,0,0,.57-1,1.11,1.11,0,0,0-.84-1.1,13.75,13.75,0,0,0-2.31-.18l-2.31-.08-2-.07c-.61,0-1.2-.09-1.8-.16a11,11,0,0,1-1.29-.3,3.64,3.64,0,0,1-.39-.23,8,8,0,0,1-.64-.66,6.51,6.51,0,0,1-.58-.95A8.81,8.81,0,0,1,1426,41a25.6,25.6,0,0,1-.1-3.16,1.4,1.4,0,0,0-1.39-1.39h0l.33-1.35a1.74,1.74,0,1,0-3.35-.92,50,50,0,0,1-1.9,6.69,9.32,9.32,0,0,1-.8,1.36A15.66,15.66,0,0,1,1417,44l-1.19.89c-.67.5-1.39.93-2,1.45a2.17,2.17,0,0,0-.71,1.09,1.85,1.85,0,0,0,.52,1.8,3.61,3.61,0,0,0,2.45.7c.59,0,1.16.07,1.74.13a7.55,7.55,0,0,1,1.48.41,9.78,9.78,0,0,1,1.62,1c.39.32.77.64,1.15,1a11.13,11.13,0,0,1,1,1.08,9.86,9.86,0,0,1,.73,1.09c.26.46.49.93.7,1.4a5.05,5.05,0,0,1,.18.55,3.88,3.88,0,0,0,.11.85,1.51,1.51,0,0,0,1.43,1.08,1.47,1.47,0,0,0,1-.44Zm-1-7.37c-.18.4-.35.8-.52,1.19l-.35-.48c-.32-.41-.64-.8-1-1.18a11,11,0,0,0-1.07-1c-.43-.36-.88-.71-1.35-1a9.72,9.72,0,0,0-2-1,7.21,7.21,0,0,0-1-.31,12.24,12.24,0,0,0,3.66-4.27,16.69,16.69,0,0,0,.66-1.65,14,14,0,0,0,.24,1.58,7,7,0,0,0,2.16,3.78,4.61,4.61,0,0,0,1.82,1,7.87,7.87,0,0,0,1.37.25,7.56,7.56,0,0,0-2.64,3.08Zm1.06-6.66-.06-.08.06.08Z"/><path class="cls-2" d="M1457.78,76.72a7,7,0,0,0,.73-1,8.35,8.35,0,0,1,1-1,18.43,18.43,0,0,1,2-1.17c.5-.27,1-.51,1.54-.74a14.31,14.31,0,0,1,2.71-.81,9.66,9.66,0,0,1,2-.07,4.78,4.78,0,0,1,.57.12,1.86,1.86,0,0,0,1.37.57,1.54,1.54,0,0,0,1.31-.75,1.57,1.57,0,0,0,0-1.53,1.4,1.4,0,0,0-.42-.48,4.77,4.77,0,0,1-.17-.62,7.92,7.92,0,0,1,0-1.29,8.52,8.52,0,0,1,.27-1,9.16,9.16,0,0,1,.43-.82c.65-.12,1.28-.28,1.92-.44a12.56,12.56,0,0,0,1.77-.66,7.1,7.1,0,0,0,.86-.46,2.2,2.2,0,0,0,1.09-1.23,1.63,1.63,0,0,0-.5-1.68,2.73,2.73,0,0,0-1.62-.6,6.89,6.89,0,0,0-3.47.79,6.7,6.7,0,0,0-2,1.46,9.84,9.84,0,0,1-1.8,0l-.52-.11-.45-.26a6.25,6.25,0,0,1-.57-.58,10.22,10.22,0,0,1-.75-1.38,17.61,17.61,0,0,1-.92-3c-.08-.39-.14-.79-.2-1.18a21.55,21.55,0,0,1-.1-2.27,1.76,1.76,0,0,0-1-1.58c0-.09,0-.18.08-.28a1.88,1.88,0,0,0-3.63-1c-.33,1.21-.65,2.43-1,3.63l-.56,1.8c-.14.46-.33.92-.5,1.37a14.61,14.61,0,0,1-1.21,2.28,8.68,8.68,0,0,1-1,1,11.16,11.16,0,0,1-1.87,1.07c-.43.17-.87.32-1.31.46a3.62,3.62,0,0,0-1.49.75,2,2,0,0,0-.56,1.35,2.26,2.26,0,0,0,.38,1.18,9.42,9.42,0,0,0,1.3,1.45,10.59,10.59,0,0,1,.89,1,12.66,12.66,0,0,1,1,1.79c.34.85.64,1.71.9,2.6.14.47.26,1,.38,1.44,0,.2.11.41.17.62a4,4,0,0,0,.27.73,1.84,1.84,0,0,0,.74.8,1.35,1.35,0,0,0,.78.23,1.7,1.7,0,0,0,1.18-.48Zm5.47-4.08.1,0-.1,0Zm2.75-3.83a13.54,13.54,0,0,0-3.91.89,27.7,27.7,0,0,0-3,1.42,14.79,14.79,0,0,0-1.71,1.12,23.9,23.9,0,0,0-.77-2.35,11.27,11.27,0,0,0-1.07-2.21,13.38,13.38,0,0,0-1-1.35,1.47,1.47,0,0,0-.1-.13c.42-.16.84-.35,1.25-.54a9.13,9.13,0,0,0,3.19-2.56,11,11,0,0,0,1.23-2c.16-.33.3-.67.45-1s.22-.52.32-.79a18.69,18.69,0,0,0,1.12,3.09,7.35,7.35,0,0,0,2.36,3,5.7,5.7,0,0,0,1.52.76,4.44,4.44,0,0,0,1,.17,3.44,3.44,0,0,0,.46,0l0,.09a8.4,8.4,0,0,0-.22,1.93v.3h-.3q-.4,0-.81,0Z"/><path class="cls-2" d="M736.26,200.06a7.07,7.07,0,0,0,.09-1.78c.11-.55.23-1.08.39-1.61s.36-1,.57-1.57a16.5,16.5,0,0,1,1.53-2.72,11.71,11.71,0,0,1,1.24-1.2,21.34,21.34,0,0,1,2.51-1.54c.89-.46,1.81-.86,2.73-1.27h0c.62-.25,1.24-.48,1.89-.67a20,20,0,0,1,2.15-.44l.47-.06c.43.07.87.14,1.3.23a10.37,10.37,0,0,0,1.57.2,2.8,2.8,0,0,0,1-.07,1.1,1.1,0,0,0,.78-1,1.08,1.08,0,0,0-.71-1,10.9,10.9,0,0,0-1.26-.41l-1.12-.41c-.82-.29-1.67-.48-2.48-.79a5.19,5.19,0,0,1-.76-.44,4.62,4.62,0,0,1-.49-.5,7.9,7.9,0,0,1-.63-1.09,5.87,5.87,0,0,1-.23-.82,5.34,5.34,0,0,1,0-.8,6.22,6.22,0,0,1,.25-.87l.06-.12a7,7,0,0,0,.83-.5,5,5,0,0,0,1.18-1.15,2.2,2.2,0,0,0,.35-.66,1.62,1.62,0,0,0,.14-.65c0-.2,0-.39-.08-.58a1.52,1.52,0,0,0-.74-1,1.63,1.63,0,0,0-.91-.28,2.58,2.58,0,0,0-1.5.57A8.12,8.12,0,0,0,745,176.3a9.4,9.4,0,0,1-.92.2,5.9,5.9,0,0,1-1,0,5,5,0,0,1-.76-.21,5.13,5.13,0,0,1-.65-.36,5.07,5.07,0,0,1-.65-.66,17.42,17.42,0,0,1-1.73-2.86c-.23-.57-.44-1.14-.64-1.73a2,2,0,0,0-1.93-1.5c.07-.4.13-.79.19-1.19a1.58,1.58,0,0,0-.15-1.11,1.44,1.44,0,0,0-2-.52,1.35,1.35,0,0,0-.67.86c-.14,1-.3,1.91-.46,2.86-.11.67-.28,1.33-.43,2a18.45,18.45,0,0,1-.55,1.93c-.2.61-.41,1.2-.65,1.8a16.39,16.39,0,0,1-1.4,2.44,11.79,11.79,0,0,1-1.74,1.72,19.55,19.55,0,0,1-1.85,1.14l-.72.43a6.75,6.75,0,0,0-.76.56,3.2,3.2,0,0,0-.77.83,2.89,2.89,0,0,0-.27.56,3.53,3.53,0,0,0-.05.56,1.66,1.66,0,0,0,.5,1.14,3.34,3.34,0,0,0,1.62.71,16.19,16.19,0,0,1,1.67.53,6.74,6.74,0,0,1,1,.61,6.64,6.64,0,0,1,.75.75,16.89,16.89,0,0,1,1.38,2.54c.44,1.09.85,2.2,1.28,3.3a23.32,23.32,0,0,1,1.33,4.15v.07l-.06.52a2.73,2.73,0,0,0,.37,2.19,1.08,1.08,0,0,0,.8.34,1.14,1.14,0,0,0,1.15-.85Zm1.11-5.11,0-.11,0,.11Zm7.74-8.9c-.84.32-1.66.67-2.49,1-.67.3-1.35.6-2,1a14.1,14.1,0,0,0-2.17,1.4,10.84,10.84,0,0,0-1.43,1.36,13.25,13.25,0,0,0-1.14,1.73c-.22.38-.41.77-.59,1.16-.28-.82-.57-1.63-.86-2.45a28.29,28.29,0,0,0-1.81-4.2,7.11,7.11,0,0,0-1.58-1.92,7.35,7.35,0,0,0-2.14-1.27l-.5-.2.5-.29a15.23,15.23,0,0,0,3.06-2.3,12.16,12.16,0,0,0,2.3-3.33c.32-.65.58-1.31.85-2a15,15,0,0,0,.48-1.48,15.19,15.19,0,0,0,1.09,2c.29.44.63.87.95,1.29a9.55,9.55,0,0,0,1.05,1.15,9.12,9.12,0,0,0,.79.6,6.07,6.07,0,0,0,1.15.55,6.52,6.52,0,0,0,2.62.45c0,.09,0,.18,0,.26a6.19,6.19,0,0,0,.86,3.19A8.74,8.74,0,0,0,745,185a4.67,4.67,0,0,0,.86.8c-.24.07-.49.15-.73.24Zm4.07,1.24h0Z"/><path class="cls-2" d="M618.67,261.87a3.43,3.43,0,0,0,.43-1.17c.07-.39.14-.78.22-1.17a12.58,12.58,0,0,1,.68-2.32,7.31,7.31,0,0,1,.77-1.36,11,11,0,0,1,1.4-1.33,15.61,15.61,0,0,1,2-1.25,5.16,5.16,0,0,0,1.52,0,3.05,3.05,0,0,0,1.85-.57,1.08,1.08,0,0,0,.28-1.06c0-.11-.09-.21-.13-.31a1,1,0,0,0-.39-.39,1.79,1.79,0,0,0-.66-.26,4.1,4.1,0,0,0-1.48-.05c-.23,0-.45.07-.67.12a4.73,4.73,0,0,1-.56-.35,16.57,16.57,0,0,1-2.28-2.38c-.3-.38-.59-.77-.89-1.16l-.56-.75a16.43,16.43,0,0,1-1.34-2.15,1.44,1.44,0,0,0-2.49,1.45c.26.46.51.91.79,1.36s.53.76.82,1.12.53.66.79,1c.49.6,1,1.22,1.51,1.78a16.45,16.45,0,0,0,1.44,1.32,14,14,0,0,0-2.14,1.62,8.88,8.88,0,0,0-2.27,4.31,11.74,11.74,0,0,0-.24,1.18c0,.1,0,.19-.05.29L616,258c-.65-.9-1.32-1.81-2-2.65a17.86,17.86,0,0,0-2.15-2.11c-.69-.57-1.42-1.1-2.16-1.61l.57-.54a13.63,13.63,0,0,0,1.8-2.19c.54-.85,1.06-1.72,1.54-2.61,1.12-2.07,2.12-4.2,3.14-6.32a1.26,1.26,0,0,0,.12-.91,1.19,1.19,0,0,0-2.16-.28q-1.26,2.63-2.55,5.24c-.32.63-.66,1.24-1,1.85a27.07,27.07,0,0,1-1.63,2.56,15.45,15.45,0,0,1-1.31,1.37c-.23.21-.47.42-.68.65a2.22,2.22,0,0,0-.55.9,1.68,1.68,0,0,0,.22,1.22,3.33,3.33,0,0,0,1.12,1l.58.39c.4.27.79.56,1.18.84a21.41,21.41,0,0,1,1.92,1.77,24.7,24.7,0,0,1,1.74,2.09l-.18-.23c.45.59.9,1.19,1.34,1.79.19.26.38.53.58.79.46.62.93,1.44,1.74,1.6l.27,0a1.44,1.44,0,0,0,1.23-.7Zm-.76-1.36h0Zm-.11,0Z"/><path class="cls-2" d="M162.51,284.94a1.55,1.55,0,0,0,.88-.67,3.28,3.28,0,0,0,.41-1l.21-.68c.11-.41.26-.8.4-1.19a12.48,12.48,0,0,1,1.17-2.08c.46-.56.94-1.09,1.45-1.6a11,11,0,0,1,1.09-.94,25.08,25.08,0,0,1,2.94-1.86l1.08,0a5.84,5.84,0,0,0,2.55-.5,2.21,2.21,0,0,0,1.44-1.79,1.35,1.35,0,0,0-1-1.29,5.13,5.13,0,0,0-1.3-.14,11,11,0,0,0-1.51.13,6.21,6.21,0,0,0-1.43.39,4.74,4.74,0,0,1-.5-.15,5,5,0,0,1-.54-.31,6.14,6.14,0,0,1-.51-.51,9.15,9.15,0,0,1-.72-1.3,11.54,11.54,0,0,1-.64-2.37,9.64,9.64,0,0,1,0-1.78c.07-.4.16-.79.26-1.19a1.75,1.75,0,0,0-3.37-.92,13.92,13.92,0,0,0-.44,2.58,11.74,11.74,0,0,0,.34,3,11.18,11.18,0,0,0,1,2.63,6.48,6.48,0,0,0,1.59,2.05,18.3,18.3,0,0,0-1.53,1.08,15.86,15.86,0,0,0-1.62,1.44c-.31.31-.59.67-.87,1a9.83,9.83,0,0,0-1.32,2c0,.09-.08.18-.13.27a17.84,17.84,0,0,0-.85-1.83,11.62,11.62,0,0,0-2.62-3.59c-.22-.18-.46-.35-.7-.52a4.28,4.28,0,0,0-1.08-.51l-.32-.11c.69-.55,1.36-1.13,2-1.7a17.94,17.94,0,0,0,2.44-2.64l-.12.15c.44-.56.88-1.11,1.28-1.69s.7-1,1-1.54c.74-1.18,1.45-2.38,2.15-3.58a1.78,1.78,0,0,0-3.07-1.8c-.7,1.21-1.4,2.41-2.14,3.58-.57.91-1.18,1.77-1.82,2.62-.55.67-1.1,1.32-1.71,1.93s-1.38,1.25-2.08,1.87l-1,.88a6.7,6.7,0,0,0-1,1.14,2.85,2.85,0,0,0-.33.71,4,4,0,0,0-.07.59,1.64,1.64,0,0,0,.22.78,2.2,2.2,0,0,0,1.55,1.09c.22.06.45.1.67.15.53.14,1.06.28,1.58.46a4.53,4.53,0,0,1,.55.34,7,7,0,0,1,.87.85,22.31,22.31,0,0,1,1.49,2.48c.35.67.66,1.35,1,2q.27.69.51,1.38c.07.21.13.43.18.64s.07.36.12.53a1.44,1.44,0,0,0,.37.63,1.76,1.76,0,0,0,.69.39,1.3,1.3,0,0,0,.78,0ZM160.72,283h0Z"/><path class="cls-2" d="M1967.18,175.25c.7-.13.85-.86.89-1.49a14.36,14.36,0,0,1,1.5-2.42c.51-.63,1-1.24,1.61-1.83a16,16,0,0,1,1.76-1.52,18.09,18.09,0,0,1,3-1.83,14.7,14.7,0,0,1,2.74-.77c.46,0,.93-.08,1.4-.1a11.13,11.13,0,0,1,1.28.08,9.41,9.41,0,0,1,1.16.3c.62.31,1.27.66,2,.26a1.4,1.4,0,0,0,.67-1.22,6.89,6.89,0,0,0-.14-.91c-.07-.34-.17-.68-.25-1s-.11-.58-.16-.88c-.06-.49-.1-1-.12-1.48a13.93,13.93,0,0,1,.1-1.94c0-.23.06-.46.11-.68a12.33,12.33,0,0,1,.51-1.8c.06-.13.11-.25.17-.37a8.52,8.52,0,0,0,1.23-1c.23-.23.45-.46.66-.71l.52-.66a2.25,2.25,0,0,0,.33-.68c0-.17.05-.34.07-.51a1.55,1.55,0,0,0-.21-.76,1.6,1.6,0,0,0-1.42-.86,2.65,2.65,0,0,0-1.39.43,6.25,6.25,0,0,0-1.75,1.87c-.1.13-.18.27-.27.41-.34.19-.69.35-1.05.51a17.29,17.29,0,0,1-3.44,1,11,11,0,0,1-2.36,0,6.94,6.94,0,0,1-1.09-.27,6,6,0,0,1-.64-.38,6.54,6.54,0,0,1-.61-.57,10.09,10.09,0,0,1-.79-1.49c-.35-.85-.68-1.71-1-2.57a2.07,2.07,0,0,0-.91-1.18,2,2,0,0,0-1.52-.2,1.93,1.93,0,0,0-1.18.91,1.87,1.87,0,0,0-.2,1.51c.46,1.3,1,2.6,1.53,3.85l-.09.23a5.27,5.27,0,0,1-.45.8,5.9,5.9,0,0,1-.55.57,5.32,5.32,0,0,1-.93.53,12.24,12.24,0,0,1-2.54.62l-.71.08a5.58,5.58,0,0,0-1,.12,1.08,1.08,0,0,0-.64,1.57,2.6,2.6,0,0,0,.74.66,5.71,5.71,0,0,1,.64.66,7.86,7.86,0,0,1,.7,1.27c.21.55.39,1.11.55,1.69A16,16,0,0,1,1966,165c0-.1,0-.2,0-.3.13,1.48.18,3,.21,4.44l0,2.34c0,.5,0,1,0,1.52a2.14,2.14,0,0,0-.1,1.81,1,1,0,0,0,.86.47l.23,0Zm.92-1.56,0-.07a.64.64,0,0,0,0,.07Zm11.22-10.87a12.33,12.33,0,0,0-4.68,1.28,17.06,17.06,0,0,0-3.81,2.61,18.36,18.36,0,0,0-1.6,1.58,15.74,15.74,0,0,0-1,1.27c0-1.12.06-2.25,0-3.37a16.37,16.37,0,0,0-.61-4.35,11,11,0,0,0-1.05-2.5,4.49,4.49,0,0,0-.4-.57l.22-.06c.38-.09.76-.2,1.14-.32a10.57,10.57,0,0,0,1.1-.45,5.26,5.26,0,0,0,1.46-1,4.25,4.25,0,0,0,.79-1,5.13,5.13,0,0,0,.68.72,6.83,6.83,0,0,0,3,1.58,12.71,12.71,0,0,0,7.12-.78c-.07.5-.11,1-.13,1.48a13.74,13.74,0,0,0,.35,3.78l.07.25-.26-.05a12.14,12.14,0,0,0-1.69-.13l-.66,0Z"/><path class="cls-2" d="M1943.44,256.45c.68-.17.88-.78,1.1-1.37.11-.28.21-.56.31-.84.4-.9.81-1.78,1.27-2.63a15.42,15.42,0,0,1,.81-1.37c.28-.4.57-.78.86-1.17s.79-.95,1.23-1.39.91-.86,1.39-1.27a19.22,19.22,0,0,1,2.31-1.37c.41-.21.81-.42,1.23-.61l.72-.36a2.23,2.23,0,0,0,1-.79,1.38,1.38,0,0,0-.5-1.86,2.54,2.54,0,0,0-1.49-.2c-.49,0-1,.07-1.45.13l-1.41.14a15.07,15.07,0,0,1-2.77.07,6.08,6.08,0,0,1-.74-.16l-.32-.19c-.11-.11-.22-.22-.32-.34a9.85,9.85,0,0,1-.92-1.61,34.34,34.34,0,0,1-1.19-4.8c-.31-1.41-.58-2.83-.84-4.25a1.67,1.67,0,0,0-.78-1,1.74,1.74,0,0,0-1.32-.17,1.67,1.67,0,0,0-1,.78,1.84,1.84,0,0,0-.18,1.32c.07.33.13.65.19,1-.11.38-.22.76-.34,1.14-.17.6-.41,1.19-.62,1.79a21.31,21.31,0,0,1-1.19,2.51c-.54.92-1.1,1.82-1.72,2.69-.41.52-.84,1-1.29,1.5a20.13,20.13,0,0,1-1.6,1.6,1.35,1.35,0,0,1-.26.15,2.67,2.67,0,0,0-.34.15,1.26,1.26,0,0,0,.29,2.29l.61.06.37.1a16.41,16.41,0,0,1,2.38,1.5c.54.44,1,.91,1.56,1.4a20.05,20.05,0,0,1,1.38,1.53,10.29,10.29,0,0,1,1,1.64c.23.56.44,1.13.64,1.71l.33,1,.18.49a2.26,2.26,0,0,0,.5.86,1,1,0,0,0,.73.3.84.84,0,0,0,.27,0Zm4.79-11.36c-.54.53-1.06,1.07-1.55,1.65a17.26,17.26,0,0,0-2.47,3.75q-.43.87-.81,1.77c0-.15-.09-.29-.14-.43-.14-.38-.28-.76-.45-1.13a8.93,8.93,0,0,0-1.16-1.92c-.38-.47-.76-.93-1.17-1.36a17.87,17.87,0,0,0-2.68-2.3c-.39-.28-.81-.53-1.23-.78.42-.4.83-.82,1.21-1.26a21.78,21.78,0,0,0,2.46-3.34c.39-.66.75-1.32,1.1-2,.11-.22.21-.44.31-.67a18.43,18.43,0,0,0,1.29,4.1,10.26,10.26,0,0,0,1.37,2,5.41,5.41,0,0,0,1,.81,3.82,3.82,0,0,0,1.34.54,9.39,9.39,0,0,0,2,.14l-.45.41Zm-7.51,6.89,0-.11,0,.11Zm7.17-3,.06-.08-.06.08Z"/><path class="cls-2" d="M1716.69,89.53a5.86,5.86,0,0,0,.78-1.35,21.91,21.91,0,0,1,1.25-1.93,18.19,18.19,0,0,1,2.21-2.35,11.93,11.93,0,0,1,2.27-1.18,21.93,21.93,0,0,1,4.18-1.28,9.46,9.46,0,0,1,1.19,0h.82l.4,0a1.32,1.32,0,0,0,1.23-1.15,5.06,5.06,0,0,0,.09-.68c.1-1.07,0-2.16.15-3.24a11.94,11.94,0,0,1,.65-2.5l-.09.21.24-.57c.14-.3.28-.6.43-.9.25-.46.69-1,.52-1.51a.74.74,0,0,0-.71-.54,2.31,2.31,0,0,0-1.11.33l-.59.29-1,.47a11.57,11.57,0,0,1-1.63.55c-.58.14-1.15.24-1.74.33a11.88,11.88,0,0,1-1.79,0,6.93,6.93,0,0,1-1.41-.35,4.08,4.08,0,0,1-.61-.36,4.55,4.55,0,0,1-.6-.64,4.28,4.28,0,0,1-.4-.69,30.58,30.58,0,0,1-1-3.66,1,1,0,0,0-1.09-.75c.18-.32.37-.64.55-1,.1-.17.2-.34.29-.52a1.63,1.63,0,1,0-2.81-1.65c-.74,1.31-1.48,2.61-2.25,3.89-.35.57-.71,1.13-1.07,1.69s-.6.86-.91,1.28l-.58.71c-.23.28-.49.54-.74.8a16.08,16.08,0,0,1-1.43,1.31c-.55.4-1.1.77-1.68,1.11-.28.17-.57.32-.85.48a5.92,5.92,0,0,0-1,.66,2.38,2.38,0,0,0-.83,1.85,2.76,2.76,0,0,0,.82,1.72,7,7,0,0,0,.72.61c.38.31.77.59,1.17.88s1,.71,1.53,1.09a7.4,7.4,0,0,1,.84.84,9.61,9.61,0,0,1,.92,1.66c.65,1.61,1,3.32,1.73,4.91a3.46,3.46,0,0,0,.75,1.16,1.74,1.74,0,0,0,1.1.45,1.58,1.58,0,0,0,1.06-.44Zm9.8-10c-.26,0-.53.07-.79.13-.56.14-1.11.27-1.66.44s-1.07.34-1.6.54a16.94,16.94,0,0,0-2.27,1,10,10,0,0,0-2.17,1.77,15,15,0,0,0-1.36,1.51c-.25.33-.5.66-.74,1-.07-.24-.13-.49-.2-.73-.21-.75-.41-1.49-.65-2.22a11.66,11.66,0,0,0-1.22-2.66,7.86,7.86,0,0,0-1.71-1.88c-.59-.49-1.23-.94-1.84-1.41l-.38-.3.93-.55a16.54,16.54,0,0,0,1.77-1.24,13.84,13.84,0,0,0,1.46-1.3l.72-.76c.25-.27.47-.57.71-.85s.45-.59.66-.89.36-.47.52-.72c.35-.53.71-1.05,1-1.6l.78-1.3a27.37,27.37,0,0,0,1.08,3.58,5.43,5.43,0,0,0,.4.8,7.4,7.4,0,0,0,.66.82,4.49,4.49,0,0,0,1.4,1,6.05,6.05,0,0,0,1.72.49,8.26,8.26,0,0,0,1.86.08c.53,0,1.06-.13,1.59-.22a13.35,13.35,0,0,0,2.48-.74,6.89,6.89,0,0,0,.73-.34,11.67,11.67,0,0,0-.75,2.3,27.63,27.63,0,0,0-.31,4.36l-.94-.12.18,0c-.31,0-.61-.08-.93-.09h-.18a6.38,6.38,0,0,0-1,.09Zm-14.34,4.18,0-.11s0,.07,0,.11Zm11.07-1,.23-.1-.23.1Zm8.86-9.32.05-.12-.05.12Zm-6-.9.09,0-.09,0Zm2.53,7h0Z"/><polygon class="cls-1" points="2463.2 234.71 2467.12 239 2468.22 245.86 2474.47 239.98 2480.71 238.51 2479.98 230.43 2473.37 229.94 2469.69 228.1 2468.1 232.14 2463.2 234.71"/><polygon class="cls-1" points="2518.8 116.06 2514.02 122.18 2509.86 125.49 2513.9 127.33 2517.45 129.41 2519.78 133.69 2524.55 127.57 2521.74 121.94 2521.61 119.25 2518.8 116.06"/><polygon class="cls-1" points="2495.29 16.27 2499.33 18.47 2500.18 22.75 2507.41 29.25 2501.04 34.02 2497 40.39 2494.67 32.06 2489.16 28.51 2493.94 23 2495.29 16.27"/><path class="cls-2" d="M2520.13,136.78a1.63,1.63,0,0,0,.45-1.08,4.2,4.2,0,0,0,0-1.12l0-.29c.08-.3.17-.59.28-.89a8.09,8.09,0,0,1,.93-1.58,10.83,10.83,0,0,1,1.49-1.46,11.56,11.56,0,0,1,1.28-.82l.32.19a4.73,4.73,0,0,0,.9.37,4.82,4.82,0,0,0,1,.14,3.84,3.84,0,0,0,1.17-.15,2.4,2.4,0,0,0,1.08-.62,2.33,2.33,0,0,0,.48-.68,1.38,1.38,0,0,0,.15-.4,1.67,1.67,0,0,0,0-.63,1.34,1.34,0,0,0-.34-.52.9.9,0,0,0-.38-.25,2.66,2.66,0,0,0-1.15-.2,6.84,6.84,0,0,0-2.46.57l-.15-.18a12.78,12.78,0,0,1-1.2-2.25c-.13-.3-.24-.6-.35-.91s-.24-.81-.36-1.22-.16-.64-.22-1c-.12-.57-.24-1.14-.33-1.71,0-.14,0-.29,0-.43a6.81,6.81,0,0,1,0-.78,1.2,1.2,0,0,0-.37-.89,1.26,1.26,0,0,0-1.76,0,1.35,1.35,0,0,0-.37.89,7,7,0,0,0,0,1.12,11.17,11.17,0,0,0,.17,1.16c.08.4.17.79.26,1.18s.26,1,.41,1.47a17.13,17.13,0,0,0,1.39,3.16,11.69,11.69,0,0,0,.87,1.33h0a11.41,11.41,0,0,0-1.75,1.36,8.88,8.88,0,0,0-1.5,1.84l-.1.16a10.23,10.23,0,0,0-4.09-4.49,11.64,11.64,0,0,0-2.74-1.18c-.42-.12-.83-.24-1.26-.33l-.61-.13.9-.65c.49-.38,1-.76,1.46-1.15a28.39,28.39,0,0,0,2.39-2.13c.43-.44.85-.88,1.26-1.34s.67-.77,1-1.16.67-.87,1-1.32.62-.86.91-1.29l1.21-1.75a1,1,0,0,0-1.65-1c-.93,1.37-1.87,2.72-2.86,4.05a28.33,28.33,0,0,1-2.41,2.61c-.92.86-1.88,1.66-2.87,2.45l-1.12.85a10.47,10.47,0,0,0-1.15.94,2,2,0,0,0-.48.83,1.14,1.14,0,0,0,0,.58,1.32,1.32,0,0,0,.33.54,1.81,1.81,0,0,0,1,.44l.69.13q.45.08.9.18a13.21,13.21,0,0,1,2.32.7,10.89,10.89,0,0,1,2.14,1.25,10.45,10.45,0,0,1,1.34,1.32,9.33,9.33,0,0,1,1.12,1.8,8.45,8.45,0,0,1,.44,1.62l-.09.45a5.2,5.2,0,0,0-.1.78l0,.48a2.45,2.45,0,0,0,0,.46,1.22,1.22,0,0,0,.27.5.73.73,0,0,0,.52.21.81.81,0,0,0,.52-.21Zm3.16-6.44.06-.05-.06.05Zm-12.85-4.08a.17.17,0,0,0,0-.05l0,.05Z"/><path class="cls-2" d="M2497.47,42.53a1.46,1.46,0,0,0,.65-.34,2.42,2.42,0,0,0,.36-.54c.07-.16.14-.31.2-.46.17-.37.31-.74.45-1.11l-.12.3.64-1.53c.29-.64.59-1.27.94-1.89s.71-1.14,1.1-1.69A16.64,16.64,0,0,1,2504,33a24.25,24.25,0,0,1,4.47-2.51c.3-.12.6-.23.9-.32a6.2,6.2,0,0,1,.62.06,5.54,5.54,0,0,0,.57.07,1.11,1.11,0,0,0,1.06-.81,1.44,1.44,0,0,0-.15-1.06,1.69,1.69,0,0,0-1.4-.71,4.92,4.92,0,0,0-1.32.16h0l-.33-.08a3.87,3.87,0,0,1-.65-.23,13.08,13.08,0,0,1-1.17-.62,9,9,0,0,1-.95-.67c-.6-.49-1.18-1-1.74-1.54l-.91-.9a8.82,8.82,0,0,1-.7-.81,13.07,13.07,0,0,1-1.12-1.91,6.06,6.06,0,0,1-.28-1,5.43,5.43,0,0,1,0-.7,4.68,4.68,0,0,1,.21-.73,5.45,5.45,0,0,1,.45-.78l.1-.11a4,4,0,0,0,.69-.47,1.43,1.43,0,0,0,.53-1,1.1,1.1,0,0,0-.53-1,1.52,1.52,0,0,0-1.22-.06,4.5,4.5,0,0,0-1.42.79l-.46.11a2,2,0,0,1-.35,0,3.76,3.76,0,0,1-.48-.13l-.2-.12-.15-.14-.18-.34a1.35,1.35,0,0,0-1-.68,1.35,1.35,0,0,0-1.3-1.09,1.32,1.32,0,0,0-.92.38,1.4,1.4,0,0,0-.39.93c-.12,1.53-.22,3.06-.4,4.59l-.09.66a8.94,8.94,0,0,1-.53,1.9,7.41,7.41,0,0,1-.77,1.3,10.58,10.58,0,0,1-1.34,1.42c-.32.28-.66.54-1,.8l.26-.2a20.14,20.14,0,0,0-2.06,1.59,1.73,1.73,0,0,0-.4.57,1.17,1.17,0,0,0-.17.63l.06.46a1.27,1.27,0,0,0,.42.65,2.07,2.07,0,0,0,.93.48c.18.06.36.09.54.14a6.21,6.21,0,0,1,.61.2,7.77,7.77,0,0,1,1.33.79,10.63,10.63,0,0,1,1.25,1.26c.33.46.66.93.95,1.42a8.87,8.87,0,0,1,.65,1.31,20.26,20.26,0,0,1,.77,2.55c.2.88.36,1.76.49,2.66l.12.88v0l0,.2,0,.1v-.05a1.66,1.66,0,0,0,.44,1,1.21,1.21,0,0,0,.85.35,1.1,1.1,0,0,0,.31,0ZM2503.9,30a14.58,14.58,0,0,0-1.75,1.19,16.68,16.68,0,0,0-1.47,1.32,14.65,14.65,0,0,0-2.46,3.33c-.25.44-.46.9-.67,1.36l-.06-.33c-.12-.6-.28-1.18-.44-1.77a12.66,12.66,0,0,0-.7-1.86,13.07,13.07,0,0,0-.85-1.56,11.36,11.36,0,0,0-1.25-1.67,8.94,8.94,0,0,0-2.07-1.71c-.28-.16-.56-.3-.85-.43q.72-.52,1.41-1.08a10.56,10.56,0,0,0,1.5-1.49,9.2,9.2,0,0,0,1-1.51,9.91,9.91,0,0,0,.79-2,12.21,12.21,0,0,0,.35-2.08c.06-.45.11-.9.15-1.36v-.1a4.23,4.23,0,0,0,1,.45,2.33,2.33,0,0,0,.36.08,5.26,5.26,0,0,0,.26,3.11,11.71,11.71,0,0,0,3.23,4.4,21.1,21.1,0,0,0,3.27,2.47c.25.15.51.29.77.42-.54.27-1.07.56-1.59.86Zm-9.32,5.23-.11-.26.11.26Zm15.55-5h0ZM2498.21,16l-.09,0,.09,0Z"/><path class="cls-2" d="M2469.59,248.63a2.11,2.11,0,0,0,.19-.55l0-.08c.17-.39.33-.77.49-1.16s.47-1,.74-1.51a9.85,9.85,0,0,1,.8-1.22,9.33,9.33,0,0,1,1.3-1.29,17.45,17.45,0,0,1,2.89-1.55c.57-.23,1.14-.45,1.73-.64a21.23,21.23,0,0,1,2.37-.64c.15,0,.3,0,.45,0a.82.82,0,0,0,.3.12,1.36,1.36,0,0,0,1.3-.34,1.33,1.33,0,0,0,.2-1.62,2.43,2.43,0,0,0-.67-.65h0a4.87,4.87,0,0,1-.15-.76,12.37,12.37,0,0,1,.05-2.58,14.09,14.09,0,0,1,.63-2.48,7.67,7.67,0,0,1,.43-.8,1.7,1.7,0,0,0-.52-2.45,1.89,1.89,0,0,0-.91-.23,5,5,0,0,0-1.09.22l-.5.15a9.56,9.56,0,0,1-1.06.24,8.36,8.36,0,0,1-1.66,0,17.29,17.29,0,0,1-3.32-.88,9.27,9.27,0,0,1-.82-.44,1.92,1.92,0,0,0-1-.25c.23-.73.43-1.48.64-2.23a1.42,1.42,0,1,0-2.74-.76,37.42,37.42,0,0,1-1.16,3.73,10.76,10.76,0,0,1-1.06,1.83,8.55,8.55,0,0,1-1.24,1.24,10.63,10.63,0,0,1-1.89,1.06l-.61.22a5.17,5.17,0,0,0-.85.42,2.39,2.39,0,0,0-.71.67,1.88,1.88,0,0,0-.24,1.58,2.41,2.41,0,0,0,.89,1.2c.28.25.59.47.86.73a9.85,9.85,0,0,1,.77.82,14.68,14.68,0,0,1,1.34,2.3,18.16,18.16,0,0,1,.8,2.82c0,.27.08.54.11.81,0-.14,0-.29-.05-.43a22.77,22.77,0,0,1,.12,2.34c0,.61.06,1.24,0,1.86a1.18,1.18,0,0,0,0,.46,1.55,1.55,0,0,0,.2.77,1.59,1.59,0,0,0,.92.71,1.75,1.75,0,0,0,.4,0,1.49,1.49,0,0,0,1.33-.76Zm-3-5.53,0-.28h0l0,.28Zm11.93-5.56c-.65.13-1.29.27-1.93.45a29.55,29.55,0,0,0-3.85,1.51,9.1,9.1,0,0,0-3,2.3l-.08.09c-.09-.51-.21-1-.34-1.52a13.15,13.15,0,0,0-1.69-3.67,11.67,11.67,0,0,0-1.35-1.71c-.14-.15-.3-.3-.46-.44.23-.1.45-.2.67-.32a12.14,12.14,0,0,0,1.65-1.1,9,9,0,0,0,1.66-1.77,9.86,9.86,0,0,0,.69-1,1.59,1.59,0,0,0,.43.33,12,12,0,0,0,2.23.9c.36.1.73.19,1.1.27.81.17,1.64.3,2.47.39a8,8,0,0,0,2,0,12.16,12.16,0,0,0-.28,1.6,12.76,12.76,0,0,0,0,2.23,7.2,7.2,0,0,0,.25,1.52Zm2,2.44-.16,0,.16,0Zm1.31-2.27,0,0h0l0,0Zm-.06-.08h0l0-.07.05.07Zm-.15-.23,0-.1,0,.1Zm-13.22-9.27,0-.1,0,.1Z"/></g></svg>