<svg xmlns="http://www.w3.org/2000/svg" width="2565.4" height="376.28" viewBox="0 0 2565.4 376.28"><defs><style>.cls-1{fill:none;}.cls-2{fill:#fff;}</style></defs><title>sky_stela</title><g id="BackGround"><rect class="cls-1" x="5.4" y="6.28" width="2560" height="370"/></g><g id="estela"><path class="cls-2" d="M2121,174.68l8.61-.09c3,0,5.91-.11,8.87-.19,1.38,0,2.74-.08,4.12-.14,2.16-.08,4.32-.15,6.47-.27l5.53-.32c1.34-.08,2.68-.2,4-.32s2.86-.22,4.29-.37l5.39-.55c1.74-.18,3.48-.38,5.22-.57.69-.08,1.32-.16,2-.26l4.79-.69,3.71-.69c.86-.16,1.72-.32,2.57-.51,1.54-.31,3.08-.62,4.61-1l5.35-1.19.75-.18,3.94-.95,2.85-.7a8.66,8.66,0,0,1,.22-1.32v0l-.84.23-.76.18-3.94,1-2.55.61-1,.22-4.36,1c-2.38.53-4.78,1-7.18,1.47-1.53.29-3.06.6-4.6.82s-3.17.45-4.75.69l-7.05.75-4.39.45c-1.43.15-2.86.26-4.29.37l-3.28.28-.73,0-3.8.22c-1.17.06-2.34.14-3.52.18l-5.75.23-3.05.09c-1.32,0-2.64.08-4,.1-3.32.06-6.63.11-9.95.15-2.07,0-4.13,0-6.21,0-1.37,0-2.75,0-4.12,0l-1.1,0-3.13-.12c-2.3-.09-4.59-.24-6.89-.41-2-.15-4-.35-6-.49-2.41-.17-4.82-.34-7.23-.48q-4-.25-8.1-.57l-3.34-.26-2.25-.16a6.77,6.77,0,0,1-.29,1.26l2.54.17c1.51.09,3,.23,4.51.35l4.28.31c1.49.11,3,.18,4.46.27,1.18.07,2.36.16,3.54.25s2.54.17,3.81.28,2.69.24,4,.33,2.52.19,3.78.25q3.12.16,6.24.28c1.63.06,3.27.08,4.91.08Zm53.35-4.15.12,0-.12,0Z" transform="translate(5.4 6.28)"/><path class="cls-2" d="M2407.83,51.7l3.24-3.2c1.85-1.83,3.67-3.7,5.5-5.56l.71-.75,3.11-3.31.71-.75,2.17-2.52,2.18-2.53.67-.84,3-3.71c1.46-1.82,2.82-3.71,4.22-5.58s3-4.09,4.46-6.14c.67-.93,1.32-1.88,2-2.83l2.84-4.09L2444,7.7l2.68-4,1.41-2.18a1.63,1.63,0,0,0,.11-.17c-.26-.08-.51-.18-.76-.28-.35.52-.69,1-1,1.58-1.36,2.08-2.75,4.15-4.13,6.22-.28.44-.58.87-.88,1.3l-3.48,5c-1.39,2-2.84,4-4.26,5.94s-3,4-4.52,6.05h0l0,0v0q-2.15,2.66-4.27,5.33c-.72.85-1.45,1.69-2.17,2.53l-2.18,2.53-2.27,2.4-2.26,2.4-2.39,2.41c-1,1-2.07,2.1-3.12,3.14s-2.38,2.35-3.59,3.52a6.92,6.92,0,0,1,.83.36l.1-.1Zm21.34-24.55Z" transform="translate(5.4 6.28)"/><path class="cls-2" d="M2044.63,168.11l-.87-.14-3.83-.6c-1.34-.21-2.67-.46-4-.7s-2.76-.48-4.13-.77l-5.45-1.14c-1.76-.37-3.51-.77-5.26-1.16-2.84-.63-5.68-1.25-8.52-1.84q-5.62-1.17-11.23-2.3c-2.71-.54-5.42-1.05-8.12-1.57l-4.75-.91c-1.1-.21-2.21-.42-3.31-.65l-5.55-1.18-3.18-.71-4.52-1-.72-.19-3.76-.95c-1-.27-2.1-.52-3.15-.82l-5.47-1.58c-2.62-.76-5.23-1.56-7.83-2.35-1.56-.47-3.14-.9-4.7-1.34-1.11-.32-2.22-.63-3.32-1-3-.86-6-1.72-9-2.62l-4.38-1.32-1-.34-4.5-1.5c-1.4-.46-2.78-.95-4.17-1.44s-2.74-.94-4.09-1.45l-5-1.87-2.94-1.17-2.82-1.13-4.82-2.17c-1.23-.55-2.46-1.12-3.68-1.69-2.53-1.17-5-2.37-7.55-3.56l-1-.53-3-1.49-4-2.07q-4.87-2.5-9.77-5-4.1-2.09-8.2-4.2c-1.06-.55-2.1-1.12-3.15-1.69s-2.36-1.29-3.54-2l-8-4.56q-2-1.12-4-2.23l-4.9-2.72c-2.18-1.21-4.33-2.47-6.49-3.7l-4.11-2.35c-1.35-.77-2.72-1.52-4.08-2.28-2.11-1.18-4.24-2.33-6.36-3.46-3.1-1.65-6.18-3.31-9.32-4.88-1.16-.59-2.32-1.17-3.5-1.72s-2.49-1.17-3.74-1.74c-2.95-1.34-5.9-2.67-8.84-4-5.84-2.73-11.66-5.55-17.5-8.29-2.53-1.19-5.09-2.3-7.65-3.42-.95-.41-1.9-.8-2.86-1.2l-1.57-.59-2.42-.92c-2.63-1-5.27-1.91-7.91-2.84-2.94-1-5.89-2-8.84-3-1.29-.45-2.57-.92-3.87-1.36l-3.78-1.31c-2.43-.84-4.85-1.7-7.29-2.53-2.6-.88-5.19-1.76-7.8-2.62-1.15-.37-2.29-.75-3.45-1.11-2.06-.65-4.13-1.28-6.19-1.9-2.64-.8-5.26-1.63-7.89-2.43-1.34-.42-2.68-.82-4-1.23l-1.48-.43-2.83-.81-7.32-2.12c-1.4-.41-2.81-.8-4.22-1.2-1.64-.47-3.27-1-4.9-1.46q-4.17-1.23-8.32-2.54c-2.69-.84-5.37-1.71-8.05-2.57-5-1.62-10.06-3.35-15.12-4.92l-3.29-1-1.45-.38q-1.27-.37-2.58-.63c-1.5-.32-3-.65-4.5-.93s-3-.6-4.51-.84L1626.9,19l-.2,0-2.89-.32c-1.23-.14-2.46-.29-3.7-.41l-5.45-.51c-2.67-.26-5.33-.53-8-.76-1.43-.11-2.85-.23-4.29-.33l-4.37-.27c-3-.17-6-.36-9-.59s-6.09-.43-9.13-.72l-4.93-.44c-1.59-.15-3.18-.26-4.77-.38-2.92-.21-5.84-.35-8.77-.46-6.16-.25-12.32-.35-18.48-.43-2.8,0-5.6,0-8.4,0s-5.39,0-8.07.14c-1.43.07-2.87.13-4.29.27l-4.82.45-1,.12-4.26.52c-1.43.17-2.86.4-4.28.62s-2.67.39-4,.64l-4.72.88c-1.48.27-3,.57-4.44.85l-1.16.25-3.3.71-.83.19-3.62.86c-1.28.3-2.55.64-3.83,1-3.43.89-6.85,1.76-10.27,2.67q-4.59,1.24-9.18,2.44c-3.28.86-6.54,1.8-9.81,2.73-1.34.38-2.67.78-4,1.17s-2.93.84-4.4,1.25-2.94.89-4.42,1.33c-2,.59-3.93,1.25-5.9,1.89-1.4.46-2.79.94-4.19,1.43s-2.64.88-3.94,1.38l-8.45,3.28-9.22,3.58c-3.3,1.27-6.59,2.6-9.89,3.91-5.27,2.11-10.56,4.15-15.84,6.27L1378,55.85c-1.46.59-2.91,1.22-4.37,1.83-3.25,1.35-6.49,2.73-9.74,4.09q-8.17,3.42-16.35,6.79l-6.55,2.7-.87.34-3.8,1.48-3.66,1.43-2.81,1.09c-1.62.63-3.22,1.3-4.83,2-.68.27-1.28.52-2,.83l-4.83,2.17c-2.29,1-4.56,2.1-6.87,3.1-2.66,1.15-5.32,2.31-8,3.45l-3.48,1.49c-1.27.54-2.54,1.12-3.81,1.69l-9.29,4.16c-2.4,1.07-4.82,2.13-7.21,3.24l-10.39,4.81c-4.73,2.18-9.52,4.24-14.28,6.35-5.28,2.34-10.56,4.68-15.84,7-1.76.67-3.5,1.37-5.27,2l-5.32,2c-1.9.69-3.79,1.39-5.69,2.1l-5.88,2.21c-2,.74-4,1.5-5.94,2.2s-4,1.42-6,2.11-4,1.39-6,2l-7.83,2.53q-5.08,1.63-10.21,3.23l-2.84.9-2.55.75c-1.74.51-3.5,1-5.25,1.47l-3.63,1.08-2.46.72L1158,142.9c-1.64.46-3.29.9-4.94,1.35l-3.69,1c-1.63.43-3.26.88-4.89,1.33-3.45.94-6.91,1.86-10.38,2.72l-10.43,2.53-3.25.78,0,.26a114.88,114.88,0,0,0-11.75,2.55c-4.36,1-9,1.73-13.08,3.7-.49.23-.24,1,.28,1,4.21-.07,8.37-1.39,12.48-2.25,4.67-1,9.55-1.63,14.07-3.16a1.12,1.12,0,0,0,.68-1.31c2.33-.56,4.66-1.13,7-1.68,6.16-1.47,12.27-3.11,18.37-4.78,1.66-.45,3.33-.88,5-1.32l4-1.08c2.77-.75,5.51-1.57,8.26-2.38l4.9-1.45,1.13-.31,3.23-.9c3-.82,5.86-1.78,8.78-2.69q8.26-2.61,16.5-5.29l.94-.32,4.15-1.42c1.32-.45,2.63-.92,4-1.38s2.62-.91,3.93-1.4l5-1.87,8.71-3.26,8.08-3,1.18-.45,3.36-1.31.17-.07,3.24-1.41q4.53-2,9-4l8.55-3.77c2.81-1.23,5.6-2.49,8.39-3.74,1.73-.77,3.43-1.59,5.15-2.38l4.06-1.88c1.35-.63,2.71-1.27,4.07-1.88l6.23-2.79,10.49-4.7c2.44-1.09,4.91-2.12,7.37-3.17,1.39-.59,2.77-1.2,4.15-1.8,1.08-.47,2.15-.93,3.22-1.42l10.79-4.88h0l0,0,0,0h0l5.57-2.26c1.86-.75,3.74-1.46,5.61-2.18l5.53-2.16,2.82-1.16,2.82-1.16q6-2.46,12-5c4.22-1.74,8.42-3.52,12.62-5.29,2-.85,4-1.68,6.06-2.52,1.69-.7,3.39-1.37,5.09-2,3.2-1.28,6.42-2.53,9.62-3.79l12.79-5.08c1.82-.72,3.65-1.42,5.47-2.12l5-1.94q5.61-2.19,11.21-4.34l3.25-1.12,3.24-1.13,3-1,3-1,2.62-.79,2.61-.79,3.26-.92c.73-.2,1.46-.41,2.18-.63l6.63-1.9c2-.58,4.1-1.13,6.16-1.69,1.76-.48,3.55-.92,5.32-1.39s3.82-1,5.73-1.53l6.32-1.64c2-.51,3.93-1.05,5.91-1.51s3.73-.89,5.6-1.3l3.31-.71,3.29-.63c2-.38,3.91-.73,5.87-1.09.61-.13,1.23-.23,1.85-.31l5.26-.8,2.92-.36c1.33-.16,2.66-.34,4-.46l3.93-.38c1.42-.13,2.86-.19,4.29-.26.76-.06,1.53-.09,2.3-.09,1.33,0,2.65-.06,4,0l7.29,0c4.75.05,9.49.09,14.24.23,2.38.06,4.76.13,7.14.23l2.62.1,1.27.07,3.61.21,3.62.27c1.52.1,3,.25,4.54.38l2.81.26c1.57.16,3.14.27,4.71.39l6.11.47c2.45.18,4.9.33,7.35.47,2.21.12,4.42.26,6.63.44l3.12.26c1.3.11,2.59.26,3.88.38l6.69.64c1.17.11,2.34.22,3.51.35l4.78.55,4.38.68c1.51.24,3,.55,4.51.84s3,.62,4.5.94c.86.17,1.72.38,2.57.63s1.71.45,2.56.72c5.34,1.63,10.62,3.44,15.94,5.15,5.9,1.9,11.79,3.8,17.74,5.55l4,1.18c1.69.5,3.4,1,5.1,1.47l8.67,2.5c1.51.43,3,.86,4.53,1.32l4.1,1.25,4,1.23c1.88.58,3.76,1.14,5.65,1.7,2.74.83,5.46,1.72,8.18,2.63,3.12,1,6.23,2.08,9.34,3.17,2.53.88,5.08,1.75,7.62,2.62,1.3.44,2.58.9,3.87,1.35,1.63.58,3.28,1.13,4.92,1.68,3.14,1,6.26,2.16,9.38,3.27,1.11.39,2.21.81,3.32,1.22l3.14,1.19,2.69,1.12-.09,0c2.54,1.1,5.08,2.2,7.59,3.37,2.8,1.32,5.61,2.65,8.4,4,2.28,1.09,4.55,2.18,6.84,3.24q5.52,2.59,11.09,5.11c1.26.57,2.5,1.16,3.75,1.74s2.33,1.13,3.5,1.72c2.57,1.29,5.1,2.64,7.64,4s4.86,2.61,7.28,3.93c1.37.74,2.72,1.52,4.08,2.28,1.63.91,3.25,1.84,4.86,2.76,2.17,1.24,4.32,2.5,6.5,3.71l8.15,4.54c2.18,1.22,4.35,2.48,6.53,3.72,1.36.78,2.71,1.57,4.08,2.32,1.59.86,3.17,1.75,4.78,2.57,5.6,2.89,11.22,5.74,16.83,8.62q4.06,2.08,8.14,4.14c1.13.57,2.27,1.12,3.42,1.66l5.16,2.42c1.22.57,2.45,1.15,3.68,1.7l4.87,2.18.16.07,2.94,1.18c1.28.51,2.56,1,3.86,1.51l5,1.88,1,.34,4.34,1.51c1.41.49,2.84,1,4.26,1.43l3.27,1.09,2.38.72,4.38,1.32c1.59.48,3.19.91,4.78,1.37l9.09,2.61c2.63.75,5.24,1.56,7.86,2.35,1.49.44,3,.86,4.49,1.29l2.43.7,2.44.61,4.47,1.14.73.16,3.79.86,3.18.71,5.56,1.18c1.1.23,2.2.43,3.31.65l4.74.91q5.22,1,10.44,2,5,1,10,2c1.83.38,3.67.8,5.5,1.2,1.38.29,2.76.6,4.14.9,3.18.7,6.38,1.37,9.57,2l1,.17,4.29.77c1.89.34,3.79.62,5.69.92,1.44.22,2.89.41,4.33.6h0a7.61,7.61,0,0,1,.07-1.26Z" transform="translate(5.4 6.28)"/><path class="cls-2" d="M1094.63,158l-3.34.58-3.29.51-5.62.87c-2.24.35-4.47.75-6.7,1.15l-2.71.52-2.45.47-5.35,1c-2,.39-4,.73-6,1.08l-3.15.56-1,.15-2.84.43-3.76.47-1.05.1-3,.29-1.07.07-3,.22-3.11.16c-.73,0-1.46.08-2.18.1-1.41,0-2.81.11-4.22.15l-6.32.14c-3.06.06-6.13.08-9.2.11-3.23,0-6.45,0-9.68,0-1.5,0-3,0-4.52,0h-3.15l-2.6,0c-1.16,0-2.32-.08-3.48-.13-1.94-.08-3.87-.19-5.79-.3l-1.48-.08c-1-.09-1.93-.16-2.9-.24-1.83-.15-3.65-.37-5.48-.58l-1.19-.16c-1-.13-2-.27-2.95-.44l-4.62-.74-.84-.15c.34-.11.41-.65,0-.74-8.7-2-17.54-2.91-26.19-5.19-4-1-8-2.28-11.94-3.67-4.43-1.56-8.74-4-13.35-4.9-.26-.06-.55.3-.29.5,6.42,5.11,16.44,7.49,24.21,9.68,7.44,2.1,15.52,4,23.39,4.34l-.47.71q3.3.6,6.6,1.12l4.65.74,2.78.37c.49.07,1,.12,1.5.17,2.85.32,5.7.57,8.56.73s5.58.29,8.37.41h.9l2.6.05h4.26c3.32,0,6.65,0,10,0,5.52,0,11.05-.09,16.57-.24,2.82-.08,5.64-.16,8.46-.31,1.39-.07,2.78-.14,4.18-.24l3-.22,3-.29q3.09-.3,6.18-.77l1.84-.28c.87-.13,1.72-.27,2.58-.43,1.46-.27,2.92-.52,4.39-.78,2.86-.5,5.71-1.08,8.57-1.63l3.81-.73c1.47-.28,3-.54,4.43-.8,2.69-.47,5.39-.88,8.09-1.3l4.44-.69,1.67-.29.3,0c.43-.55.86-1.1,1.3-1.64Z" transform="translate(5.4 6.28)"/><path class="cls-2" d="M913.61,148l-3.45-1.5c-1.15-.5-2.3-1-3.44-1.54l-1.39-.67-2.91-1.41L898.48,141l-3.36-1.67c-1.19-.59-2.37-1.2-3.55-1.8s-2.26-1.17-3.39-1.76c-1.48-.78-3-1.54-4.45-2.3-2.27-1.16-4.55-2.3-6.8-3.5-1.18-.62-2.36-1.25-3.53-1.89L869.6,126l-4.15-2.24q-1.91-1-3.75-2.1l-3.32-2-2.53-1.54-2.45-1.55c-1.11-.7-2.21-1.42-3.31-2.13s-2.25-1.42-3.37-2.12c-2.54-1.59-5.12-3.12-7.7-4.65l-8-4.75c-3-1.78-5.94-3.53-8.91-5.28l-3-1.79-.82-.45-2.37-1.32c-1.18-.65-2.38-1.27-3.57-1.91l-3.24-1.72c-1.31-.7-2.64-1.37-4-2l-3.4-1.67-1.39-.63-3-1.3-2.9-1.27c-.51-.23-1-.45-1.54-.66-2.63-1.09-5.25-2.21-7.91-3.23-2.84-1.09-5.67-2.19-8.51-3.25-2.36-.88-4.73-1.74-7.09-2.63-3.19-1.2-6.4-2.36-9.61-3.53l-4-1.42c-1.4-.5-2.78-1-4.17-1.52-2.56-.92-5.1-1.85-7.66-2.75s-5.19-1.85-7.78-2.81c-3.19-1.19-6.36-2.43-9.52-3.68-1.09-.43-2.19-.84-3.29-1.25l-4-1.53c-1.33-.51-2.68-1-4-1.49l-1.06-.36-3-1-1-.32-2.85-.88c-1.53-.47-3.08-.92-4.62-1.35l-1.39-.38-2.56-.65-3.08-.69-3.28-.65c-1.51-.31-3-.56-4.55-.82l-1.31-.23a1.37,1.37,0,0,0-1-1.45c-13.74-4.25-28.36-4.85-42.64-5s-28.56-.07-42.82.48c-27.09,1.06-55.6,3.7-80.5,15.24-.72.33-.21,1.54.54,1.28,26.33-9,53.1-12.94,80.86-13.82,13.34-.42,26.71-.45,40-.43,14.43,0,28.53,1,42.49,4.72,0,.1-.09.19-.15.29l1.21.18c2.47.37,4.91.83,7.36,1.27l3.28.65,1.54.34c1,.2,1.89.43,2.82.67,2.79.7,5.55,1.51,8.29,2.36l2.86.88,1.06.36,3,1,3,1.1c1.34.49,2.68,1,4,1.51,1.93.73,3.86,1.46,5.77,2.21,2.69,1.05,5.38,2.08,8.09,3.09,2.07.78,4.15,1.52,6.23,2.27l3.09,1.07c1.2.42,2.39.87,3.58,1.3l14.63,5.26q3.32,1.21,6.61,2.46l7,2.6c2.55,1,5.09,1.94,7.63,2.92s5.28,2.13,7.91,3.22l-.2-.08c2.86,1.24,5.73,2.49,8.58,3.77l1.09.53,2.31,1.14c1.34.66,2.66,1.35,4,2,1.09.56,2.16,1.15,3.24,1.72l3.57,1.91c2.43,1.3,4.8,2.7,7.17,4.11,2.66,1.57,5.32,3.13,8,4.71s5.33,3.17,8,4.75,5.16,3.06,7.7,4.64c1.12.7,2.25,1.4,3.37,2.12q2.44,1.57,4.9,3.14c2.21,1.4,4.46,2.72,6.71,4,1.23.73,2.5,1.41,3.75,2.11s2.77,1.48,4.16,2.23l3.79,2.07,3.53,1.89c2.52,1.34,5.07,2.62,7.61,3.91,2.36,1.2,4.69,2.45,7,3.65,1.18.6,2.36,1.21,3.55,1.79l3.37,1.67q4.1,2,8.23,4l1.19.54c.74.35,1.49.68,2.26,1l2.27,1,1.39.6,1,.42c.43-.41.87-.8,1.3-1.19Z" transform="translate(5.4 6.28)"/><polygon class="cls-2" points="2434.59 33.41 2434.59 33.41 2434.58 33.42 2434.59 33.41 2434.59 33.41 2434.59 33.41"/><path class="cls-2" d="M261.6,85.13c2.44,0,4.89,0,7.33-.08q6.87-.09,13.73-.31,6.34-.18,12.7-.57c2.47-.15,4.93-.3,7.4-.48l7.51-.51c1.89-.12,3.79-.22,5.67-.38,2.5-.2,5-.37,7.5-.62l8.53-.85,3.11-.32c1.53-.15,3.06-.34,4.59-.52l5.77-.66,3.19-.41c1.15-.14,2.32-.27,3.46-.44l14.56-2.1-.27,0,6.33-.84c2.46-.33,4.93-.6,7.39-.88,2.13-.26,4.27-.46,6.4-.69,2.58-.28,5.16-.6,7.74-.85,2.23-.23,4.47-.47,6.71-.66,2.93-.24,5.86-.48,8.79-.75l7.95-.68c2.1-.18,4.19-.39,6.29-.59s4.35-.41,6.52-.59,4.28-.42,6.42-.63l3.33-.39,2.35-.27,3.35-.38c1.6-.19,3.2-.4,4.79-.6s2.95-.4,4.43-.61l8.8-1.23,7.32-1,3-.52,4.33-.74q3.63-.65,7.26-1.25l7.42-1.27,13.11-2.25,12-2c-.16-.25-.31-.5-.45-.76s-.29-.58-.43-.89L506,57.47q-6.21,1-12.41,2.1l-5.93,1c-2.35.4-4.71.77-7.06,1.18l-6.74,1.16-3,.51-1,.14-4.32.61c-4.62.66-9.25,1.29-13.87,1.93h0l-.19,0L446,66.8c-1.89.23-3.8.42-5.7.64l-3.33.38-2.59.26c-2.05.2-4.09.38-6.14.55-3.5.3-7,.67-10.5,1-4.83.4-9.65.83-14.48,1.23l-3.29.27-3.37.33-3.36.33-3.35.37-6.54.71-3.2.34c-1.87.19-3.74.43-5.61.65s-3.75.48-5.62.73c-1.17.16-2.35.31-3.51.48l-13.74,2c-2.48.31-5,.63-7.45.92l-9.09,1-3.11.31-4.11.4-5.43.55-.75.06-3.94.31-2.55.2c-1.64.13-3.28.21-4.92.31-3.12.2-6.24.42-9.35.64-2.47.17-4.93.3-7.4.45-1.12.07-2.23.11-3.35.16l-4.78.21-2.73.08-5,.14c-1.69,0-3.39,0-5.09.09l-3.6.05c-2.6,0-5.21.09-7.81.07l-5.86,0c-1,0-2,0-2.95,0l-8.37-.31-.68,0-3.93-.29-4.61-.33-.69-.07-3.92-.37-4.59-.44L225,81a7.48,7.48,0,0,1-.65,2.11l1.15.14,2.38.23,4.43.42,2.39.23.68,0,3.93.28,3.93.29c1,.07,2,.1,3,.13l4.35.16c1,0,2,.08,3,.09l7.49,0Z" transform="translate(5.4 6.28)"/><path class="cls-2" d="M1130.9,93.31h3.86c10,0,20,0,30-.14,2.07,0,4.14-.06,6.22-.1,2.72-.06,5.44-.11,8.15-.23,2.47-.11,4.95-.21,7.41-.41,1.13-.08,2.25-.17,3.37-.29,1.73-.18,3.45-.38,5.18-.58,2-.23,3.92-.49,5.86-.81l6.49-1.13c2.35-.42,4.7-.85,7-1.36l3.25-.72,2.65-.59,2.45-.59c4.53-1.09,9-2.27,13.52-3.48,2.7-.72,5.37-1.51,8-2.3,1-.29,1.95-.55,2.93-.82l4.65-1.3c2.2-.61,4.39-1.26,6.58-1.9s4.36-1.26,6.54-1.91,4.19-1.27,6.29-1.91q3.55-1.08,7.1-2.2c2.19-.71,4.37-1.43,6.54-2.18s4.06-1.5,6.07-2.3c2.21-.88,4.41-1.77,6.61-2.7s4.33-1.84,6.49-2.78c1.06-.47,2.14-.91,3.22-1.37l3.3-1.44c2.34-1,4.66-2,7-3.05l2.87-1.3,1.15-.57c.81-.39,1.61-.78,2.41-1.19,2.69-1.35,5.32-2.79,7.94-4.26,1.75-1,3.5-2,5.26-3,2-1.13,4.1-2.23,6.16-3.31s4.08-2.14,6.12-3.21c2.37-1.27,4.79-2.47,7.21-3.66,2.21-1.08,4.38-2.24,6.56-3.38,2-1,3.93-2.12,5.89-3.2s4-2.25,6-3.41c2.14-1.26,4.27-2.56,6.37-3.89s4.43-2.84,6.65-4.22,4.19-2.6,6.31-3.85,3.92-2.37,5.88-3.55c1-.61,2-1.21,3.08-1.81,1.18-.69,2.39-1.36,3.59-2,2.07-1.17,4.17-2.3,6.25-3.45l.87-.48c-1.28.08-2.55.16-3.83.22l-.79,0-1.42.78c-1.91,1-3.82,2.09-5.69,3.19s-4,2.33-5.91,3.51-4.2,2.52-6.29,3.79c-2.47,1.5-4.9,3.05-7.33,4.6l-3.22,2.05c-.9.57-1.82,1.12-2.73,1.68-1.86,1.14-3.75,2.23-5.64,3.33-1,.61-2.09,1.19-3.15,1.77l-2.67,1.46c-1.07.59-2.14,1.17-3.22,1.74L1358,31.42c-1.13.58-2.26,1.14-3.39,1.7l-3,1.51c-2.09,1-4.15,2.19-6.23,3.27s-4,2.11-6,3.2c-2.3,1.24-4.58,2.51-6.86,3.8l-2.64,1.49c-1,.56-2,1.11-3,1.65-1.21.66-2.43,1.28-3.66,1.89s-2.37,1.18-3.56,1.76l-.74.34-2.13,1c-1,.48-2.08.93-3.13,1.39-1.28.57-2.57,1.12-3.85,1.67l-4.54,2c-2.34,1-4.66,2-7,3l.24-.09c-3.88,1.62-7.79,3.23-11.74,4.72-2.18.82-4.4,1.56-6.62,2.28q-3.09,1-6.18,2c-3.82,1.19-7.65,2.34-11.49,3.48q-6.62,2-13.26,3.81l-5.27,1.47c-1.29.36-2.58.76-3.86,1.14s-2.79.78-4.18,1.16c-2.34.65-4.68,1.25-7,1.86-2.16.55-4.32,1.1-6.49,1.62l-2.46.59c-1.18.28-2.38.53-3.57.79l-3.13.69c-1.16.26-2.34.47-3.5.7l-1,.17-2.73.48-3.19.57-3.15.52-1,.14-2.63.36c-1.52.18-3,.36-4.55.52l-2.36.25-.89.07-2.54.2-2.79.16c-.65.05-1.3.08-1.94.1l-2.75.12-4.07.12c-3.66.1-7.32.13-11,.17l-11.63.07-9.82,0c-4.2,0-8.39,0-12.58,0h-2.37l-2.54-.1q-2.85-.1-5.68-.35-3.13-.27-6.26-.59c-1.87-.18-3.74-.44-5.61-.68-.77-.13-1.55-.24-2.33-.36l-1.34-.24c-.73-.12-1.44-.26-2.16-.4l-6.57-1.3q-6.87-1.39-13.7-3c-2-.47-3.93-1-5.89-1.49s-4.19-1.12-6.27-1.74c-1.84-.54-3.66-1.16-5.49-1.76-.88-.29-1.75-.61-2.62-.93l-.92-.35-1.78-.74-.75-.33a20.77,20.77,0,0,1-1.92-.89c-1.1-.53-2.19-1.1-3.28-1.67s-2-1-3-1.58c-.32-.19-.66-.37-1-.55l-2-1.2-2.9-1.77-3-1.84c-1-.61-2-1.2-3-1.79q-2.33-1.36-4.66-2.72c-1.93-1.11-3.84-2.25-5.78-3.34s-4-2.28-5.93-3.44q-3.25-1.92-6.48-3.89l-3-1.87c-1.28-.79-2.58-1.54-3.87-2.31-1-.6-2-1.22-3-1.82l-3-1.79c-1.07-.64-2.12-1.31-3.18-1.95s-2-1.19-3-1.79-2.11-1.26-3.14-1.92-2.21-1.4-3.3-2.12c-2.39-1.56-4.76-3.13-7.13-4.72-2-1.33-4-2.68-6-4s-3.78-2.46-5.64-3.72l-5.68-3.91c-1-.68-2-1.36-3-2L957,15.63l-3-2c-1-.66-2-1.28-3.05-1.92-2.21-1.39-4.39-2.8-6.59-4.2L943.43,7l-2.62-1.6c-1.06-.65-2.11-1.27-3.17-1.91q-2.73-1.65-5.48-3.28c-1.23.28-2.47.51-3.72.68,3.54,2,7,4.16,10.54,6.27l3.2,2c1.16.7,2.29,1.43,3.42,2.15q3.57,2.28,7.15,4.52c1,.65,2,1.32,3,2l2.72,1.8c1,.66,2,1.32,3,2L964,23.3c1.93,1.33,3.85,2.67,5.81,4,2.31,1.51,4.62,3,6.9,4.56,2,1.33,3.94,2.64,5.91,4s4.09,2.73,6.16,4c1.07.68,2.13,1.36,3.21,2l3.07,1.84c1.13.68,2.26,1.36,3.38,2.05,1.4.86,2.81,1.69,4.23,2.53,1,.59,2,1.2,3,1.81s1.95,1.17,2.93,1.75,2,1.2,3,1.81l3.06,1.85c2.14,1.3,4.3,2.56,6.46,3.83l2.95,1.7,1.94,1.08,1.79,1c2.18,1.27,4.38,2.51,6.56,3.78l3.22,1.88c1,.59,2,1.19,3,1.8q3,1.78,5.93,3.54l1,.54c.65.37,1.32.72,2,1.06,1.42.73,2.84,1.48,4.29,2.17l1,.5,1.77.76,2.18.89.93.34c.58.22,1.18.43,1.77.63.87.3,1.75.58,2.62.86,1.88.61,3.77,1.17,5.66,1.72,1.07.31,2.14.58,3.21.85,1.6.42,3.19.82,4.79,1.22,4.47,1.14,9,2.09,13.48,3.07,2.24.48,4.49.9,6.73,1.33l3.11.62c1.72.33,3.44.59,5.16.85,1,.15,2,.26,3,.39s2,.24,3,.35c1.16.13,2.32.23,3.47.34s2.51.22,3.76.33l1,.06,2.83.17.89,0,2.54.1h4.16Z" transform="translate(5.4 6.28)"/><path class="cls-2" d="M2248.86,64.24l2.21,0c2.91-.08,5.81-.19,8.72-.3,2.54-.1,5.07-.26,7.59-.42s4.84-.4,7.26-.65c1.72-.17,3.44-.39,5.15-.62l8.09-1.13c2.4-.32,4.79-.72,7.18-1.09l3.48-.56c1-.16,1.94-.35,2.91-.53s2.13-.42,3.19-.63,2.17-.43,3.25-.66q4.17-.87,8.33-1.85c1.17-.28,2.34-.6,3.5-.91s2.23-.62,3.34-.94,2.35-.74,3.51-1.12c1-.33,2-.69,3-1.05s2-.71,3-1.1l2.51-1c1.62-.66,3.21-1.38,4.79-2.13s2.91-1.47,4.35-2.23,2.89-1.54,4.35-2.3,3-1.59,4.48-2.43c1.78-1,3.53-2.07,5.32-3.08,2.68-1.53,5.3-3.14,7.91-4.8,1.36-.86,2.72-1.74,4.09-2.59l2.18-1.36c.82-.51,1.65-1,2.48-1.5,1.07-.65,2.16-1.29,3.24-1.95s2.07-1.33,3.09-2,2.23-1.52,3.33-2.32c.62-.44,1.22-.92,1.84-1.38s1.38-1.08,2.07-1.62c1.55-1.23,3-2.55,4.49-3.85,2-1.75,4-3.5,5.95-5.27.86-.78,1.7-1.58,2.54-2.38s1.6-1.57,2.38-2.37c1.33-1.35,2.64-2.71,3.89-4.12l-1.2-.18c-.84.91-1.7,1.81-2.57,2.7l-2.41,2.45L2400,6.48l-1.72,1.58c-1,.91-2,1.8-3.06,2.7L2391.45,14l-2.3,2c-.86.73-1.77,1.41-2.66,2.11l-2.44,1.81c-.91.68-1.86,1.31-2.81,1.94-1.71,1.15-3.45,2.27-5.23,3.31s-3.76,2.22-5.62,3.37c-1.16.72-2.32,1.42-3.47,2.16l-3.32,2.1c-1.95,1.23-3.94,2.39-5.95,3.52-2.52,1.43-5,2.94-7.55,4.32-1,.53-2,1-3,1.56-1.21.62-2.41,1.27-3.62,1.9s-2.4,1.26-3.61,1.86c-.49.25-1,.49-1.48.72-.73.35-1.47.67-2.21,1-1.64.69-3.29,1.35-5,2l-1,.37-2,.7c-1.45.52-2.9,1-4.37,1.45-1.15.36-2.3.7-3.46,1l-1.08.29c-.76.21-1.53.4-2.3.6-2.79.71-5.62,1.31-8.43,1.93-2.26.5-4.52.92-6.78,1.38s-4.76.86-7.15,1.23c-2.66.4-5.32.84-8,1.2l-8,1.11.18,0-3.3.41c-1.17.14-2.35.23-3.52.36s-2.45.19-3.67.29-2.51.16-3.76.24c-2.55.16-5.11.24-7.66.33-2.22.08-4.45.13-6.68.19l-1.4,0c-1,0-1.9,0-2.84,0-1.28,0-2.55-.08-3.83-.13l-3.2-.16c-1.24-.07-2.48-.17-3.72-.25l-3-.26-3-.26c-1.19-.11-2.38-.2-3.57-.34l-3.27-.37c-2.15-.24-4.31-.47-6.47-.74-2.62-.33-5.24-.65-7.86-.92s-5-.54-7.44-.82-5.17-.58-7.77-.78c-4.76-.37-9.51-.68-14.26-1.07l-3.62-.32-.86-.11-2.47-.28c-2.18-.26-4.37-.55-6.55-.84l-3.19-.51-.86-.17-2.46-.49c-2.31-.46-4.61-1-6.91-1.56-2.47-.6-4.93-1.23-7.4-1.87s-4.86-1.25-7.28-1.92c-2.12-.58-4.25-1.15-6.37-1.74s-4.48-1.31-6.71-2c-1-.32-2.06-.69-3.08-1q-1.77-.59-3.51-1.23c-1-.37-2-.74-3-1.14l-4.82-1.93-2.19-.93c-1.11-.46-2.2-1-3.29-1.43-1.93-.86-3.85-1.74-5.77-2.61-2.15-1-4.26-2-6.37-3l-5.6-2.78c-2.13-1.05-4.24-2.14-6.36-3.22s-4.07-2.08-6.09-3.15c-3.86-2-7.75-3.95-11.65-5.88-1.73-.85-3.45-1.75-5.18-2.64s-3.58-1.81-5.37-2.71c-2.26-1.13-4.55-2.2-6.83-3.28-1-.5-2.13-1-3.2-1.41-.78-.34-1.55-.66-2.34-1-1-.43-2.1-.84-3.16-1.26l-1.31-.48-2-.75c-2.41-.9-4.83-1.77-7.25-2.64l-1.69-.6-2.17,0h-.25c-1.13,0-2.26,0-3.39-.07l.18.07c1.47.58,3,1.09,4.46,1.62,2.74,1,5.49,1.92,8.22,2.92,1.58.59,3.17,1.16,4.75,1.74l2.1.82,2.07.83,3,1.3c1.08.49,2.15,1,3.22,1.5,2.26,1.06,4.49,2.15,6.72,3.26q2.89,1.44,5.76,2.92c2.24,1.15,4.51,2.24,6.77,3.36q3.12,1.56,6.22,3.15c1.95,1,3.89,2,5.83,3q6.41,3.29,12.86,6.45l3.14,1.55c1.09.54,2.2,1,3.3,1.56.95.45,1.92.86,2.88,1.29l2.78,1.26c2.14,1,4.31,1.88,6.48,2.8.95.39,1.91.76,2.86,1.14,1.27.51,2.53,1,3.81,1.5l1.44.54c.7.27,1.42.52,2.14.75l3.65,1.23c2,.68,4.11,1.28,6.18,1.89,1.13.33,2.26.62,3.4.93l2.86.77q3.75,1,7.52,2L2150,53.7c2.47.62,4.95,1.17,7.44,1.7l3.22.64c1.1.21,2.19.37,3.3.55,2.26.35,4.54.61,6.82.88q1.69.21,3.39.39c1.22.14,2.45.23,3.67.34,2.24.19,4.48.35,6.72.51l3.69.24,3,.22c1.16.09,2.32.18,3.47.29l3.21.31,2.71.3,7.44.81c2.62.27,5.24.59,7.86.91,2.16.27,4.32.49,6.47.73l3.27.37c1.45.16,2.9.27,4.35.39,2.22.19,4.44.39,6.67.54s4.68.27,7,.36c1.24,0,2.48.06,3.72.09l1.4,0Z" transform="translate(5.4 6.28)"/><path class="cls-2" d="M221.4,79.47c-34.13,2.81-66.69-5.85-98.38-17.74C94.34,51,65.24,39.74,38.56,24.56A243.59,243.59,0,0,1-3.06-5.9a1.39,1.39,0,0,0-2,2C15.38,18.7,44.48,33,72,44.89,102.37,58,133.62,71.35,166,78.7c18.33,4.16,37.13,6.07,55.79,3.28C223.15,81.76,222.83,79.35,221.4,79.47Z" transform="translate(5.4 6.28)"/><path class="cls-2" d="M2411.05,51.13c-16.67,10.3-32.36,22.48-48.38,33.74-15.51,10.91-30.67,22.79-47.16,32.19-16.72,9.53-34.86,16.45-52.69,23.57s-36.07,14-53.93,21.35c-.7.29-.44,1.42.32,1.17,18.95-6.21,37.52-13.57,56-21,17.12-6.9,34.55-13.52,50.69-22.55,16.83-9.42,32.29-21.45,48-32.57,16.07-11.37,32.87-22.13,48.25-34.43C2413,51.92,2411.93,50.58,2411.05,51.13Z" transform="translate(5.4 6.28)"/><path class="cls-2" d="M2063.53,171a53.29,53.29,0,0,0-5.38-1.06c-1.76-.42-3.58-.85-5.32-1.3-.27-.07-.54.3-.3.51a14,14,0,0,0,5,2.83,12.25,12.25,0,0,0,6,.69C2064.43,172.5,2064.28,171.27,2063.53,171Z" transform="translate(5.4 6.28)"/></g></svg>